<svg xmlns="http://www.w3.org/2000/svg" width="63" height="46.6" viewBox="0 0 63 46.6"><g fill="#221f20"><path d="M23.3 21.4h1.5v1.5h-1.5zm.7-17c-1.4 0-2.6.5-3.6 1.5s-1.5 2.2-1.5 3.6h1.5c0-1 .4-1.9 1.1-2.6 1.4-1.4 3.8-1.4 5.2 0 .7.7 1.1 1.7 1.1 2.6 0 1-.4 1.8-1.3 2.7-.1.1-1.9 1.7-2.7 4.7-.3 1-.4 1.9-.4 2.8h1.5c0-.9.1-1.7.4-2.4.7-2.4 2.3-4 2.3-4 1.2-1.3 1.6-2.4 1.6-3.8s-.6-2.6-1.6-3.6c-1-.9-2.3-1.5-3.6-1.5zm13.7 3h20.6v1.4H37.7zm-8 13.2h28.4v1.5H29.7z"></path><path d="M57.6 0H17.7c-3 0-5.5 2.5-5.5 5.5v3.9H5.5c-3 0-5.5 2.5-5.5 5.5v17.4c0 3 2.5 5.5 5.5 5.5h.9v8.7l9.7-8.7h22c3 0 5.5-2.5 5.5-5.5v-3.6h1.8L56 38.2v-9.5h1.5c3 0 5.5-2.5 5.5-5.5V5.5c.1-3.1-2.4-5.5-5.4-5.5zM42.2 32.4c0 2.3-1.9 4.1-4.1 4.1H15.6l-7.8 7v-7H5.5c-2.3 0-4.1-1.9-4.1-4.1V15c0-2.3 1.9-4.1 4.1-4.1h6.8v12.3c0 3 2.5 5.5 5.5 5.5v.1h24.4v3.6zm19.5-9.2c0 2.3-1.9 4.1-4.1 4.1h-3V35l-8.5-7.7H17.8c-2.3 0-4.1-1.9-4.1-4.1V5.5c0-2.3 1.9-4.1 4.1-4.1h39.8c2.3 0 4.1 1.9 4.1 4.1v17.7z"></path><path d="M34.1 14h24.2v1.5H34.1z"></path></g></svg>