<svg xmlns="http://www.w3.org/2000/svg" width="45" height="43.5" viewBox="0 0 45 43.5"><style>.st0{fill-rule:evenodd;clip-rule:evenodd}</style><path class="st0" d="M34.3 4.3L30 5.7l-.3-1 2.7-.9C25.8.8 18 1.5 12.1 5.7c-.2.1-.5.3-.8.6l-.6-.8c.3-.3.6-.5.8-.6C17.7.5 25.9-.2 32.8 3L31.9.3l1-.3 1.4 4.3zm-24.1 3l-.7-.7c-.2.2-.5.4-.7.7l.7.7c.2-.3.4-.5.7-.7zM8.6 9c-.3.2-.5.5-.7.7l-.8-.6c.1-.1.2-.3.3-.4v-.1c.1-.1.2-.3.3-.4l.9.8zm-1.5 1.8l-.8-.6-.6.9.8.6.6-.9zm36 2.4c-.1-.3-.3-.6-.4-1l-1 .4c.1.3.3.6.4.9l1-.3zm-.2 2.7l1-.3c-.1-.3-.2-.7-.3-1l-1 .3c.1.3.2.6.3 1zm.6 2.2l1-.2c-.1-.3-.1-.7-.3-1l-1 .3c.2.3.3.6.3.9zm-10.2 3.1c.5 0 1 .4 1 1 0 .5-.4 1-1 1-.5 0-1-.4-1-1 .1-.6.5-1 1-1zm0 2.6c1 0 1.7-.8 1.7-1.7 0-1-.8-1.7-1.7-1.7-1 0-1.7.8-1.7 1.7 0 .9.8 1.7 1.7 1.7zm6-4.2h-8c-.3 0-.6.3-.6.6v3.9c0 .3.3.6.6.6h8v-5.1zM13.5 30h.8v-.8h-.8v.8zm4 0h.8v-.8h-.8v.8zm-6 0h.8v-.8h-.8v.8zm4 0h.8v-.8h-.8v.8zm21.7-17.9h-27c-.4 0-.6.3-.6.6v18.7c0 .3.3.6.6.6h27c.3 0 .6-.3.6-.6v-6.1h-6.4c-.8 0-1.4-.6-1.4-1.4V20c0-.8.6-1.4 1.4-1.4h6.4v-6c0-.2-.3-.5-.6-.5zm0 20.8h-27c-.7 0-1.3-.6-1.3-1.3V12.8c0-.7.6-1.3 1.3-1.3l27-.1c.7 0 1.3.6 1.3 1.3v6h1.6v6.7h-1.6v6c0 .8-.5 1.5-1.3 1.5zm7.6-13.5c.1.4.1.7.1 1 .7 7.6-3 15-9.2 19.3l2.8.6-.2 1-4.5-1 1-4.5 1 .2-.6 2.8c5.9-4.1 9.4-11.2 8.8-18.4-.1-.2-.1-.6-.1-1h.9zM3.7 23.5l2.1 1.9.7-.8-3.4-3.1L0 24.9l.8.7 1.9-2.1c.5 7.6 5 14.5 11.9 17.8.2.1.6.3 1 .4l.4-1c-.4-.1-.7-.3-.9-.4-6.6-3-11-9.6-11.4-16.8zm13.2 18.8c.3.1.6.2 1 .3l.3-1c-.3-.1-.7-.2-1-.3l-.3 1zm2.4.6c.3.1.7.1 1 .2l.2-1c-.3-.1-.7-.1-1-.2l-.2 1zm2.4.4c.3.1.7.1 1 .1l.1-1c-.3 0-.7-.1-1-.1l-.1 1z"></path></svg>