<svg xmlns="http://www.w3.org/2000/svg" width="45" height="41.6" viewBox="0 0 45 41.6"><style>.st0{fill-rule:evenodd;clip-rule:evenodd}</style><path d="M21.8 6.5V.8c0-.5.2-.8.7-.8.4 0 .8.3.8.8v5.8c0 .4-.3.8-.8.8-.5-.1-.7-.5-.7-.9zM4.7 10.3c.2-.4.7-.5 1.1-.3l4.9 2.9c.4.2.5.7.3 1-.1.2-.4.4-.7.4-.1 0-.2 0-.4-.1L5 11.3c-.4-.2-.4-.6-.3-1zM34 13.9c-.2-.4-.1-.8.3-1l4.9-2.9c.4-.2.8-.1 1.1.3.2.4.1.8-.3 1.1l-5 2.8c-.1.1-.2.1-.4.1-.3-.1-.5-.2-.6-.4zm7.8 26.2H3.1c-.9 0-1.6-.8-1.6-1.7s.8-1.7 1.6-1.7h38.7c.9 0 1.7.8 1.7 1.7s-.7 1.7-1.7 1.7zM22.5 18.4c9.4 0 17.2 7.5 17.6 16.9H4.9c.4-9.4 8.1-16.9 17.6-16.9zm19.3 16.8h-.2c-.4-10-8.4-18-18.4-18.4V13h4.3c.4 0 .8-.3.8-.8s-.3-.8-.8-.8h-10c-.4 0-.8.3-.8.8 0 .4.3.8.8.8h4.3v3.8c-10 .4-18 8.4-18.4 18.4h-.3c-1.7 0-3.1 1.4-3.1 3.2 0 1.7 1.4 3.2 3.1 3.2h38.7c1.7 0 3.2-1.4 3.2-3.2 0-1.7-1.4-3.2-3.2-3.2z"></path></svg>