<svg xmlns="http://www.w3.org/2000/svg" width="42.8" height="45" viewBox="0 0 42.8 45"><style>.st0{fill-rule:evenodd;clip-rule:evenodd}</style><path class="st0" d="M4.7 4.1c-.8 0-1.5-.7-1.5-1.5 0-.9.7-1.6 1.5-1.6s1.5.7 1.5 1.5c0 .9-.7 1.6-1.5 1.6zm10.9-1.5c0-.8.7-1.5 1.5-1.5s1.5.7 1.5 1.5-.7 1.5-1.5 1.5-1.5-.7-1.5-1.5zm6.3 0c0-.8.7-1.5 1.5-1.5.9-.1 1.6.6 1.6 1.5 0 .8-.7 1.5-1.5 1.5-.9 0-1.6-.7-1.6-1.5zm14-1.6c.8 0 1.5.7 1.5 1.5S36.7 4 35.9 4s-1.5-.7-1.5-1.5S35 1 35.9 1zm-2.4 28c.7 0 1.3.6 1.3 1.3 0 .7-.6 1.3-1.3 1.3-.7 0-1.3-.5-1.3-1.3s.6-1.3 1.3-1.3zm0 3.6c1.3 0 2.4-1 2.4-2.4 0-1.3-1-2.3-2.4-2.3-1.3 0-2.4 1-2.4 2.3.1 1.3 1.1 2.4 2.4 2.4zm8.3 1.2v-7h-11c-.4 0-.8.4-.8.8V33c0 .4.3.8.8.8h11zM6.4 41.1h1v-1h-1v1zm5.4 0h1v-1h-1v1zm-8.2 0h1v-1h-1v1zm5.5 0h1v-1h-1v1zm30.5-15.4v-8.3c0-.4-.3-.8-.8-.8h-37c-.5 0-.8.3-.8.8v25.7c0 .4.3.8.8.8h37.1c.4 0 .8-.3.8-.8v-8.4h-8.8c-1 0-1.9-.8-1.9-1.9v-5.3c0-1 .8-1.9 1.9-1.9h8.7zM22.8 15.6V5.1c-1.1-.2-2-1.2-2-2.5C20.8 1.2 22 0 23.4 0 24.8 0 26 1.2 26 2.6c0 1.2-.8 2.3-2 2.5v10.5h3V10l6.4-6.7c-.1-.2-.1-.5-.1-.8 0-1.4 1.2-2.6 2.6-2.6s2.6 1.2 2.6 2.6c0 1.4-1.2 2.6-2.6 2.6-.8 0-1.4-.3-1.9-.8l-5.9 6.2v5.1h10.8c1 0 1.8.8 1.8 1.8v8.3h2.1v9.2h-2.1v8.3c0 1-.8 1.8-1.8 1.8H1.8c-1 0-1.8-.8-1.8-1.8V17.5c0-1 .8-1.8 1.8-1.8h10.5v-5.1L6.4 4.3c-.5.5-1.1.9-1.9.9-1.4 0-2.6-1.2-2.6-2.6C1.9 1.2 3.1 0 4.5 0s2.6 1.2 2.6 2.6c0 .3-.1.5-.1.8l6.4 6.7v5.5h3.1V5.1c-1.1-.2-2-1.2-2-2.5C14.4 1.2 15.6 0 17 0s2.6 1.2 2.6 2.6c0 1.2-.8 2.3-2 2.5v10.6h5.2z"></path></svg>