<?xml version="1.0" encoding="UTF-8" standalone="no"?>
<svg xmlns="http://www.w3.org/2000/svg" xmlns:xlink="http://www.w3.org/1999/xlink" width="100%" height="100%" viewBox="0 0 253 154" xml:space="preserve" style="fill-rule:evenodd;clip-rule:evenodd;stroke-linejoin:round;stroke-miterlimit:1.41421;">
  <rect id="Artboard38" x="0.286" y="0.126" width="252" height="153" style="fill:none;"></rect>
  <clipPath id="_clip1">
    <rect id="Artboard381" x="0.286" y="0.126" width="252" height="153"></rect>
  </clipPath>
  <g clip-path="url(#_clip1)">
    <path d="M126.965,95.957l0,11.34l2.52,-2.52l0.969,1.066l-4.168,4.168l-4.167,-4.168l0.969,-1.066l2.52,2.52l0,-11.34l1.357,0Zm-21.226,-6.009l-1.164,0.775c1.164,1.939 2.908,3.587 5.137,5.137c2.133,1.454 4.653,2.617 7.463,3.393l0.388,-1.357c-2.617,-0.776 -5.04,-1.842 -7.075,-3.199c-2.036,-1.357 -3.586,-3.004 -4.749,-4.749Zm36.346,4.749c-2.036,1.357 -4.459,2.423 -7.076,3.199l0.388,1.357c2.811,-0.776 5.331,-1.939 7.463,-3.393c2.229,-1.454 3.877,-3.198 5.137,-5.137l-1.163,-0.775c-1.163,1.745 -2.714,3.392 -4.749,4.749Zm12.987,-11.049l-2.423,-2.423l0.97,-0.969l4.167,4.167l-4.167,4.168l-0.97,-1.066l2.423,-2.423l-11.34,0l0,-1.454l11.34,0Zm-46.232,1.454l0,-1.454l-11.34,0l2.423,-2.423l-0.969,-0.969l-4.168,4.167l4.168,4.168l0.969,-1.066l-2.423,-2.423l11.34,0Zm40.417,-32.566c-0.194,-0.291 -0.582,-0.388 -0.872,-0.194l-35.959,14.344c-0.291,0.097 -0.387,0.291 -0.484,0.582c0,0.291 0.097,0.485 0.387,0.678l6.01,3.587l0,6.784c0,0.291 0.193,0.582 0.484,0.679c0.097,0 0.194,0 0.194,0c0.194,0 0.388,-0.097 0.582,-0.291l3.489,-4.459l6.397,3.78c0.29,0.194 0.678,0.097 0.969,-0.193l18.803,-24.425c0.194,-0.291 0.194,-0.582 0,-0.872Zm-38.769,21.614c0.969,-0.582 1.938,-1.164 3.004,-1.745l-0.581,-1.26c-1.163,0.581 -2.229,1.163 -3.199,1.841c-2.229,1.454 -3.877,3.199 -5.137,5.137l1.164,0.776c1.163,-1.842 2.713,-3.393 4.749,-4.749Zm28.786,-3.199l-0.582,1.26c1.163,0.582 2.327,1.163 3.393,1.842c2.035,1.357 3.586,2.907 4.749,4.652l1.163,-0.775c-1.163,-1.939 -2.908,-3.587 -5.137,-5.137c-1.066,-0.582 -2.229,-1.26 -3.586,-1.842Zm-9.499,5.719l-5.621,-3.393l7.463,-7.947c0.194,-0.291 0.291,-0.679 0.097,-0.97c-0.194,-0.29 -0.582,-0.387 -0.872,-0.194l-11.631,6.01l-4.846,-2.908l32.178,-12.697l-16.768,22.099Zm-9.886,-5.04l0,4.749l2.617,-3.393l5.234,-5.427l-7.851,4.071Z" style="fill:#dd4f05;"></path>
  </g>
</svg>
