<?xml version="1.0" encoding="UTF-8" standalone="no"?>
<svg xmlns="http://www.w3.org/2000/svg" xmlns:xlink="http://www.w3.org/1999/xlink" xmlns:serif="http://www.serif.com/" width="100%" height="100%" viewBox="0 0 252 153" xml:space="preserve" style="fill-rule:evenodd;clip-rule:evenodd;stroke-linejoin:round;stroke-miterlimit:1.41421;">
  <rect id="Artboard16" x="0" y="0" width="252" height="153" style="fill:none;"></rect>
  <rect x="81.605" y="36.012" width="90" height="90" style="fill:#e0e1e2;fill-opacity:0;"></rect>
  <path d="M105.687,101.728c6.389,0 11.581,-5.192 11.581,-11.581c0,-6.39 -5.192,-11.581 -11.581,-11.581c-6.39,0 -11.582,5.191 -11.582,11.581c0,6.389 5.192,11.581 11.582,11.581Zm2.895,-7.188c-0.2,1.098 -0.399,2.096 -0.799,2.995c-0.599,1.697 -1.398,2.695 -2.096,2.695c-0.999,0 -2.297,-2.096 -2.896,-5.69l5.791,0Zm-0.2,5.291c0.3,-0.499 0.599,-1.098 0.899,-1.797c0.399,-0.998 0.699,-2.196 0.898,-3.494l4.693,0c-1.398,2.496 -3.694,4.492 -6.49,5.291Zm-11.781,-5.291l4.693,0c0.299,2.096 0.898,3.993 1.697,5.291c-2.795,-0.799 -5.092,-2.696 -6.39,-5.291Zm59.803,0.199l-37.938,0c0.176,-0.487 0.324,-0.986 0.443,-1.497l37.595,0c0.699,0 1.198,-0.599 1.198,-1.198l0,-7.388l-39.596,0c-0.23,-0.517 -0.49,-1.017 -0.78,-1.498l40.276,0l0,-20.167c0,-0.599 -0.499,-1.198 -1.198,-1.198l-51.217,0c-0.599,0 -1.198,0.499 -1.198,1.198l0.1,0l0,13.671c-0.508,0.06 -1.008,0.148 -1.497,0.262l0,-13.933c0,-1.497 1.198,-2.695 2.695,-2.696l51.217,0c1.498,0.001 2.695,1.199 2.596,2.696l0,29.053c0,1.497 -1.198,2.695 -2.696,2.695Zm-47.622,-1.697c0,-0.898 0.099,-1.897 0.099,-2.895c0,-0.999 -0.099,-1.997 -0.199,-2.895l-6.19,0c0,0.898 -0.1,1.896 -0.1,2.895c0,0.998 0.1,1.997 0.2,2.895l6.19,0Zm6.589,0c0.2,-0.898 0.399,-1.897 0.399,-2.895c0,-0.999 -0.199,-1.997 -0.499,-2.895l-5.092,0c0.1,0.998 0.2,1.896 0.2,2.895c0,0.998 0,1.997 -0.1,2.895l5.092,0Zm-14.177,0c-0.1,-0.998 -0.2,-1.897 -0.2,-2.895c0,-0.999 0,-1.997 0.1,-2.895l-5.092,0c-0.299,0.898 -0.399,1.896 -0.299,2.895c0,0.998 0.1,1.997 0.399,2.895l5.092,0Zm19.169,-4.892l1.497,0l0,1.498l-1.497,0l0,-1.498Zm27.755,0l1.497,0l0,1.498l-1.497,0l0,-1.498Zm3.993,0l1.498,0l0,1.498l-1.498,0l0,-1.498Zm-7.987,0l1.498,0l0,1.498l-1.498,0l0,-1.498Zm-19.768,0l1.498,0l0,1.498l-1.498,0l0,-1.498Zm11.881,0l1.497,0l0,1.498l-1.497,0l0,-1.498Zm3.993,0l1.498,0l0,1.498l-1.498,0l0,-1.498Zm-7.987,0l1.498,0l0,1.498l-1.498,0l0,-1.498Zm-3.893,0l1.497,0l0,1.498l-1.497,0l0,-1.498Zm-19.768,-2.396c-0.599,-3.594 -1.897,-5.691 -2.895,-5.691c-0.699,0 -1.498,0.999 -2.097,2.696c-0.399,0.898 -0.599,1.897 -0.799,2.995l5.791,0Zm6.19,0c-1.298,-2.596 -3.594,-4.593 -6.49,-5.291c0.899,1.297 1.498,3.194 1.797,5.291l4.693,0Zm-13.578,0c0.2,-1.298 0.499,-2.496 0.898,-3.494c0.3,-0.699 0.599,-1.298 0.899,-1.797c-2.795,0.698 -5.092,2.695 -6.489,5.291l4.692,0Zm37.738,-19.069l14.377,0l0,8.486l-14.377,0l0,-8.486Zm-30.55,6.889l20.567,0l0,1.497l-20.567,0l0,-1.497Zm43.529,0.199l0,-5.59l-11.481,0l0,5.59l11.481,0Zm-43.529,-5.091l13.778,0l0,1.497l-13.778,0l0,-1.497Z" style="fill:#dd4f05;"></path>
</svg>
