<?xml version="1.0" encoding="UTF-8" standalone="no"?>
<svg xmlns="http://www.w3.org/2000/svg" xmlns:xlink="http://www.w3.org/1999/xlink" width="100%" height="100%" viewBox="0 0 253 154" xml:space="preserve" style="fill-rule:evenodd;clip-rule:evenodd;stroke-linejoin:round;stroke-miterlimit:1.41421;">
  <rect id="Artboard36" x="0.286" y="0.126" width="252" height="153" style="fill:none;"></rect>
  <clipPath id="_clip1">
    <rect id="Artboard361" x="0.286" y="0.126" width="252" height="153"></rect>
  </clipPath>
  <g clip-path="url(#_clip1)">
    <path d="M107.836,110.026l-4.1,0l0,-25.4l41.6,0l0,4.1l3.5,0l0,24.9l-41,0l0,-3.6Zm39.6,2.1l0,-21.9l-2.1,0l0,19.8l-36,0l0,2.1l38.1,0Zm-3.6,-3.5l0,-22.5l-38.6,0l0,22.5l38.6,0Zm-8.1,-19.2l0,0.7c0,2.3 1.8,4.2 4.1,4.2l0.7,0l0,6.1l-0.7,0c-2.3,0 -4.2,1.9 -4.2,4.2l0,0.7l-22.2,0l0,-0.7c0,-2.3 -1.9,-4.2 -4.2,-4.2l-0.7,0l0,-6.1l0.7,0c2.3,0 4.2,-1.9 4.2,-4.2l0,-0.7l22.3,0Zm-1.5,14.5c0.3,-2.6 2.4,-4.6 4.9,-4.9l0,-3.2c-2.6,-0.3 -4.6,-2.4 -4.9,-4.9l-19.4,0c-0.3,2.6 -2.4,4.6 -4.9,4.9l0,3.2c2.6,0.3 4.6,2.4 4.9,4.9l19.4,0Zm-12,-48.6l0,17.8l3.6,0l-8.3,8.4l-8.4,-8.4l3.3,0l0,-5.8l1.5,0l0,5.8l4.2,0l0,1.5l-5.4,0l4.8,4.8l4.7,-4.8l-1.5,0l0,-19.3l1.5,0Zm7.9,20l1.5,0l0,1.5l-1.5,0l0,-1.5Zm-3.3,-18.4l8.3,-8.3l8.4,8.3l-3.6,0l0,18l-1.5,0l0,-19.4l1.5,0l-4.8,-4.8l-4.7,4.8l5.4,0l0,1.4l-4.2,0l0,10.6l-1.5,0l0,-10.6l-3.3,0Zm3.3,15.4l1.5,0l0,1.5l-1.5,0l0,-1.5Zm0,-3l1.5,0l0,1.5l-1.5,0l0,-1.5Zm-17.7,-5.2l1.5,0l0,1.5l-1.5,0l0,-1.5Zm0,-2.9l1.5,0l0,1.5l-1.5,0l0,-1.5Zm0,-3l1.5,0l0,1.5l-1.5,0l0,-1.5Z" style="fill:#dd4f05;"></path>
  </g>
</svg>
