<?xml version="1.0" encoding="UTF-8" standalone="no"?>
<svg xmlns="http://www.w3.org/2000/svg" xmlns:xlink="http://www.w3.org/1999/xlink" width="100%" height="100%" viewBox="0 0 253 154" xml:space="preserve" style="fill-rule:evenodd;clip-rule:evenodd;stroke-linejoin:round;stroke-miterlimit:1.41421;">
  <rect id="Artboard33" x="0.286" y="0.126" width="252" height="153" style="fill:none;"></rect>
  <clipPath id="_clip1">
    <rect id="Artboard331" x="0.286" y="0.126" width="252" height="153"></rect>
  </clipPath>
  <g clip-path="url(#_clip1)">
    <path d="M144.994,56.215l9.137,0l0,1.442l-6.444,0c6.444,5.867 10.099,14.235 10.099,22.988c0,17.313 -14.139,31.452 -31.452,31.452l0,-1.443c16.544,0 30.009,-13.465 30.009,-30.009c0,-8.464 -3.654,-16.543 -9.906,-22.122l0,6.829l-1.443,0l0,-9.137Zm-22.122,54.439l1.442,0l0,1.443l-1.442,0l0,-1.443Zm-3.559,0l1.443,0l0,1.443l-1.443,0l0,-1.443Zm-3.559,0l1.443,0l0,1.443l-1.443,0l0,-1.443Zm-3.559,0l1.443,0l0,1.443l-1.443,0l0,-1.443Zm-7.406,-6.059c-6.348,-5.867 -10.003,-14.235 -10.003,-22.988c0,-17.313 14.043,-31.452 31.452,-31.452l0,1.443c-16.543,0 -30.009,13.465 -30.009,30.009c0,8.464 3.559,16.543 9.811,22.218l0,-6.925l1.442,0l0,9.137l-9.137,0l0,-1.442l6.444,0Zm42.609,-7.791l-33.471,0l0,-0.481l-11.061,-16.159l27.604,-18.852l10.292,15.005l6.636,0l0,20.487Zm-1.442,-1.443l0,-17.601l-30.587,0l0,17.601l30.587,0Zm-7.022,-19.044l-8.849,-12.985l-25.2,17.217l9.042,13.273l0,-4.04l-4.232,-6.251l0.577,-0.385c0.481,-0.289 0.769,-0.77 0.865,-1.347c0.193,-0.577 0,-1.154 -0.288,-1.635l-0.385,-0.577l3.463,-2.405l0,-0.865l1.25,0l11.927,-8.176l0.385,0.577c0.288,0.481 0.769,0.77 1.346,0.866c0.577,0.192 1.154,0 1.635,-0.289l0.577,-0.384l4.136,6.059l-0.577,0.385c-0.385,0.192 -0.577,0.577 -0.769,0.962l5.097,0Zm1.732,3.655l0,0.769c0,1.251 1.058,2.212 2.212,2.212l0.769,0l0,7.214l-0.769,0c-1.251,0 -2.212,1.058 -2.212,2.212l0,0.77l-20.103,0l0,-0.77c0,-1.25 -0.961,-2.212 -2.116,-2.212l-0.769,0l0,-7.214l0.769,0c1.155,0 2.116,-1.058 2.116,-2.212l0,-0.769l20.103,0Zm-1.347,1.539l-17.409,0c-0.289,1.346 -1.347,2.501 -2.789,2.789l0.096,0l0,4.521c1.346,0.288 2.501,1.346 2.789,2.789l17.313,0c0.289,-1.347 1.347,-2.501 2.789,-2.789l0,-4.521c-1.346,-0.288 -2.5,-1.347 -2.789,-2.789Zm-8.656,8.079c1.731,0 3.077,-1.346 3.077,-3.078c0,-1.731 -1.346,-2.981 -3.077,-2.981c-1.732,0 -3.078,1.346 -3.078,3.077c0,1.732 1.442,2.982 3.078,2.982Zm0,-4.617c0.865,0 1.635,0.77 1.635,1.635c0,0.866 -0.77,1.636 -1.635,1.636c-0.866,0 -1.636,-0.77 -1.636,-1.636c0,-0.865 0.77,-1.635 1.636,-1.635Zm-18.275,-5.001l1.539,-1.058l0,8.272l-2.309,-3.367c0.481,-0.481 0.77,-1.154 0.962,-1.827c0.192,-0.674 0.096,-1.443 -0.192,-2.02Zm20.006,-3.655c0.096,-0.673 0.481,-1.251 0.866,-1.635l-2.597,-3.751c-0.578,0.288 -1.347,0.288 -2.02,0.192c-0.674,-0.192 -1.347,-0.481 -1.828,-0.962l-9.041,6.156l14.62,0Zm-4.232,-26.162l1.443,0l0,1.443l-1.443,0l0,-1.443Zm3.559,0l1.442,0l0,1.443l-1.442,0l0,-1.443Zm3.558,0l1.443,0l0,1.443l-1.443,0l0,-1.443Zm3.559,0l1.443,0l0,1.443l-1.443,0l0,-1.443Z" style="fill:#dd4f05;"></path>
  </g>
</svg>
