<?xml version="1.0" encoding="UTF-8" standalone="no"?>
<svg xmlns="http://www.w3.org/2000/svg" xmlns:xlink="http://www.w3.org/1999/xlink" width="100%" height="100%" viewBox="0 0 253 154" xml:space="preserve" style="fill-rule:evenodd;clip-rule:evenodd;stroke-linejoin:round;stroke-miterlimit:1.41421;">
  <rect id="Artboard43" x="0.286" y="0.071" width="252" height="153" style="fill:none;"></rect>
  <clipPath id="_clip1">
    <rect id="Artboard431" x="0.286" y="0.071" width="252" height="153"></rect>
  </clipPath>
  <g clip-path="url(#_clip1)">
    <rect x="81.286" y="36.071" width="90" height="90" style="fill:#e0e1e2;fill-opacity:0;"></rect>
    <path d="M104.866,93.719l-0.097,0c-0.775,0 -1.357,-0.29 -1.841,-0.872c-0.873,-1.066 -4.168,-4.652 -8.142,-6.3l0.388,-1.26c4.168,1.648 7.463,5.234 8.723,6.688c0.291,0.291 0.582,0.291 0.775,0.291c0.291,0 0.582,-0.097 0.679,-0.291l8.044,-11.631c0.097,-0.194 0.097,-0.291 0.097,-0.485c0,-0.29 -0.29,-0.678 -0.678,-0.872c-0.194,-0.194 -0.775,-0.388 -1.357,-0.678c-0.872,-0.388 -2.035,-0.873 -3.392,-1.648l0.678,-1.26c1.357,0.678 2.423,1.163 3.296,1.551c0.678,0.291 1.163,0.581 1.55,0.775c0.679,0.485 1.163,1.163 1.357,1.842c0,0.194 0,0.387 0,0.581l22.583,0l0,-0.581c0.097,-0.776 0.679,-1.357 1.357,-1.842c0.388,-0.194 0.873,-0.484 1.551,-0.775c0.775,-0.388 1.745,-0.776 2.811,-1.357l0.678,1.26c-1.163,0.581 -2.132,0.969 -2.907,1.357c-0.582,0.291 -1.067,0.484 -1.357,0.678c-0.388,0.194 -0.582,0.582 -0.679,0.873c0,0.193 0,0.387 0.097,0.484l8.045,11.631c0.194,0.194 0.387,0.291 0.678,0.291c0.194,0 0.485,0 0.679,-0.291c1.26,-1.454 4.555,-5.04 8.723,-6.688l0.581,1.357c-3.974,1.648 -7.269,5.234 -8.141,6.3c-0.485,0.582 -1.163,0.872 -1.842,0.872l-0.097,0c-0.678,-0.096 -1.357,-0.387 -1.744,-0.969l-7.657,-11.243l-15.508,0l-5.622,3.102l0,4.846c0.388,0 0.873,-0.097 1.357,-0.388c0.873,-0.484 1.454,-1.648 1.745,-3.392l0.097,-0.582l7.366,0l-0.291,0.776c0,0.29 0.485,2.907 3.974,2.907l2.132,0l10.856,7.367c0.678,0.484 1.163,1.26 1.357,2.132c0.194,0.872 0,1.744 -0.485,2.52c-0.581,0.969 -1.648,1.454 -2.714,1.454c-0.581,0 -1.26,-0.194 -1.841,-0.582l-0.388,-0.291c0,0.679 -0.194,1.357 -0.581,1.939c-0.485,0.678 -1.26,1.163 -2.133,1.357c-0.194,0.097 -0.387,0.097 -0.581,0.097c-0.582,0 -1.26,-0.194 -1.842,-0.582l-0.194,-0.097c0,0.582 -0.194,1.26 -0.581,1.842c-0.582,0.969 -1.648,1.454 -2.714,1.454c-0.582,0 -1.26,-0.194 -1.842,-0.582l-0.775,-0.581c0,0.581 -0.194,1.26 -0.582,1.841c-0.484,0.679 -1.26,1.163 -2.132,1.357c-0.194,0.097 -0.388,0.097 -0.581,0.097c-0.582,0 -1.163,-0.194 -1.745,-0.485c-0.582,0.679 -1.357,1.066 -2.229,1.066c-0.679,0 -1.26,-0.193 -1.745,-0.581c-0.678,-0.485 -1.066,-1.163 -1.163,-1.939c0,-0.096 0,-0.096 0,-0.193c-0.291,0.097 -0.581,0.193 -0.872,0.193c-0.679,0 -1.357,-0.29 -1.939,-0.678c-0.678,-0.485 -1.163,-1.26 -1.26,-2.132c0,-0.097 0,-0.194 0,-0.291c-0.194,0.097 -0.484,0.097 -0.775,0.097c-0.679,0 -1.357,-0.291 -1.939,-0.679c-0.678,-0.484 -1.163,-1.26 -1.26,-2.132c0,-0.194 0,-0.291 0,-0.485c-0.193,0.097 -0.387,0.097 -0.581,0.097c-0.679,0 -1.26,-0.193 -1.842,-0.581l-0.097,-0.097c-0.678,-0.485 -1.163,-1.163 -1.26,-2.035c-0.096,-0.776 0.097,-1.648 0.582,-2.327c0.194,-0.29 0.485,-0.484 0.775,-0.678c0,-0.097 -0.097,-0.194 -0.097,-0.291c-0.096,-0.194 -0.193,-0.291 -0.29,-0.581c-0.291,-0.679 -1.066,-1.357 -1.551,-1.842c-0.388,0.485 -0.969,0.775 -1.648,0.775Zm18.416,13.764l-0.291,0.387c-0.485,0.582 -1.357,0.776 -2.036,0.291c-0.29,-0.194 -0.484,-0.582 -0.581,-0.969c-0.097,-0.388 0,-0.776 0.291,-1.066l0.29,-0.388c0.291,-0.388 0.679,-0.582 1.164,-0.582c0.29,0 0.581,0.097 0.872,0.291c0.678,0.485 0.775,1.454 0.291,2.036Zm-3.587,-25.976l-5.427,0l-6.979,10.274c0.582,0.485 1.551,1.357 2.036,2.326c0.097,0.291 0.194,0.485 0.29,0.679c0.097,0.193 0.097,0.29 0.194,0.387c0.776,-0.097 1.551,0.097 2.23,0.582l0.096,0.097c0.485,0.387 0.873,0.969 1.067,1.551c1.066,-0.776 2.713,-0.776 3.78,0c0.581,0.387 0.969,0.969 1.163,1.647c0.581,-0.484 1.26,-0.678 1.938,-0.678c0.679,0 1.357,0.291 1.939,0.678c1.453,0.969 1.744,3.005 0.678,4.459l-0.291,0.387c0.485,0 1.066,0.194 1.454,0.485c1.066,0.775 1.357,2.132 0.969,3.295c0.388,0.291 0.873,0.388 1.357,0.291c0.485,-0.097 0.873,-0.388 1.163,-0.775c0.582,-0.873 0.388,-2.036 -0.484,-2.617l0,-0.097l-1.745,-1.26l0.872,-1.163l4.847,3.392c0.872,0.582 2.035,0.388 2.617,-0.484c0.581,-0.776 0.387,-1.842 -0.291,-2.424l-3.877,-2.616l0.581,-1.454l3.683,2.52l2.424,1.647c0.484,0.291 0.969,0.388 1.453,0.291c0.485,-0.097 0.873,-0.388 1.163,-0.775c0.582,-0.873 0.388,-2.036 -0.484,-2.617l-7.463,-5.137l0.872,-1.163l10.177,6.978c0.872,0.582 2.035,0.388 2.617,-0.484c0.291,-0.388 0.388,-0.873 0.291,-1.357c-0.097,-0.485 -0.388,-0.873 -0.776,-1.163l-10.467,-7.076l-1.648,0c-3.392,0 -4.846,-2.132 -5.331,-3.586l-4.943,0c-0.388,1.939 -1.163,3.199 -2.326,3.877c-1.454,0.872 -2.908,0.388 -3.005,0.388l-0.484,-0.194l0,-6.882l4.07,-2.229Zm-2.616,24.134c-0.388,-0.291 -0.582,-0.678 -0.679,-1.163c-0.097,-0.485 0,-0.969 0.291,-1.26l1.066,-1.454l0.969,-1.357c0.291,-0.484 0.873,-0.678 1.454,-0.678c0.388,0 0.775,0.097 1.066,0.387c0.388,0.291 0.582,0.679 0.679,1.163c0.097,0.485 0,0.97 -0.291,1.26l-2.035,2.811c-0.679,0.679 -1.842,0.873 -2.52,0.291Zm-4.071,-2.908c-0.388,-0.29 -0.582,-0.678 -0.679,-1.163c-0.097,-0.387 0,-0.872 0.291,-1.26c0.097,-0.097 0.194,-0.194 0.194,-0.291c0.097,-0.096 0.872,-1.26 0.872,-1.26c0.291,-0.484 0.873,-0.678 1.454,-0.678c0.388,0 0.775,0.097 1.066,0.388c0.776,0.581 0.969,1.647 0.388,2.423l-1.066,1.454c-0.582,0.775 -1.745,0.872 -2.52,0.387Zm-3.683,-3.198l-0.097,-0.097c-0.388,-0.291 -0.582,-0.679 -0.679,-1.066c-0.097,-0.485 0,-0.873 0.291,-1.26c0.291,-0.388 0.775,-0.679 1.357,-0.679c0.388,0 0.678,0.097 0.969,0.291l0.097,0.097c0.679,0.485 0.872,1.357 0.582,2.035l-0.388,0.485l0,0.097c-0.582,0.485 -1.454,0.581 -2.132,0.097Zm16.961,-24.231c6.397,0 11.631,-5.234 11.631,-11.631c0,-6.397 -5.234,-11.63 -11.631,-11.63c-6.397,0 -11.631,5.233 -11.631,11.63c0,6.397 5.234,11.631 11.631,11.631Zm0,-21.711c5.622,0 10.177,4.556 10.177,10.177c0,5.622 -4.555,10.177 -10.177,10.177c-5.621,0 -10.177,-4.652 -10.177,-10.177c0,-5.524 4.556,-10.177 10.177,-10.177Zm6.3,6.494l-1.066,-0.969l-7.754,7.754l-2.714,-2.811l-1.066,1.066l3.78,3.78l8.82,-8.82Z" style="fill:#dd4f05;"></path>
  </g>
</svg>
