<?xml version="1.0" encoding="UTF-8" standalone="no"?>
<svg xmlns="http://www.w3.org/2000/svg" xmlns:xlink="http://www.w3.org/1999/xlink" width="100%" height="100%" viewBox="0 0 253 154" xml:space="preserve" style="fill-rule:evenodd;clip-rule:evenodd;stroke-linejoin:round;stroke-miterlimit:1.41421;">
  <rect id="Artboard45" x="0.286" y="0.071" width="252" height="153" style="fill:none;"></rect>
  <clipPath id="_clip1">
    <rect id="Artboard451" x="0.286" y="0.071" width="252" height="153"></rect>
  </clipPath>
  <g clip-path="url(#_clip1)">
    <rect x="81.286" y="36.071" width="90" height="90" style="fill:#e0e1e2;fill-opacity:0;"></rect>
    <path d="M154.561,67.629c-0.097,-0.291 -0.388,-0.485 -0.679,-0.485l-9.416,-0.388l7.668,-16.21c0.194,-0.292 0,-0.68 -0.291,-0.874c-0.291,-0.194 -0.679,-0.097 -0.971,0.194l-12.618,15.628c-4.271,-2.912 -9.319,-4.465 -14.463,-4.465c-14.172,0 -25.82,11.551 -25.82,25.819c0.097,14.172 11.648,25.723 25.82,25.723c14.172,0 25.82,-11.551 25.82,-25.82c0,-3.785 -0.777,-7.377 -2.33,-10.774l7.183,-7.668c0.097,-0.097 0.194,-0.486 0.097,-0.68Zm-6.406,19.122c0,13.396 -10.872,24.364 -24.364,24.364c-13.492,0 -24.364,-10.871 -24.364,-24.364c0,-13.395 10.969,-24.363 24.364,-24.363c4.853,0 9.512,1.456 13.589,4.174l-5.241,6.503c-0.194,0.194 -0.194,0.582 -0.097,0.777c0.097,0.291 0.388,0.388 0.679,0.388l7.862,-0.777l-7.668,15.628c-0.194,0.291 -0.097,0.679 0.194,0.874c0.097,0.097 0.292,0.097 0.389,0.097c0.194,0 0.388,-0.097 0.485,-0.195l12.23,-12.715c1.262,3.009 1.942,6.309 1.942,9.609Zm-25.044,19.511l1.456,0l0,2.426l-1.456,0l0,-2.426Zm16.714,-4.439l-1.716,-1.715l-1.029,1.029l1.716,1.716l1.029,-1.03Zm-31.986,-0.092l1.029,1.029l1.716,-1.715l-1.029,-1.03l-1.716,1.716Zm16.728,-31.869l0,13.783c1.359,0.291 2.427,1.65 2.427,3.106c0,0.874 -0.388,1.748 -0.971,2.33c-0.582,0.582 -1.358,0.971 -2.232,0.971c-1.456,0 -2.815,-1.068 -3.106,-2.524l-11.163,0l0,-1.456l11.163,0c0.291,-1.165 1.262,-2.136 2.426,-2.427l0,-13.783l1.456,0Zm0.486,18.151c-0.291,0.291 -0.777,0.486 -1.262,0.486c-0.971,0 -1.747,-0.777 -1.747,-1.748c0,-0.97 0.776,-1.747 1.747,-1.747c0.971,0 1.747,0.777 1.747,1.747c0.097,0.486 -0.097,0.971 -0.485,1.262Zm-23.102,-1.941l2.427,0l0,1.456l-2.427,0l0,-1.456Zm41.35,0l2.427,0l0,1.456l-2.427,0l0,-1.456Zm-1.456,-14.075c0.194,0 0.486,0.097 0.583,0.291c0.194,0.292 0.194,0.583 0.097,0.777l-6.115,12.424l15.821,-16.889l-8.93,-0.388c-0.194,-0.097 -0.485,-0.194 -0.582,-0.389c-0.097,-0.194 -0.097,-0.485 0,-0.679l5.533,-11.745l-13.978,17.278l7.474,-0.68l0.097,0Zm-31.284,0.492l-1.716,-1.716l-1.029,1.03l1.715,1.716l1.03,-1.03Zm12.55,-7.578l1.456,0l0,2.427l-1.456,0l0,-2.427Z" style="fill:#dd4f05;"></path>
  </g>
</svg>
