<?xml version="1.0" encoding="UTF-8" standalone="no"?>
<svg xmlns="http://www.w3.org/2000/svg" xmlns:xlink="http://www.w3.org/1999/xlink" width="100%" height="100%" viewBox="0 0 253 154" xml:space="preserve" style="fill-rule:evenodd;clip-rule:evenodd;stroke-linejoin:round;stroke-miterlimit:1.41421;">
  <rect id="Artboard44" x="0.286" y="0.071" width="252" height="153" style="fill:none;"></rect>
  <clipPath id="_clip1">
    <rect id="Artboard441" x="0.286" y="0.071" width="252" height="153"></rect>
  </clipPath>
  <g clip-path="url(#_clip1)">
    <rect x="81.286" y="36.071" width="90" height="90" style="fill:#e0e1e2;fill-opacity:0;"></rect>
    <path d="M102.734,63.576l0,3.199l25.588,-3.199l7.657,7.657l21.807,0l0,21.42l-3.489,0l-1.163,5.913l-29.755,-5.913l-0.679,0l0,-0.097l-3.974,-0.775l1.066,-5.234l-8.044,0c-2.133,0 -4.168,-0.872 -5.622,-2.52l-1.647,-1.841l-1.745,0l0,3.101l-6.591,0l0,-1.454l5.137,0l0,-18.803l-6.494,0l0,-1.454l7.948,0Zm49.334,33.342l-21.033,-4.168l21.905,0l-0.872,4.168Zm4.167,-5.622l0,-18.706l-32.081,0l0,7.173l1.745,0c0.127,0 0.235,0.018 0.342,0.039l0.091,0.018c0.106,0.021 0.215,0.039 0.342,0.039l0,-1.938l0.775,0c1.163,0 2.036,-0.872 2.036,-2.035l0,-0.776l21.614,0l0,0.776c0,1.163 0.872,2.035 2.035,2.035l0.775,0l0,8.045l-0.775,0c-1.163,0 -2.035,0.872 -2.035,2.035l0,0.775l-21.614,0l0,-0.775c0,-0.485 -0.291,-1.066 -0.582,-1.454l-4.652,0l0,4.749l31.984,0Zm-35.667,-0.581l0.775,-4.071l1.454,0l0,4.555l-2.229,-0.484Zm29.077,-3.296c0.29,-1.356 1.357,-2.423 2.714,-2.713l0,-5.331c-1.357,-0.291 -2.424,-1.357 -2.714,-2.714l-18.803,0c-0.291,1.357 -1.357,2.423 -2.714,2.714l0,0.969c2.229,0.872 3.78,3.005 3.78,5.525l0,0.775l-1.357,0c0.097,0.291 0.194,0.485 0.291,0.775l18.803,0Zm-8.53,-9.789l0,0.969c0.388,0.097 0.679,0.291 0.97,0.485c0.484,0.388 0.775,0.969 0.775,1.551l-1.454,0c0,-0.194 -0.097,-0.388 -0.194,-0.485c-0.387,-0.291 -1.066,-0.291 -1.453,0c-0.097,0.097 -0.291,0.291 -0.291,0.485c0,0.194 0.097,0.388 0.194,0.484c0.097,0.194 0.387,0.291 0.678,0.291c0.582,0 1.163,0.194 1.648,0.582c0.484,0.387 0.775,0.969 0.775,1.551c0,0.581 -0.291,1.163 -0.775,1.55c-0.291,0.194 -0.582,0.388 -0.969,0.485l0,0.872l-1.454,0l0,-0.969c-0.388,-0.097 -0.679,-0.291 -0.97,-0.485c-0.484,-0.387 -0.775,-0.969 -0.775,-1.55l1.454,0c0,0.194 0.194,0.387 0.291,0.484c0.387,0.291 1.066,0.291 1.454,0c0.096,-0.097 0.193,-0.194 0.193,-0.387c0,-0.194 -0.097,-0.388 -0.193,-0.485c-0.194,-0.194 -0.388,-0.291 -0.679,-0.291c-0.581,0 -1.163,-0.194 -1.648,-0.581c-0.484,-0.388 -0.775,-0.97 -0.775,-1.551c0,-0.582 0.291,-1.163 0.775,-1.551c0.291,-0.194 0.582,-0.388 0.97,-0.485l0,-0.969l1.453,0Zm-7.269,-6.397l-6.106,-6.106l-25.006,3.102l0,12.6l2.326,0l2.132,2.326c1.163,1.26 2.908,2.035 4.653,2.035l18.512,0c-0.291,-2.132 -2.229,-3.78 -4.458,-3.78l-3.49,0c-1.454,0 -2.81,-0.581 -3.877,-1.647c-0.484,-0.485 -0.775,-1.164 -0.775,-1.939c0,-0.775 0.291,-1.454 0.775,-1.938l6.591,-6.591l1.939,1.938l6.784,0Zm-11.049,8.723l0,-6.106l-3.102,3.102c-0.484,0.484 -0.484,1.26 0,1.744c0.679,0.776 1.745,1.163 2.811,1.163l0,0.097l0.291,0Z" style="fill:#dd4f05;"></path>
  </g>
</svg>
