<?xml version="1.0" encoding="UTF-8" standalone="no"?>
<svg xmlns="http://www.w3.org/2000/svg" xmlns:xlink="http://www.w3.org/1999/xlink" width="100%" height="100%" viewBox="0 0 253 154" xml:space="preserve" style="fill-rule:evenodd;clip-rule:evenodd;stroke-linejoin:round;stroke-miterlimit:1.41421;">
  <rect id="Artboard34" x="0.286" y="0.126" width="252" height="153" style="fill:none;"></rect>
  <clipPath id="_clip1">
    <rect id="Artboard341" x="0.286" y="0.126" width="252" height="153"></rect>
  </clipPath>
  <g clip-path="url(#_clip1)">
    <path d="M142.279,81.465c-6.204,0 -11.437,3.586 -13.957,8.82l-13.279,-5.815c0.388,-1.163 0.679,-2.423 0.679,-3.683c0,-1.066 -0.194,-2.229 -0.485,-3.199l16.477,-8.82c2.229,3.49 6.106,5.816 10.565,5.816c6.881,0 12.503,-5.622 12.503,-12.503c0,-6.882 -5.622,-12.31 -12.503,-12.31c-6.882,0 -12.504,5.622 -12.504,12.503c0,1.939 0.485,3.78 1.26,5.331l-16.283,8.723c-1.647,-3.489 -5.33,-5.912 -9.401,-5.912c-5.816,0 -10.565,4.652 -10.565,10.468c0,5.815 4.749,10.467 10.468,10.467c3.974,0 7.463,-2.229 9.208,-5.524l13.278,5.815c-0.581,1.648 -0.969,3.392 -0.969,5.331c0,8.529 6.978,15.508 15.508,15.508c8.529,0 15.507,-6.979 15.507,-15.508c0,-8.529 -6.978,-15.508 -15.507,-15.508Zm1.356,24.231l-2.52,0l-2.81,-5.234c-2.52,0.194 -4.556,2.326 -4.556,4.943l0,2.617c2.326,1.842 5.331,2.908 8.626,3.005c3.296,0 6.204,-1.163 8.627,-3.005l0,-2.617c0,-2.617 -2.036,-4.749 -4.556,-4.943l-2.811,5.234Zm2.327,-6.591c3.489,0 6.397,2.908 6.397,6.397l0,1.26c2.423,-2.617 3.973,-6.009 4.07,-9.789c0,-7.754 -6.3,-14.054 -14.054,-14.054c-7.753,0 -14.053,6.3 -14.053,14.054c0,3.78 1.55,7.269 3.973,9.789l0,-1.357c0,-3.489 2.908,-6.397 6.397,-6.397l0.388,0l2.908,5.331l0.775,0l2.811,-5.234l0.388,0Zm-3.683,-11.146c-2.714,0 -4.944,2.229 -4.944,4.943c0,2.714 2.23,4.943 4.944,4.943c2.713,0 4.943,-2.229 4.943,-4.943c0.097,-2.714 -2.133,-4.943 -4.943,-4.943Zm0,8.529c-1.939,0 -3.587,-1.55 -3.587,-3.586c0,-1.938 1.551,-3.586 3.587,-3.586c1.938,0 3.586,1.551 3.586,3.586c0,2.036 -1.551,3.586 -3.586,3.586Zm-36.056,-9.498l-1.938,0l-1.842,-3.489c-1.454,0.193 -2.617,1.453 -2.617,3.004l0,1.551c1.551,1.163 3.393,1.842 5.428,1.842c2.035,0 3.877,-0.679 5.428,-1.842l0,-1.551c0,-1.551 -1.163,-2.811 -2.617,-3.004l-1.842,3.489Zm1.454,-4.943c2.423,0 4.458,2.035 4.458,4.458l0,0.194c1.357,-1.551 2.23,-3.586 2.133,-5.815c0,-4.943 -4.071,-9.014 -9.014,-9.014c-4.943,0 -9.014,4.071 -9.014,9.014c0,2.229 0.775,4.264 2.132,5.815l0,-0.194c0,-2.423 2.036,-4.458 4.459,-4.458l0.581,0l1.842,3.489l0.194,0l1.841,-3.489l0.388,0Zm-2.423,-7.366c-1.939,0 -3.586,1.55 -3.586,3.586c0,1.938 1.551,3.586 3.586,3.586c2.035,0 3.586,-1.551 3.586,-3.586c0,-2.036 -1.648,-3.586 -3.586,-3.586Zm0,5.621c-1.163,0 -2.132,-0.969 -2.132,-2.132c0,-1.163 0.969,-2.132 2.132,-2.132c1.163,0 2.132,0.969 2.132,2.132c0,1.26 -0.969,2.132 -2.132,2.132Zm38.091,-10.952l-2.133,0l-2.229,-4.168c-1.938,0.194 -3.392,1.842 -3.392,3.78l0,2.036c1.841,1.453 4.168,2.326 6.688,2.326c2.52,0 4.846,-0.873 6.687,-2.326l0,-2.036c0,-1.938 -1.454,-3.586 -3.392,-3.78l-2.229,4.168Zm1.841,-5.622c2.908,0 5.234,2.326 5.234,5.234l0,0.776c1.842,-2.036 2.908,-4.556 2.908,-7.464c0,-6.106 -4.943,-11.049 -11.049,-11.049c-6.107,0 -11.05,4.943 -11.05,11.049c0,2.908 1.163,5.525 2.908,7.464l0,-0.679c0,-2.908 2.326,-5.234 5.234,-5.234l0.581,0l2.23,4.168l0.387,0l2.23,-4.265l0.387,0Zm-2.907,-0.581c2.229,0 4.167,-1.842 4.167,-4.168c0,-2.229 -1.841,-4.168 -4.167,-4.168c-2.23,0 -4.168,1.842 -4.168,4.168c0.097,2.326 1.938,4.168 4.168,4.168Zm0,-6.785c1.453,0 2.713,1.163 2.713,2.714c0,1.454 -1.163,2.714 -2.713,2.714c-1.454,0 -2.714,-1.163 -2.714,-2.714c0.097,-1.551 1.26,-2.714 2.714,-2.714Z" style="fill:#dd4f05;"></path>
  </g>
</svg>
