<?xml version="1.0" encoding="UTF-8" standalone="no"?>
<svg xmlns="http://www.w3.org/2000/svg" xmlns:xlink="http://www.w3.org/1999/xlink" width="100%" height="100%" viewBox="0 0 253 154" xml:space="preserve" style="fill-rule:evenodd;clip-rule:evenodd;stroke-linejoin:round;stroke-miterlimit:1.41421;">
  <rect id="Artboard31" x="0.286" y="0.126" width="252" height="153" style="fill:none;"></rect>
  <clipPath id="_clip1">
    <rect id="Artboard311" x="0.286" y="0.126" width="252" height="153"></rect>
  </clipPath>
  <g clip-path="url(#_clip1)">
    <path d="M137.335,49.626c3.296,0 6.01,2.714 6.01,6.009l0,8.82l7.85,0l0,17.156l-7.85,0l0,25.006c0,3.295 -2.714,6.009 -6.01,6.009l-29.949,0c-3.295,0 -6.009,-2.714 -6.009,-6.009l0,-50.982c0,-3.295 2.617,-6.009 6.009,-6.009l29.949,0Zm4.556,14.829l0,-8.82c0,-2.52 -2.036,-4.555 -4.556,-4.555l-29.949,0c-2.52,0 -4.555,2.035 -4.555,4.555l0,50.982c0,2.52 2.035,4.555 4.555,4.555l29.949,0c2.52,0 4.556,-2.035 4.556,-4.555l0,-25.006l-3.296,0l0,15.701c0,1.551 -1.26,2.811 -2.81,2.811l-26.848,0c-1.551,0 -2.811,-1.26 -2.811,-2.811l0,-40.126c0,-1.551 1.26,-2.811 2.811,-2.811l26.848,0c1.55,0 2.81,1.26 2.81,2.811l0,7.269l3.296,0Zm-14.248,38.963c1.454,0 2.52,1.163 2.52,2.52c0,1.357 -1.066,2.52 -2.52,2.52l-10.564,0c-1.357,0 -2.52,-1.163 -2.52,-2.52c0,-1.357 1.066,-2.52 2.52,-2.52l10.564,0Zm0,3.683c0.582,0 1.163,-0.484 1.163,-1.163c0,-0.678 -0.581,-1.163 -1.163,-1.163l-10.564,0c-0.679,0 -1.164,0.582 -1.164,1.163c0,0.679 0.582,1.163 1.164,1.163l10.564,0Zm9.499,-42.646l0,-7.269c0,-0.775 -0.582,-1.357 -1.357,-1.357l-26.848,0c-0.775,0 -1.357,0.582 -1.357,1.357l0,40.126c0,0.776 0.582,1.357 1.357,1.357l26.848,0c0.775,0 1.357,-0.581 1.357,-1.357l0,-15.701l-5.234,0l-6.494,5.815l0,-5.815l-3.974,0l0,-17.156l15.702,0Zm12.697,15.702l0,-14.248l-26.945,0l0,14.248l3.974,0l0,4.071l4.458,-4.071l18.513,0Zm-9.208,-5.525l0,1.454l-12.794,0l0,-1.454l12.794,0Zm-12.794,-5.137l16.089,0l0,1.454l-16.089,0l0,-1.454Z" style="fill:#dd4f05;"></path>
  </g>
</svg>
