<?xml version="1.0" encoding="UTF-8" standalone="no"?>
<svg xmlns="http://www.w3.org/2000/svg" xmlns:xlink="http://www.w3.org/1999/xlink" width="100%" height="100%" viewBox="0 0 253 154" xml:space="preserve" style="fill-rule:evenodd;clip-rule:evenodd;stroke-linejoin:round;stroke-miterlimit:1.41421;">
  <rect id="Artboard37" x="0.286" y="0.126" width="252" height="153" style="fill:none;"></rect>
  <clipPath id="_clip1">
    <rect id="Artboard371" x="0.286" y="0.126" width="252" height="153"></rect>
  </clipPath>
  <g clip-path="url(#_clip1)">
    <path d="M141.963,62.051l0,8.834l8.931,0c1.942,0 3.592,1.553 3.592,3.592l0,29.024l3.3,0l0,2.33l-2.621,3.689l-57.758,0l-2.621,-3.689l0,-2.33l3.398,0l0,-29.024c0,-1.942 1.553,-3.592 3.591,-3.592l9.028,0l0,-15.726l24.268,0l6.892,6.892Zm14.464,42.809l-60.185,0l0,0.486l1.942,2.718l56.302,0l1.941,-2.718l0,-0.486Zm-49.798,-14.367l4.077,0l0,-18.152l-8.931,0c-1.164,0 -2.135,0.971 -2.135,2.136l0,29.024l53.293,0l0,-29.024c0,-1.165 -0.971,-2.136 -2.136,-2.136l-8.931,0l0,18.152l4.077,0l0,1.457l-39.314,0l0,-1.457Zm33.781,-0.097l0,-27.374l-6.504,0l0,-6.504l-21.744,0l0,33.878l28.248,0Zm-20.773,-5.727l13.299,0l0,1.456l-13.299,0l0,-1.456Zm-4.174,-4.659l21.647,0l0,1.456l-21.647,0l0,-1.456Zm21.647,-4.66l0,1.456l-21.647,0l0,-1.456l21.647,0Zm-15.327,-2.817l-1.247,0c0,0 0,-1.272 0,-1.908c-0.091,-0.022 -0.182,-0.045 -0.273,-0.07c-0.323,-0.097 -0.639,-0.223 -0.929,-0.398c-0.13,-0.078 -0.252,-0.167 -0.37,-0.264c-0.115,-0.096 -0.225,-0.196 -0.326,-0.308c-0.223,-0.249 -0.397,-0.541 -0.506,-0.858c-0.068,-0.202 -0.111,-0.412 -0.128,-0.624c-0.01,-0.128 -0.009,-0.255 -0.01,-0.383l0.002,-0.003l1.244,0c0.001,0.084 0.001,0.167 0.005,0.25c0.008,0.103 0.026,0.204 0.057,0.303c0.156,0.492 0.589,0.855 1.063,1.026c0.697,0.253 1.523,0.159 2.141,-0.251l0.031,-0.021c0.149,-0.131 0.281,-0.28 0.378,-0.455c0.059,-0.107 0.104,-0.222 0.131,-0.342c0.081,-0.361 -0.006,-0.738 -0.217,-1.039c-0.061,-0.086 -0.13,-0.166 -0.206,-0.239c-0.031,-0.03 -0.064,-0.056 -0.096,-0.085c-0.034,-0.031 -0.066,-0.063 -0.101,-0.093c-0.056,-0.046 -0.115,-0.088 -0.177,-0.126c-0.248,-0.153 -0.534,-0.239 -0.822,-0.269c-0.155,-0.016 -0.311,-0.012 -0.466,-0.019c-0.076,-0.005 -0.151,-0.012 -0.226,-0.02c-0.486,-0.063 -0.956,-0.213 -1.369,-0.48c-0.121,-0.078 -0.232,-0.167 -0.342,-0.259c-0.057,-0.049 -0.115,-0.096 -0.169,-0.147c-0.143,-0.135 -0.271,-0.284 -0.379,-0.447c-0.158,-0.236 -0.274,-0.499 -0.343,-0.775c-0.058,-0.231 -0.082,-0.47 -0.076,-0.709c0.011,-0.402 0.113,-0.801 0.307,-1.155c0.117,-0.212 0.265,-0.407 0.437,-0.578c0.071,-0.071 0.146,-0.135 0.223,-0.199c0.157,-0.132 0.318,-0.255 0.494,-0.36c0.325,-0.193 0.681,-0.319 1.053,-0.382l0.026,-0.004l0,-1.895l1.247,0l0,1.847c0.091,0.022 0.182,0.045 0.272,0.071c0.324,0.097 0.64,0.223 0.93,0.397c0.13,0.079 0.252,0.167 0.369,0.264c0.116,0.096 0.226,0.196 0.327,0.308c0.223,0.249 0.397,0.542 0.505,0.859c0.069,0.201 0.112,0.411 0.129,0.623c0.01,0.128 0.009,0.256 0.01,0.384l-0.002,0.002l-1.244,0c-0.002,-0.083 -0.002,-0.166 -0.005,-0.249c-0.009,-0.103 -0.026,-0.205 -0.057,-0.303c-0.142,-0.448 -0.517,-0.794 -0.941,-0.975c-0.447,-0.192 -0.962,-0.229 -1.436,-0.126c-0.238,0.051 -0.47,0.141 -0.676,0.273c-0.38,0.244 -0.68,0.646 -0.717,1.105c-0.009,0.1 -0.005,0.202 0.011,0.301c0.017,0.114 0.051,0.225 0.098,0.33c0.064,0.142 0.152,0.272 0.257,0.387c0.055,0.062 0.117,0.115 0.179,0.171c0.044,0.041 0.087,0.083 0.134,0.12c0.093,0.072 0.194,0.134 0.3,0.185c0.209,0.1 0.436,0.159 0.666,0.183c0.155,0.016 0.311,0.012 0.466,0.019c0.076,0.005 0.151,0.012 0.226,0.02c0.486,0.063 0.956,0.213 1.369,0.48c0.121,0.078 0.232,0.167 0.342,0.259c0.057,0.049 0.115,0.096 0.169,0.147c0.143,0.135 0.271,0.284 0.379,0.447c0.158,0.236 0.274,0.499 0.343,0.775c0.058,0.231 0.082,0.47 0.076,0.709c-0.011,0.402 -0.113,0.801 -0.307,1.155c-0.117,0.212 -0.265,0.407 -0.437,0.578c-0.071,0.071 -0.147,0.135 -0.223,0.199c-0.157,0.132 -0.318,0.255 -0.494,0.36c-0.325,0.193 -0.681,0.319 -1.053,0.382l-0.026,0.004l0,1.895Zm17.754,-10.87l-4.077,-4.077l0,4.077l4.077,0Z" style="fill:#dd4f05;"></path>
  </g>
</svg>
