<?xml version="1.0" encoding="UTF-8" standalone="no"?>
<svg xmlns="http://www.w3.org/2000/svg" xmlns:xlink="http://www.w3.org/1999/xlink" width="100%" height="100%" viewBox="0 0 253 154" xml:space="preserve" style="fill-rule:evenodd;clip-rule:evenodd;stroke-linejoin:round;stroke-miterlimit:1.41421;">
  <rect id="Artboard40" x="0.286" y="0.071" width="252" height="153" style="fill:none;"></rect>
  <clipPath id="_clip1">
    <rect id="Artboard401" x="0.286" y="0.071" width="252" height="153"></rect>
  </clipPath>
  <g clip-path="url(#_clip1)">
    <rect x="81.286" y="36.071" width="90" height="90" style="fill:#e0e1e2;fill-opacity:0;"></rect>
    <path d="M158.786,61.481l0,26.422l-32.048,0c0.302,0.401 0.402,0.803 0.402,1.306c0,0.904 -0.402,1.707 -1.105,2.21c0.502,0.502 0.804,1.205 0.804,2.009c0,1.407 -1.005,2.612 -2.411,2.813c0.301,0.402 0.402,0.904 0.402,1.407c0,1.506 -1.206,2.813 -2.813,2.813c-0.101,0 -0.804,0.1 -1.809,0.1l-1.004,0c-1.206,0.1 -2.713,0.1 -4.119,0.1c-2.311,0 -4.622,-0.1 -5.626,-0.301c-2.11,-0.502 -3.215,-1.105 -4.119,-1.708c-0.201,-0.1 -0.402,-0.201 -0.603,-0.301c-0.703,-0.402 -1.909,-0.503 -2.311,-0.503c-0.402,0.302 -0.904,0.503 -1.507,0.503l-0.201,0c-2.31,-0.101 -4.722,-0.201 -6.932,-0.201l0,-1.507c2.311,0 4.722,0 7.033,0.201c0.301,0 0.502,0 0.703,-0.201c0.1,-0.101 0.201,-0.302 0.201,-0.402l0,-12.759c0,-0.201 -0.101,-0.301 -0.201,-0.402c-0.201,-0.1 -0.402,-0.201 -0.703,-0.201c-1.608,0.101 -3.215,0.201 -4.823,0.201l0,-1.507c1.507,0 3.115,-0.1 4.722,-0.201c0.703,0 1.306,0.201 1.809,0.603c0.1,0.101 0.1,0.101 0.2,0.201l1.106,0c1.105,0 2.21,-0.603 2.813,-1.507c1.105,-1.607 2.913,-2.612 4.922,-2.712l4.119,0l0,-16.476l43.099,0Zm-38.076,20.896c1.507,0 3.014,-1.306 3.316,-2.913l-12.257,0c-1.601,0 -3.102,0.797 -4.008,2.094l-0.021,0.031c-0.905,1.297 -2.407,2.094 -4.008,2.094l-0.603,0l0,12.658c0.704,0 1.608,0.201 2.311,0.603c0.201,0.201 0.402,0.302 0.603,0.402c0.904,0.502 1.808,1.105 3.717,1.507c1.005,0.301 4.32,0.301 7.334,0.301c-0.201,-0.502 -0.302,-1.004 -0.302,-1.506c0,-0.804 0.302,-1.608 0.905,-2.11c-0.503,-0.503 -0.905,-1.306 -0.905,-2.11c0,-0.804 0.302,-1.507 0.804,-2.11c-0.502,-0.502 -0.904,-1.306 -0.904,-2.109c0,-0.402 0.201,-0.905 0.402,-1.306l-1.407,0l0,-4.019l-0.803,0c-0.201,1.808 -1.306,6.329 -6.43,7.233l-0.301,-1.507c5.123,-1.004 5.324,-6.329 5.324,-6.53l0,-0.703l7.233,0Zm-1.205,13.964c-0.703,0 -1.306,0.603 -1.306,1.307c0,0.703 0.402,1.306 0.904,1.406c0.402,0 2.813,-0.1 2.813,-0.1l0.009,0c0.799,-0.005 1.297,-0.606 1.297,-1.306c0,-0.704 -0.603,-1.307 -1.306,-1.307l-2.411,0Zm-20.897,-3.013l1.507,0l0,1.507l-1.507,0l0,-1.507Zm25.418,1.507c0.804,0 1.406,-0.603 1.306,-1.306c0,-0.704 -0.603,-1.307 -1.306,-1.307l-4.421,0c-0.703,0 -1.306,0.603 -1.306,1.307c0,0.703 0.603,1.306 1.306,1.306l4.421,0Zm-25.418,-4.521l1.507,0l0,1.507l-1.507,0l0,-1.507Zm25.719,0.301c0.703,0 1.306,-0.603 1.306,-1.306c0,-0.804 -0.603,-1.406 -1.306,-1.306l-4.722,0c-0.703,0 -1.306,0.603 -1.306,1.306c0,0.703 0.603,1.306 1.306,1.306l4.722,0Zm32.952,-4.219l0,-23.408l-40.185,0l0,14.969l8.539,0l0,0.803c0,2.713 -2.21,5.124 -4.923,5.124l-3.516,0l0,2.512l40.085,0Zm-14.567,-5.024l1.507,0l0,1.507l-1.507,0l0,-1.507Zm-3.818,0l1.507,0l0,1.507l-1.507,0l0,-1.507Zm-3.817,0l1.507,0l0,1.507l-1.507,0l0,-1.507Zm15.371,-15.672l0,1.407c0.502,0.1 0.904,0.301 1.306,0.602c0.603,0.503 0.904,1.206 0.904,1.909l-1.507,0c0,-0.301 -0.1,-0.603 -0.402,-0.804c-0.603,-0.502 -1.607,-0.502 -2.21,0c-0.301,0.201 -0.402,0.503 -0.402,0.804c0,0.302 0.101,0.603 0.402,0.804c0.301,0.301 0.703,0.402 1.105,0.402c0.804,0 1.507,0.301 2.11,0.803c0.603,0.503 0.904,1.206 0.904,1.909c0,0.703 -0.301,1.407 -0.904,1.909c-0.302,0.402 -0.804,0.603 -1.306,0.703l0,1.407l-1.507,0l0,-1.306c-0.503,-0.201 -0.904,-0.402 -1.306,-0.703c-0.603,-0.503 -0.904,-1.206 -0.904,-1.909l1.507,0c0,0.301 0.1,0.602 0.401,0.803c0.603,0.503 1.708,0.503 2.211,-0.1c0.301,-0.201 0.401,-0.502 0.401,-0.804c0,-0.301 -0.1,-0.603 -0.401,-0.803c-0.302,-0.302 -0.704,-0.402 -1.106,-0.402c-0.803,0 -1.506,-0.302 -2.109,-0.804c-0.603,-0.502 -0.904,-1.206 -0.904,-1.909c0,-0.703 0.301,-1.406 0.904,-1.909c0.301,-0.301 0.803,-0.502 1.306,-0.602l0,-1.407l1.507,0Zm-30.541,6.128l16.275,0l0,1.507l-16.275,0l0,-1.507Zm0,-4.822l21.7,0l0,1.507l-21.7,0l0,-1.507Z" style="fill:#dd4f05;"></path>
  </g>
</svg>
