<svg version="1.1" xmlns="http://www.w3.org/2000/svg" xmlns:xlink="http://www.w3.org/1999/xlink" x="0px" y="0px" width="512px" height="341.3px" viewBox="0 0 512 341.3" style="enable-background:new 0 0 512 341.3;" xml:space="preserve"><path style="fill:#338AF3;" d="M0,0h512v341.3H0V0z"></path><path style="fill:#FFDA44;" d="M0,170.7h512v81.6H0V170.7z"></path><path style="fill:#496E2D;" d="M0,252.3h512v89H0V252.3z"></path><path style="fill:#FFDA44;" d="M278.3,99.9l20.8,9.8L288,129.9l22.6-4.3l2.9,22.9l15.8-16.8l15.8,16.8l2.9-22.9l22.6,4.3l-11.1-20.2
	l20.8-9.8l-20.8-9.8l11.1-20.2l-22.6,4.3L345,51.4l-15.8,16.8l-15.8-16.8l-2.9,22.9L288,69.9l11.1,20.2L278.3,99.9z"></path></svg>