<svg version="1.1" xmlns="http://www.w3.org/2000/svg" xmlns:xlink="http://www.w3.org/1999/xlink" x="0px" y="0px" width="512px" height="341.3px" viewBox="0 0 512 341.3" style="enable-background:new 0 0 512 341.3;" xml:space="preserve"><path style="fill:#F0F0F0;" d="M0,0h512v341.3H0V0z"></path><path style="fill:#D80027;" d="M288,0h-64v138.7H0v64h224v138.7h64V202.7h224v-64H288V0z"></path><path style="fill:#0052B4;" d="M393.8,230L512,295.7V230H393.8z M311.7,230L512,341.3v-31.5L368.3,230L311.7,230z M458.6,341.3
	l-147-81.7v81.7H458.6z"></path><path style="fill:#F0F0F0;" d="M311.7,230L512,341.3v-31.5L368.3,230L311.7,230z"></path><path style="fill:#D80027;" d="M311.7,230L512,341.3v-31.5L368.3,230L311.7,230z"></path><path style="fill:#0052B4;" d="M90.3,230L0,280.2V230H90.3z M200.3,244.2v97.2H25.5L200.3,244.2z"></path><path style="fill:#D80027;" d="M143.7,230L0,309.9v31.5L200.3,230L143.7,230z"></path><path style="fill:#0052B4;" d="M118.2,111.3L0,45.6v65.7H118.2z M200.3,111.3L0,0v31.5l143.7,79.8H200.3z M53.4,0l147,81.7V0H53.4z"></path><path style="fill:#F0F0F0;" d="M200.3,111.3L0,0v31.5l143.7,79.8H200.3z"></path><path style="fill:#D80027;" d="M200.3,111.3L0,0v31.5l143.7,79.8H200.3z"></path><path style="fill:#0052B4;" d="M421.7,111.3L512,61.1v50.2H421.7z M311.7,97.2V0h174.9L311.7,97.2z"></path><path style="fill:#D80027;" d="M368.3,111.3L512,31.5V0L311.7,111.3H368.3z"></path></svg>