<svg viewBox="0 0 65 65" xmlns="http://www.w3.org/2000/svg"><path d="M26.7 26.3h-14v-3.6h-1.5v25.6h1.5v-3.6h14c2.1 0 3.8-1.7 3.8-3.8V30.1c0-2.1-1.7-3.8-3.8-3.8zM29 40.9c0 1.2-1 2.3-2.3 2.3h-14V27.8h14c1.2 0 2.3 1 2.3 2.3v10.8z"></path><path d="M20.8 41.5H27v-5.4h-6.2v5.4zm1.5-3.9h3.2V40h-3.2v-2.4zM18 30.6h1.5v1.5H18zM25.4 30.6h1.5v1.5h-1.5zM14.3 30.6h1.5v1.5h-1.5zM21.7 30.6h1.5v1.5h-1.5zM14.1 39.6h5.3v1.5h-5.3zM16.6 36.8h2.8v1.5h-2.8z"></path><path d="M61.7 52.7V16.8h-5.4v-1.7c0-1-.8-1.8-1.8-1.8H53v-3.1C53 7.9 51.1 6 48.8 6c-2.4 0-4.3 1.9-4.3 4.3v3.1H43c-1 0-1.8.8-1.8 1.8v1.7H3.3v35.9H-.2v2.5L2.5 59h60l2.8-3.9v-2.5h-3.6zM46 10.3c0-1.5 1.3-2.8 2.8-2.8 1.5 0 2.8 1.3 2.8 2.8v3.1H46v-3.1zm-3.3 4.8c0-.1.1-.3.3-.3h11.6c.1 0 .3.1.3.3v7.8c0 .1-.1.3-.3.3H42.9c-.1 0-.3-.1-.3-.3v-7.8zM4.8 18.3h36.4v4.6c0 1 .8 1.8 1.8 1.8h11.6c1 0 1.8-.8 1.8-1.8v-4.6h3.9v34.4H4.8V18.3zm59 36.4l-2 2.8H3.3l-2-2.8v-.5h62.4v.5z"></path><path d="M53.6 40.1c0-.3-.2-.6-.5-.7l-8.2-2.6c-.3-.1-.6 0-.8.2-.2.2-.3.5-.2.8l2.6 8.2c.1.3.4.5.7.5.3 0 .6-.2.7-.5l1.1-3 3.2 3.3c.1.1.3.2.5.2s.4-.1.5-.2c.3-.3.3-.8 0-1.1l-3.3-3.3 3-1.1c.5-.1.7-.4.7-.7zm-5.1.8c-.1 0-.2.1-.3.2-.1.1-.1.2-.2.3l-.7 2-1.5-4.7 4.7 1.5-2 .7z"></path></svg>