<svg version="1.1" id="Layer_1" xmlns="http://www.w3.org/2000/svg" xmlns:xlink="http://www.w3.org/1999/xlink" x="0px" y="0px" width="36px" height="32.4px" viewBox="0 0 36 32.4" style="enable-background:new 0 0 36 32.4;" xml:space="preserve"><g><path class="st0" d="M15.6,15.6H12V24h1.2v-3.6h2.4c1.3,0,2.4-1.1,2.4-2.4S16.9,15.6,15.6,15.6z M15.6,19.2h-2.4v-2.4h2.4
		c0.7,0,1.2,0.5,1.2,1.2S16.3,19.2,15.6,19.2z M26.4,24h1.2v-3.6h3.6v-1.2h-3.6v-2.4h4.8v-1.2h-6L26.4,24z"></path><path class="st0" d="M32.4,12h-9.6V8.4L15.6,0H2.4C1.1,0,0,1.1,0,2.4V30c0,1.3,1.1,2.4,2.4,2.4h18c1.3,0,2.4-1.1,2.4-2.4v-2.4h9.6
		c2,0,3.6-1.6,3.6-3.6v-8.4C36,13.6,34.4,12,32.4,12z M15.6,1.8l5.6,6.6h-4.4c-0.7,0-1.2-0.5-1.2-1.2C15.6,7.2,15.6,1.8,15.6,1.8z
		 M21.6,30c0,0.7-0.5,1.2-1.2,1.2h-18c-0.7,0-1.2-0.5-1.2-1.2V2.4c0-0.7,0.5-1.2,1.2-1.2h12v6c0,1.3,1.1,2.4,2.4,2.4h4.8V12H12
		c-2,0-3.6,1.6-3.6,3.6V24c0,2,1.6,3.6,3.6,3.6h9.6V30z M34.8,24c0,1.3-1.1,2.4-2.4,2.4H12c-1.3,0-2.4-1.1-2.4-2.4v-8.4
		c0-1.3,1.1-2.4,2.4-2.4h20.4c1.3,0,2.4,1.1,2.4,2.4C34.8,15.6,34.8,24,34.8,24z"></path><path class="st0" d="M22.8,15.6h-3.6V24h3.6c1.3,0,2.4-1.1,2.4-2.4V18C25.2,16.7,24.1,15.6,22.8,15.6z M24,21.6
		c0,0.7-0.5,1.2-1.2,1.2h-2.4v-6h2.4c0.7,0,1.2,0.5,1.2,1.2C24,18,24,21.6,24,21.6z"></path></g></svg>