<svg xmlns="http://www.w3.org/2000/svg" width="63" height="54.1" viewBox="0 0 63 54.1"><style>.st0{fill-rule:evenodd;clip-rule:evenodd}</style><path class="st0" d="M55.7 10.7c-.2-.9-.5-1.5-.9-2.1-.4-.5-1-.9-1.6-1.2-.8-.3-1.5-.4-2.2-.4-1.2 0-2.3.4-3.2 1.2-.6.6-1.1 1.4-1.5 2.6h9.4zm-33 3H24v-3.4h-1.4v3.4zm4.5 0h1.4v-3.4h-1.4v3.4zm4.4 0H33v-3.4h-1.4v3.4zm8-5.6l-9.5-6.4L9.5 15.5h30c-.4-1.1-.5-2.3-.5-3.5 0-1.4.2-2.7.6-3.9zm6.6 4c0 1.5.5 2.7 1.4 3.6.9.9 2 1.4 3.3 1.4.6 0 1.3-.1 1.9-.3.6-.2 1.1-.5 1.5-.9.4-.4.9-1 1.4-1.8l1.4.7c-.4.9-1 1.6-1.5 2.1-.6.5-1.2.9-2 1.2-.7.3-1.6.4-2.5.4-2 0-3.6-.7-4.8-2-1.2-1.3-1.7-2.9-1.7-4.5s.5-3 1.5-4.3c1.2-1.6 2.9-2.4 5-2.4s3.8.8 5.1 2.4c.9 1.1 1.4 2.6 1.4 4.3H46.2zM40 16.8H5.1c-.6 0-1.2.6-1.2 1.2s.6 1.2 1.2 1.2h36.3c-.6-.7-1.1-1.5-1.4-2.4zM51 1.4c5.9 0 10.6 4.8 10.6 10.6S56.8 22.6 51 22.6 40.3 17.9 40.3 12 45.1 1.4 51 1.4zm-3.5 22.1zm3.8.5zm-.1 0zm-.4 0zm.4 0zm0 0zm-.4 0zm0 0zm.3 0zm-.2 0zm.2 0zm-.2 0zm.2 0zm-.2 0zm.1 0zm-.1 0zm.1 0zM9.6 45h3V20.6h-3V45zm25.3 0h3V20.6h-3V45zm-8.3 0h6.8V20.6h-6.8V45zm-4.3 0h3V20.6h-3V45zm20.3-24.4h-3.4V45H46V23c-1.2-.6-2.4-1.4-3.4-2.4zM14.1 45.1h6.8V20.6h-6.8v24.5zm33.4-21.6v21.6h3V24c-1 0-2-.2-3-.5zm6.4 22.9H6.2c-.7 0-1.2.6-1.2 1.2 0 .7.6 1.2 1.2 1.2h47.7c.6 0 1.2-.6 1.2-1.2s-.5-1.2-1.2-1.2zm3.6 3.8H2.6c-.6 0-1.2.6-1.2 1.2s.6 1.2 1.2 1.2h54.9c.6 0 1.2-.6 1.2-1.2s-.5-1.2-1.2-1.2zM40.1 6.8c2-4 6.1-6.8 10.9-6.8 6.6 0 12 5.4 12 12 0 6.3-4.9 11.6-11.2 12v21h2c1.5 0 2.6 1.2 2.6 2.6 0 .5-.1.8-.3 1.2h1.4c1.5 0 2.6 1.2 2.6 2.7s-1.2 2.6-2.6 2.6H2.6C1.1 54.1 0 53 0 51.5s1.2-2.6 2.6-2.6h1.3c-.2-.4-.3-.7-.3-1.2 0-1.5 1.2-2.6 2.6-2.6h2V20.7H5.1c-1.5 0-2.6-1.1-2.6-2.6s1.2-2.6 2.6-2.6H7L30.1 0l10 6.8z"></path></svg>