<svg xmlns="http://www.w3.org/2000/svg" width="47" height="30.4" viewBox="0 0 47 30.4"><style>.st0{fill-rule:evenodd;clip-rule:evenodd}</style><path class="st0" d="M32.3 12.1h10.3V11H32.3v1.1zM18.9 7.9v.4c.8.2 1.1.7 1.2 1.2h-1c-.1-.2-.1-.5-.7-.5-.4 0-.6.3-.6.5 0 .3.2.4.9.6 1 .3 1.4.7 1.4 1.4 0 .8-.5 1.2-1.2 1.3v.5h-.8v-.5c-.8-.1-1.2-.6-1.3-1.3h1c.1.4.3.6.8.6s.7-.2.7-.5-.2-.5-.8-.7c-1.1-.3-1.5-.8-1.5-1.4 0-.7.5-1.1 1.2-1.2v-.4h.7zm8.4 7.9h15.4v-1.1H27.3v1.1zM15.8 15c-.3 1.5-1.4 2.5-3.4 2.5-2.5 0-3.7-1.8-3.7-4.1 0-2.2 1.2-4.2 3.8-4.2 2.1 0 3.1 1.2 3.3 2.6h-1.5c-.2-.7-.7-1.3-1.9-1.3-1.6 0-2.2 1.4-2.2 2.9 0 1.4.6 3 2.2 3 1.2 0 1.6-.8 1.8-1.3h1.6zm30 6.8V7.4c0-.9-.7-1.6-1.6-1.6H7.3c-.9 0-1.6.7-1.6 1.6v14.4h40.1zm-4.6-17V3c0-1-.8-1.8-1.8-1.8H2.9c-1 0-1.8.8-1.8 1.8v20c0 1 .8 1.8 1.8 1.8h1.8V7.4c0-1.5 1.2-2.7 2.7-2.7h33.8zM28.3 26.6h1.1v-1.1h-1.1v1.1zm-2.8 0h1.1v-1.1h-1.1v1.1zm5.7 0h1.1v-1.1h-1.1v1.1zm8.6 0h1.1v-1.1h-1.1v1.1zm-17.2 0h1.1v-1.1h-1.1v1.1zm14.3 0H38v-1.1h-1.1v1.1zm-2.8 0h1.1v-1.1h-1.1v1.1zm8.6 0h1.1v-1.1h-1.1v1.1zm-34.5 0h1.1v-1.1H8.2v1.1zm11.5 0h1.1v-1.1h-1.1v1.1zm-8.6 0h1.1v-1.1h-1.1v1.1zm2.9 0h1v-1.1h-1v1.1zm2.8 0h1.1v-1.1h-1.1v1.1zM46 27.8v-4.9H5.8v4.9c0 .9.7 1.6 1.6 1.6h37c.8 0 1.5-.8 1.6-1.6zM39.5 0c1.6 0 2.9 1.3 2.9 2.9v1.8h2c1.4 0 2.7 1.2 2.7 2.7v20.2c0 1.4-1.2 2.7-2.7 2.7h-37c-1.4 0-2.7-1.2-2.7-2.7v-2H2.9c-1.6 0-2.9-1.3-2.9-2.9v-20C0 1.3 1.3 0 2.9 0h36.6z"></path></svg>