<svg version="1.1" xmlns="http://www.w3.org/2000/svg" xmlns:xlink="http://www.w3.org/1999/xlink" x="0px" y="0px" width="512px" height="341.3px" viewBox="0 0 512 341.3" style="enable-background:new 0 0 512 341.3;" xml:space="preserve"><path style="fill:#F0F0F0;" d="M0,0h512v341.3H0V0z"></path><path style="fill:#D80027;" d="M0,0h512v31H0V0z M0,62.1h512v31H0V62.1z M0,124.1h512v31H0V124.1z M0,186.2h512v31H0V186.2z
	 M0,248.3h512v31H0V248.3z M0,310.3h512v31H0V310.3z"></path><path style="fill:#0052B4;" d="M0-12.3h256v167.5H0V-12.3z"></path><path style="fill:#F0F0F0;" d="M128,26.9l11,34h35.8l-28.9,21l11.1,34l-28.9-21l-28.9,21l11.1-34l-28.9-21h35.8L128,26.9z"></path></svg>