<svg xmlns="http://www.w3.org/2000/svg" width="63" height="55.8" viewBox="0 0 63 55.8"><style>.st0{fill-rule:evenodd;clip-rule:evenodd}</style><path d="M45.9 20.9l-4.7-2.8 6.3-6.7c.2-.3.3-.7.1-1-.2-.3-.6-.4-.9-.2l-9.9 5.1-3.8-2.2L60 2.3 45.9 20.9zm7.2 6.9H41.5c0-2.8-.3-5.6-.8-8.2l5 3c.3.2.7.1 1-.2l3.9-5.1c1.5 3.2 2.4 6.8 2.5 10.5zm-7.9 19.3c-1.8-1.5-3.8-2.9-5.9-4 1.4-4.1 2.1-8.8 2.2-14h11.6c-.2 6.8-3 13.3-7.9 18zm-12.5 6.7c2.5-1.9 4.6-5.2 6.2-9.3 1.9 1 3.7 2.1 5.3 3.6-3.3 2.9-7.3 4.8-11.5 5.7zM28 41.9c3.3.1 6.6.8 9.6 2.1-2.2 6-5.6 10-9.6 10.4V41.9zm0-12.6h12.1c-.1 4.9-.8 9.5-2 13.3-3.1-1.4-6.6-2.1-10.1-2.2V29.3zm9.6-8.8v-3.8l6.1-3.2-4 4.3-2.1 2.7zM28 16.7c2.1-.1 4.4-.4 6.4-.9l1.7 1.1v5.8c0 .3.2.6.5.7h.2c.2 0 .4-.1.6-.3l2-2.6c.4 2.3.6 4.8.7 7.4H28V16.7zm0-14c3.1.4 6.1 3.1 8.3 7.6l-5.2 2.1c-.3.1-.4.3-.5.6 0 .3.1.6.4.7l1.6 1c-1.6.3-3.1.5-4.7.5V2.7zm14.7 5.1l-5 2c-1.4-2.8-3.1-5-4.9-6.5 3.5.7 6.9 2.2 9.9 4.5zm-16.2 7.4c-3.3-.1-6.6-.8-9.6-2.1 2.2-6 5.6-10 9.6-10.4v12.5zm0 12.6h-12c.1-4.9.8-9.5 2-13.3 3.1 1.4 6.6 2.1 10.1 2.2l-.1 11.1zm0 12.6c-3.5.1-6.9.9-10.1 2.2-1.3-3.9-1.9-8.4-2-13.3h12.1v11.1zm0 14c-3.9-.5-7.4-4.5-9.6-10.4 3-1.3 6.2-2 9.6-2.1v12.5zm-16.1-6.3c1.6-1.5 3.5-2.6 5.3-3.6 1.6 4.1 3.7 7.4 6.2 9.3-4.2-.9-8.1-2.8-11.5-5.7zm-.6-.5c-.2-.1-.3-.3-.5-.4l.6.6c0-.1 0-.2-.1-.2zM1.5 29.3h11.6c.1 5.1.9 9.9 2.2 14-2.1 1.1-4.2 2.3-5.9 4-4.9-4.9-7.8-11.4-7.9-18zM9.3 9.9c1.8 1.5 3.8 2.9 5.9 4-1.4 4.1-2.1 8.8-2.2 13.9H1.4C1.6 21 4.5 14.6 9.3 9.9zm.5-.4l.3-.3-.5.5.2-.2zm12.1-6.3c-2.5 1.9-4.6 5.2-6.2 9.3-1.9-1-3.7-2.1-5.3-3.6 3.4-2.8 7.3-4.8 11.5-5.7zM62.8.3c-.2-.3-.6-.4-.9-.2L44.2 7.2c-4.8-3.9-10.7-5.9-16.9-5.9h-.1c-6.9 0-13.4 2.5-18.4 7.2C3.2 13.6 0 20.9 0 28.5c0 7.7 3.2 14.9 8.8 20.2 5 4.6 11.6 7.2 18.5 7.2s13.5-2.5 18.5-7.2c5.6-5.1 8.8-12.5 8.8-20.1 0-4.4-1.1-8.7-3-12.5L62.8 1.2c.3-.3.3-.6 0-.9z"></path></svg>