<svg xmlns="http://www.w3.org/2000/svg" width="50" height="63" viewBox="0 0 50 63"><title>Untitled-1</title><g fill="#221f20"><path d="M5.5 23h25.3v1.4H5.5zm29 23h10.7v-1.5H34.4zm-29-6.8h25.3v1.4H5.5zm0 5.3h25.3V46H5.5zm0-10.7h25.3v1.5H5.5zm29 6.8h10.7v-1.4H34.4zm-29-12.2h25.3v1.5H5.5zm29 6.8h10.7v-1.4H34.4z"></path><path d="M0 0v49.7c0 4.4 3.5 8 7.9 8L50 63V0H0zm11.7 56.8c2.3-1.2 3.8-3.5 4.1-6l27.2 10-31.3-4zm36.9 4.4l-34-12.5v1.1c0 3.6-2.9 6.5-6.5 6.5s-6.5-2.9-6.5-6.5V1.4h47.1v59.8z"></path><path d="M31.5 4H4.7v15h26.7V4zM30 17.6H6.2V5.5H30v12.1zM46 4H33.8v15H46V4zm-1.5 13.6h-9.3V5.5h9.3v12.1zm-10 12.2h10.7v-1.4H34.4zm0-5.4h10.7V23H34.4z"></path></g></svg>