<svg xmlns="http://www.w3.org/2000/svg" width="63" height="54.1" viewBox="0 0 63 54.1"><title>Untitled-1</title><g fill="#221f20"><path d="M.9 50.5h10.5V52H.9zm14.8-2.2h-.1c-1.6 0-2.9 1.3-2.9 2.9s1.3 2.9 2.9 2.9 2.9-1.3 2.9-2.9c0-1.5-1.2-2.8-2.8-2.9zm0 4.4h-.2c-.8 0-1.4-.7-1.4-1.5s.7-1.4 1.5-1.4 1.4.6 1.4 1.4c0 .8-.5 1.5-1.3 1.5zm4.3-2.2h42V52H20zM59.3 0H3.5C1.5 0 0 1.6 0 3.6v37c0 2 1.6 3.6 3.7 3.6h55.7c2 0 3.7-1.6 3.7-3.6v-37c-.2-2-1.8-3.6-3.8-3.6zm2.2 40.6c0 1.2-1 2.2-2.2 2.2H3.6c-1.2 0-2.2-1-2.2-2.2v-37c0-1.2 1-2.2 2.2-2.2h55.7c1.2 0 2.2 1 2.2 2.2v37z"></path><path d="M31.4 8.3c-7.6 0-13.8 6.2-13.8 13.8 0 7.6 6.2 13.8 13.8 13.8 7.6 0 13.8-6.2 13.8-13.8 0-7.6-6.2-13.8-13.8-13.8zm0 26.3C24.6 34.6 19 29 19 22.2c0-6.8 5.5-12.4 12.4-12.4 6.8 0 12.4 5.5 12.4 12.4 0 6.8-5.6 12.4-12.4 12.4z"></path><path d="M27.6 27.7l10.8-5.6-10.8-5.6v11.2zm1.4-8.8l6.2 3.2-6.2 3.3v-6.5z"></path></g></svg>