<svg xmlns="http://www.w3.org/2000/svg" width="60.3" height="63" viewBox="0 0 60.3 63"><title>Untitled-1</title><g fill="#231f20"><path d="M8.3 50.8v1.4h1.5v-1.4zm-3.5 4.8h31.4v1.5H4.8zm10.6-4.8h1.5v1.5h-1.5zm3.5 0h1.4v1.5h-1.4zm-7.1 0v1.4h1.5v-1.4zm-7 0h1.5v1.5H4.8zm39.3-39H32v11.7h12.1V11.8zm-1.4 10.3h-9.2v-8.8h9.2v8.8zM29.3 11.8H4.7v23.8h24.6V11.8zm-1.5 22.4H6.1V13.3h21.7v20.9zm-23 7.1h21.9v1.5H4.8zM32 30.5h12.2V32H32zm0-3.6h12.2v1.5H32zm0 8.8h12.2v-1.5H32z"></path><path d="M56.8 11.3c-1.9 0-3.5 1.5-3.5 3.4v44.7c0 1.1-.9 2-2 2s-2-.9-2-2v-55L44.5 0l-4 3.9-4-3.9-4 3.9L28.6 0l-4 3.9L20.7 0l-4 3.9-4-3.9-4 3.9-4-3.9L0 4.4V63h51.3c1.9 0 3.5-1.5 3.5-3.4V14.8c0-1.1.9-2 2-2s2 .9 2 2v25.1h1.5V14.8c0-1.9-1.6-3.4-3.5-3.5zM1.5 61.5V5l3.2-3 3.9 3.9 4-3.9 4 3.9 4-3.9 4 3.9 4-3.9 3.9 3.9 4-3.9 4 3.9 4-3.9 3.3 3v54.5c0 .7.3 1.4.7 2h-47z"></path><path d="M22.5 50.8H24v1.5h-1.5zm3.6 0h1.5v1.5h-1.5zM4.8 46h35.4v1.5H4.8zm24.8 4.8H31v1.5h-1.4zm3.6 0h.8v1.5h-.8z"></path></g></svg>