<svg xmlns="http://www.w3.org/2000/svg" width="62.5" height="64.7" viewBox="0 0 62.5 64.7"><path d="M49.4 13.5h-4.6V12h4.6V7.4h1.5V12h4.5v1.5h-4.5v4.6h-1.5v-4.6zM8.8 16.1v2.6h2.7v1.5H8.8v2.6H7.3v-2.6H4.7v-1.5h2.6v-2.6h1.5zm13.9-.8c-2.3 1.9-4.1 4.7-5.5 8.5-.7-.4-1.4-.7-2-1.2.6-1.4 1-2.7 1-3.8v-.9c1.9-1.2 4.2-2.1 6.5-2.6zm15.9 1.8c.7 1.8 1.6 3.7 2.7 5.4-.7.5-1.5.9-2.2 1.3-1.4-3.7-3.3-6.7-5.5-8.5 1.7.4 3.4 1 5 1.8zm-9.7 9.2V14.7c3.7.5 6.8 4.1 8.9 9.7-2.9 1.3-5.8 1.8-8.9 1.9zm-1.5-11.6v11.6c-3.1-.1-6.1-.8-8.9-2 2.1-5.5 5.3-9.1 8.9-9.6zM8.1 12.1c3.7 0 6.6 3 6.6 6.6 0 3.9-4.9 9.8-6.6 11.6-1.7-1.9-6.6-7.7-6.6-11.6 0-3.6 2.9-6.6 6.6-6.6zm42-10.5c6 0 10.9 4.9 10.9 11 0 6.7-8.7 16.8-10.9 19.2-2.3-2.5-11-12.4-11-19.2.1-6.2 5-11 11-11zm2.3 36.6c-.1-2-.4-3.8-1-5.7-.4.5-.7.8-.8.9l-.5.6-.5-.6c-.3-.3-4.2-4.5-7.5-9.6-.8.5-1.6 1-2.5 1.4 1.2 3.7 1.9 8.2 2 13h10.8zm-37.7 0c0-4.8.8-9.3 2-13-.8-.3-1.5-.8-2.2-1.2-2.2 4-5.7 7.8-5.9 8l-.5.6-.6-.6c-.1-.1-.8-.9-1.8-2.2-1.1 2.7-1.7 5.5-1.8 8.4h10.8zm25.4 0c0-4.6-.7-8.9-1.9-12.4-3 1.3-6.1 2-9.4 2.1v10.4h11.3zm-12.7 0V27.8c-3.2-.1-6.4-.8-9.4-2.1-1.1 3.7-1.8 7.9-1.9 12.4h11.3zm12.7 1.5H28.9V50c3.2.1 6.4.8 9.4 2.1 1.1-3.7 1.7-7.9 1.8-12.4zm-12.7 0H16.2c0 4.6.7 8.9 1.9 12.4 3-1.3 6.1-2 9.4-2.1V39.7zm24.9 0H41.5c0 4.8-.8 9.3-2 13 2 1 3.8 2.2 5.4 3.7 4.6-4.4 7.3-10.4 7.4-16.7zm-37.6 0H3.9C4 46 6.7 52 11.2 56.3c1.7-1.5 3.4-2.7 5.4-3.7-1.1-3.7-1.8-8.1-1.9-12.9zm-3.2 16.9c.2.1.3.2.4.4-.1-.1-.2-.1-.3-.2 0-.1 0-.1-.1-.2zm27.6-2.5c1.7.9 3.3 2 4.8 3.3-3 2.6-6.5 4.3-10.4 5.2 2.3-1.9 4.2-4.8 5.6-8.5zm-16.4 8.4c-3.8-.9-7.3-2.7-10.4-5.2 1.5-1.3 3.2-2.4 4.8-3.3 1.4 3.8 3.4 6.7 5.6 8.5zm6.2.6V51.5c3.1.1 6.1.8 8.9 2-2.1 5.5-5.3 9.1-8.9 9.6zm-1.5-11.6v11.6c-3.7-.5-6.8-4.1-8.9-9.7 2.8-1.1 5.8-1.8 8.9-1.9zm.8-38.4c3.4 0 6.7.7 9.9 2-.3-.9-.4-1.8-.4-2.7C37.7 5.6 43.3.1 50.1 0c6.8 0 12.4 5.6 12.4 12.4 0 6.3-6.5 14.7-9.9 18.7.8 2.5 1.2 5.1 1.2 7.8 0 7.2-3 14.1-8.3 18.9-4.8 4.4-11 6.8-17.5 6.8s-12.7-2.5-17.5-6.8C5.4 53.1 2.4 46.2 2.4 39c0-3.7.8-7.2 2.3-10.6C2.5 25.7 0 21.8 0 18.6c0-4.4 3.6-8.1 8.1-8.1 3.5 0 6.7 2.5 7.7 5.7C19.5 14.1 23.7 13 28 13h.2z" fill-rule="evenodd" clip-rule="evenodd" fill="#434a52"></path></svg>