<svg xmlns="http://www.w3.org/2000/svg" width="63" height="48.2" viewBox="0 0 63 48.2"><title>Untitled-1</title><g fill="#221f20"><path d="M20.7 20.9h14.7v1.4H20.7zm2.5 5.3H33v-1.4h-9.8z"></path><path d="M62.9 35.8c0-2.4-1.6-4.6-3.9-5.3C58.7 14.6 46.4-.1 31.4 0 16.4.1 4.2 14.6 3.9 30.5c-2.3.7-3.9 2.8-3.9 5.3v5.1c0 3 2.4 5.5 5.4 5.6H7v1.7h5.3V28.6H7.1v1.7H5.4c.4-15 11.9-28.8 26.1-28.8s25.7 13.9 26.1 28.8h-1.7v-1.7h-5.3v19.5h5.3v-1.6h1.8l1.5-.3c2.3-.8 3.8-2.9 3.7-5.3v-5.1zM8.5 30H11v16.6H8.5V30zm-2.9 1.7h1.5V45H5.6c-2.2 0-4-1.9-4-4.1v-5.1c0-2.3 1.8-4 4-4.1zm48.8 14.9H52V30h2.4v16.6zm7.2-5.7c0 2.3-1.9 4.1-4.1 4.1H56V31.7h1.5c2.2 0 4 1.8 4.1 4v5.2z"></path><path d="M43.7 19.7h-3.4c-.1-1.9-1.6-3.3-3.5-3.4H19.1c-1.9 0-3.4 1.6-3.4 3.5v7.5c0 1.8 1.4 3.4 3.3 3.5v4.9l5.5-4.9h.8v.4c0 1.9 1.6 3.4 3.5 3.4h11.1l4.6 4.2v-4.3c1.6-.3 2.7-1.7 2.7-3.4v-8c0-1.9-1.6-3.4-3.5-3.4zM24 29.3l-3.5 3.1v-3.2h-1.2c-1.1 0-2-.9-2-2v-7.3c0-1.1.9-2 2-2H37c1.1 0 2 .9 2 2v7.4c0 1.1-.9 2-2 2H24zm21.8 1.9c0 1.1-.9 2-2 2h-.7v2.4l-2.7-2.4H28.6c-1.1 0-1.9-.9-1.9-2v-.5H37c1.9 0 3.4-1.6 3.4-3.5v-6h3.4c1.1 0 2 .9 2 2v8z"></path></g></svg>