<svg xmlns="http://www.w3.org/2000/svg" width="63" height="63" viewBox="0 0 63 63"><title>Untitled-1</title><g fill="#221f20"><path d="M21.1 28.5c1.5 0 2.7-1.2 2.7-2.7 0-1.5-1.1-2.7-2.6-2.7h-.1c-1.5 0-2.7 1.2-2.7 2.7s1.2 2.7 2.7 2.7zm-.1-3.9c.8 0 1.3.6 1.3 1.3s-.6 1.2-1.2 1.2-1.2-.6-1.2-1.2c-.1-.7.4-1.3 1.1-1.3zm2.12-1.825l1.06-1.061.99.99-1.06 1.06zM20.3 20.6h1.4v1.5h-1.4zM5.7 25.2L.8 29.7l4.9 4.6 1-1-3.8-3.6 3.7-3.5zM23.1 29l1.1 1 1-1-1.1-1.1zm1.6-3.9h1.5v1.5h-1.5zM16.9 29l1 1 1.1-1.1-1-1zm3.4.4h1.4v1.5h-1.4zm41.3 32.2H1.4V46.8H0V63h63V46.8h-1.4z"></path><path d="M26.1 53.3v-5.7h-5.8v5.7h5.8zm-4.3-4.1h2.9V52h-2.9v-2.8zm-4.965-26.59l.99-.99 1.06 1.06-.989.99zM34.5 53.3v-5.7h-5.8v5.7h5.8zm-4.3-4.1h2.9V52h-2.9v-2.8zM0 0v16.1h1.4V1.4h60.2v14.7H63V0zm57.2 34.3l4.9-4.6-4.9-4.5-1 1 3.8 3.5-3.8 3.6z"></path><path d="M51.6 16.8h-40v25.9h40V16.8zm-1.4 24.5l-37.1-.1v-2.8l4.1-3.9 4.1 3.9 10.1-9.7 5.8 6.5 4.1-4 8.9 8.6v1.5zm0-3.6l-8.9-8.6-4.1 3.9-5.8-6.5-10.1 9.8-4.1-3.9-4.1 3.9v-18h37.1v19.4z"></path><path d="M15.9 25.1h1.5v1.5h-1.5zm27 28.2v-5.7h-5.8v5.7h5.8zm-4.2-4.1h2.9V52h-2.9v-2.8z"></path></g></svg>