<svg version="1.1" id="Layer_1" xmlns="http://www.w3.org/2000/svg" xmlns:xlink="http://www.w3.org/1999/xlink" x="0px" y="0px" viewBox="0 0 900 600" style="enable-background:new 0 0 900 600;" xml:space="preserve"><g><rect style="fill:#FFFFFF;" width="900" height="600"></rect><rect width="900" style="fill:#000000;" height="180"></rect><rect y="210" style="fill:#BB0000;" width="900" height="180"></rect><rect y="420" style="fill:#006600;" width="900" height="180"></rect><path style="fill:#000000;" d="M342.8,478.1l6.5,3.8l175.2-303.4c10.2-2.7,15.9-12.5,21.5-22.2c3.8-6.5,18.8-32.5,25.2-66.2c-26,22.5-41,48.5-44.7,55
		c-5.6,9.7-11.2,19.5-8.5,29.7L342.8,478.1z"></path><path style="fill:#FFFFFF;" d="M342.8,478.1l6.5,3.8l175.2-303.4c10.2-2.7,15.9-12.5,21.5-22.2c3.8-6.5,18.8-32.5,25.2-66.2
		c-26,22.5-41,48.5-44.7,55c-5.6,9.7-11.2,19.5-8.5,29.7L342.8,478.1z"></path><path style="fill:#000000;" d="M557.2,478.1l-6.5,3.8L375.5,178.5c-10.2-2.7-15.9-12.5-21.5-22.2c-3.8-6.5-18.8-32.5-25.3-66.2c26,22.5,41,48.5,44.7,55
		c5.6,9.7,11.2,19.5,8.5,29.7L557.2,478.1z"></path><path style="fill:#FFFFFF;" d="M557.2,478.1l-6.5,3.8L375.5,178.5c-10.2-2.7-15.9-12.5-21.5-22.2c-3.8-6.5-18.8-32.5-25.3-66.2
		c26,22.5,41,48.5,44.7,55c5.6,9.7,11.2,19.5,8.5,29.7L557.2,478.1z"></path><path style="fill:#BB0000;" d="M378.8,390c11.2,30,48.8,90,71.2,90s60-60,71.2-90V210c-11.2-30-48.8-90-71.2-90s-60,60-71.2,90V390
		z"></path><ellipse style="fill:#000000;" cx="521.2" cy="300" rx="18.8" ry="90"></ellipse><ellipse style="fill:#000000;" cx="378.8" cy="300" rx="18.8" ry="90"></ellipse><ellipse style="fill:#FFFFFF;" cx="450" cy="300" rx="15" ry="22.5"></ellipse><path style="fill:#FFFFFF;" d="M453.8,321.9c0,0,15,30,15,78.8s-15,78.8-15,78.8V321.9z"></path><path style="fill:#FFFFFF;" d="M446.2,278.1c0,0-15-30-15-78.8s15-78.8,15-78.8V278.1z"></path><path style="fill:#FFFFFF;" d="M446.2,321.9c0,0-15,30-15,78.8s15,78.8,15,78.8V321.9z"></path><path style="fill:#FFFFFF;" d="M453.8,278.1c0,0,15-30,15-78.8s-15-78.8-15-78.8V278.1z"></path></g></svg>