<svg version="1.1" xmlns="http://www.w3.org/2000/svg" xmlns:xlink="http://www.w3.org/1999/xlink" x="0px" y="0px" width="512px" height="341.3px" viewBox="0 0 512 341.3" style="enable-background:new 0 0 512 341.3;" xml:space="preserve"><path d="M0,0h512v341.3H0V0z"></path><path style="fill:#FFDA44;" d="M0,56.9h512v56.9H0V56.9z"></path><path style="fill:#D80027;" d="M0,113.8h512v56.9H0V113.8z"></path><path style="fill:#FFDA44;" d="M0,227.6h512v56.9H0V227.6z"></path><path style="fill:#D80027;" d="M0,284.4h512v56.9H0V284.4z"></path><circle style="fill:#F0F0F0;" cx="256" cy="170.7" r="57"></circle><path d="M276.9,173.6l-20.9-9c0,0,4.9-16.2,5.1-17.3c0.2-0.8,0.3-1.7,0.3-2.5c0-3.1-1.2-5.9-3.3-7.9l5.2-5.2
	c-3.5-3.5-8.2-5.4-13.1-5.4c-4.9,0-9.6,1.9-13.1,5.4l5.2,5.2c-2.1,2.1-3.3,4.9-3.3,7.9c0,1.1,0.2,2.2,0.5,3.2l-7.9,7.9h14.4
	c0,0-5.9,8.9-9.2,16.2c-3.2,7.3,0,16.3,7.5,19.6l4.3,1.9l7.2,6.8v7.4l-7.4,7.4h14.8v-14.8l6.8-6.8h14c0.1-0.1,0.1-0.3,0.2-0.4
	C287.7,185.7,284.4,176.9,276.9,173.6L276.9,173.6z"></path></svg>