<svg width="18" height="18" viewBox="0 0 18 18" xmlns="http://www.w3.org/2000/svg"><path d="M9 0C4.037 0 0 4.037 0 9s4.037 9 9 9 9-4.037 9-9-4.037-9-9-9zm0 17c-4.411 0-8-3.589-8-8s3.589-8 8-8 8 3.589 8 8-3.589 8-8 8zm3.182-12.45L7.586 9.146 5.818 7.38a.5.5 0 0 0-.707 0L2.99 9.5a.5.5 0 0 0 0 .707l4.242 4.243a.5.5 0 0 0 .707 0l7.071-7.071a.5.5 0 0 0 0-.707L12.89 4.55a.5.5 0 0 0-.707 0zm-4.596 8.84L4.05 9.854l1.414-1.415 1.768 1.768a.5.5 0 0 0 .707 0l4.596-4.596 1.415 1.414-6.364 6.364z" fill="#DD4F05" fill-rule="evenodd"></path></svg>