<svg xmlns="http://www.w3.org/2000/svg" width="47" height="32.8" viewBox="0 0 47 32.8"><style>.st0{fill-rule:evenodd;clip-rule:evenodd}</style><path class="st0" d="M12.5 4.6h1v-1h-1v1zm2.6 0h1v-1h-1v1zm2.6 0h1v-1h-1v1zm-7.8 0h1v-1h-1v1zM46 8.8c0 .7-.5 1.2-1.2 1.2V7.6c.7 0 1.2.5 1.2 1.2zm-8.2 4.3c-.7 0-1.3.6-1.3 1.3 0 .7.6 1.3 1.3 1.3s1.3-.6 1.3-1.3c.1-.7-.5-1.3-1.3-1.3zm0 3.6c-1.2 0-2.3-1-2.3-2.3 0-1.2 1-2.3 2.3-2.3s2.3 1 2.3 2.3c0 1.3-1 2.3-2.3 2.3zm6.8 1.2c.8 0 1.4-.7 1.4-1.6v-5.9c-.3.3-.8.4-1.2.4h-7.5c-1.8 0-3.1 1.4-3.1 3.1v.8c0 1.8 1.4 3.1 3.1 3.1h7.3zm-29.2 10h25.4c1.7 0 3.1-1.4 3.1-3.1V19h-6.4c-2.3 0-4.1-1.9-4.1-4.1v-.8c0-2.3 1.9-4.1 4.1-4.1H44V4.1c0-1.5-1.1-2.7-2.6-3L11.1 1H8.8c-1.7 0-3 1.4-3 3.1v13c.7-.2 1.5-.3 2.3-.3 4.5 0 8 3.6 8 8 0 1.1-.2 2.1-.7 3.1zm-6.8-7.2v3.6h3.6v1H8.6v3.6h-1v-3.6H3.9v-1h3.7v-3.6h1zM8 31.8c-3.9 0-7.1-3.1-7.1-7.1S4 17.6 8 17.6s7.1 3.2 7.1 7.1c0 3.9-3.1 7.1-7.1 7.1zM4.8 17.4V4.1c0-2.3 1.8-4.1 4-4.1H41c2.2.1 3.9 1.9 3.9 4.1v2.5c1.1 0 2 .9 2.1 2v7.9c0 1.2-1 2.3-2.2 2.4v5.9c0 2.2-1.8 4.1-4.1 4.1H14.9c-1.4 2.3-4 3.9-6.9 3.9-4.5 0-8-3.6-8-8 0-3.3 2-6.1 4.8-7.4z"></path></svg>