<svg viewBox="0 0 65 65" xmlns="http://www.w3.org/2000/svg"><path d="M49.7 1C41 1 34.1 4 34.1 7.9v27.2c-.5-.1-1.1-.1-1.6-.1-1.1 0-2.2.1-3.2.4v-8.2c0-3.9-6.5-6.9-14.8-6.9s-14.8 3-14.8 6.9v30c0 3.9 6.5 6.9 14.8 6.9 4 0 7.8-.7 10.6-2 2.2 1.3 4.7 2 7.4 2 2.5 0 4.8-.6 6.8-1.7 2.8 1.1 6.5 1.7 10.4 1.7 8.7 0 15.6-3 15.6-6.9V7.9C65.3 4 58.4 1 49.7 1zm0 1.5c8.3 0 14.1 2.9 14.1 5.4s-5.8 5.4-14.1 5.4-14.1-2.9-14.1-5.4 5.8-5.4 14.1-5.4zM14.5 21.8c7.9 0 13.3 2.8 13.3 5.4s-5.3 5.4-13.3 5.4-13.3-2.8-13.3-5.4 5.4-5.4 13.3-5.4zM1.2 30.2C3.6 32.5 8.6 34 14.5 34s10.9-1.6 13.3-3.8v5.5c-3.2 1.1-5.9 3.3-7.7 6.1-1.8.3-3.6.5-5.6.5-7.9 0-13.3-2.8-13.3-5.4v-6.7zm0 9.9c2.4 2.3 7.4 3.8 13.3 3.8 1.6 0 3.2-.1 4.7-.3-.8 1.8-1.3 3.8-1.3 5.9 0 .9.1 1.8.3 2.7-1.2.1-2.4.2-3.7.2-7.9 0-13.3-2.8-13.3-5.4v-6.9zm13.3 22.4c-7.9 0-13.3-2.8-13.3-5.4v-7C3.6 52.4 8.6 54 14.5 54c1.4 0 2.7-.1 4-.3.9 2.9 2.7 5.5 5.1 7.3-2.4 1-5.7 1.5-9.1 1.5zm5-13c0-7.2 5.9-13 13-13 7.2 0 13 5.9 13 13s-5.9 13-13 13c-7.2 0-13-5.8-13-13zm30.2 13c-3.2 0-6.2-.4-8.7-1.2 2.3-1.7 4.1-4 5.2-6.7 1.2.1 2.4.2 3.6.2 6.3 0 11.6-1.6 14.1-3.9v6.3c-.1 2.5-5.9 5.3-14.2 5.3zm0-9.2c-1.1 0-2.1-.1-3.1-.2.3-1.2.5-2.4.5-3.6 0-1.7-.3-3.4-.9-5 1.2.1 2.3.2 3.5.2 6.3 0 11.6-1.6 14.1-3.9v7.1c0 2.6-5.8 5.4-14.1 5.4zm0-10.1c-1.4 0-2.8-.1-4.2-.3-2-3.9-5.6-6.7-9.9-7.7v-4.6c2.5 2.3 7.8 3.9 14.1 3.9s11.6-1.6 14.1-3.9v7.1c0 2.7-5.8 5.5-14.1 5.5zm0-10c-8.3 0-14.1-2.9-14.1-5.4v-7.1c2.5 2.3 7.8 3.9 14.1 3.9s11.6-1.6 14.1-3.9v7.1c0 2.5-5.8 5.4-14.1 5.4zm0-10.1c-8.3 0-14.1-2.9-14.1-5.4v-6.8c2.5 2.3 7.8 3.9 14.1 3.9s11.6-1.6 14.1-3.9v6.8c0 2.5-5.8 5.4-14.1 5.4z"></path><path d="M25.411 55.505L38.775 42.14l1.061 1.06-13.364 13.364zM36.8 50.5c-1.8 0-3.3 1.5-3.3 3.3 0 1.8 1.5 3.3 3.3 3.3 1.8 0 3.3-1.5 3.3-3.3 0-1.8-1.5-3.3-3.3-3.3zm0 5.1c-1 0-1.8-.8-1.8-1.8s.8-1.8 1.8-1.8 1.8.8 1.8 1.8-.8 1.8-1.8 1.8zM28.2 48.5c1.8 0 3.3-1.5 3.3-3.3s-1.5-3.3-3.3-3.3-3.3 1.5-3.3 3.3 1.5 3.3 3.3 3.3zm0-5.1c1 0 1.8.8 1.8 1.8s-.8 1.8-1.8 1.8-1.8-.8-1.8-1.8.8-1.8 1.8-1.8z"></path></svg>