<svg viewBox="0 0 65 65" xmlns="http://www.w3.org/2000/svg"><path d="M65 16.7H50.2l1.3-3.3c.5-1.3.3-2.7-.4-3.8l1.3-3.2c.2-.5 0-1-.5-1.2l-2.4-1c-.2-.1-.5-.1-.7 0-.2.1-.4.3-.5.5L46.9 8c-1.3.3-2.4 1.2-2.9 2.5l-.7 1.7-3.5-1.4-2.4 6.1H0v36.7h28.1v1.2c0 .8.4 1.5 1 2L27.8 60c-.2.4 0 .8.4 1 .5.2.9-.1 1-.4l1.3-3.2c.8.1 1.6-.2 2.1-.7.9-.9 1.7-1.9 2.4-3h30v-37zM49.4 5.8l1.5.6-.9 2.1c-.2-.1-.5-.3-.7-.4-.3-.1-.5-.1-.8-.2l.9-2.1zM1.5 52V18.2h35.3l-3.2 8 1.4.6 5.7-14.2 2.1.8-13.2 32.8c-.7 1.9-1.2 3.8-1.4 5.8H1.5zm29.9 3.4c-.3.3-.8.4-1.2.2-.4-.2-.7-.6-.7-1 0-2.7.5-5.4 1.5-7.9L45.3 11c.4-1 1.7-2.1 3.4-1.4 1.3.5 2 2 1.4 3.4L35.8 48.7c-1 2.5-2.5 4.8-4.4 6.7zM63.5 52H35.9c.5-.9 1-1.8 1.4-2.7l12.4-31h13.9V52z"></path><path d="M40.48 25.75l3.064 1.227-.558 1.392-3.064-1.227zM41.682 22.75l3.064 1.227-.558 1.393-3.063-1.227zM4.8 23.9h25.7v1.5H4.8zM4.8 29.3h20v1.5h-20zM43.7 40.5H60V42H43.7zM47.3 35.9H60v1.5H47.3zM17.7 46h1.5v1.5h-1.5zM20.9 46h1.5v1.5h-1.5zM5 46h1.5v1.5H5zM11.3 46h1.5v1.5h-1.5zM8.2 46h1.5v1.5H8.2zM14.5 46H16v1.5h-1.5zM24 46h1.5v1.5H24zM49 46h1.5v1.5H49zM45.8 46h1.5v1.5h-1.5zM42.7 46h1.5v1.5h-1.5zM58.5 46H60v1.5h-1.5zM55.4 46h1.5v1.5h-1.5zM40.8 46h.2v1.5h-.2zM52.2 46h1.5v1.5h-1.5z"></path></svg>