<?xml version="1.0" encoding="UTF-8" standalone="no"?>
<svg xmlns="http://www.w3.org/2000/svg" xmlns:xlink="http://www.w3.org/1999/xlink" width="100%" height="100%" viewBox="0 0 216 126" xml:space="preserve" style="fill-rule:evenodd;clip-rule:evenodd;stroke-linejoin:round;stroke-miterlimit:1.41421;">
  <g id="product.-logo.-gtmax">
    <rect x="0" y="0" width="216" height="126" style="fill:none;"></rect>
    <g>
      <rect x="124.032" y="18" width="13.289" height="13.289" style="fill:#424a52;"></rect>
      <rect x="124.032" y="35.086" width="13.289" height="13.29" style="fill:#d94f00;"></rect>
      <rect x="124.032" y="52.174" width="13.289" height="13.289" style="fill:#d94f00;"></rect>
      <rect x="124.032" y="69.26" width="13.289" height="13.289" style="fill:#d94f00;"></rect>
      <rect x="106.313" y="35.086" width="13.29" height="13.29" style="fill:#424a52;"></rect>
      <rect x="106.313" y="52.174" width="13.29" height="13.289" style="fill:#d94f00;"></rect>
      <rect x="106.313" y="69.26" width="13.29" height="13.289" style="fill:#d94f00;"></rect>
      <rect x="88.593" y="52.174" width="13.29" height="13.289" style="fill:#424a52;"></rect>
      <rect x="88.593" y="69.26" width="13.29" height="13.289" style="fill:#d94f00;"></rect>
      <rect x="70.874" y="69.26" width="13.289" height="13.289" style="fill:#424a52;"></rect>
      <path d="M124.73,95.297l0,0.001l0,-0.002l0,0.001Z" style="fill:#d94f00;fill-rule:nonzero;"></path>
      <path d="M109.853,102.959l-0.061,-0.14c0.01,-0.001 0.02,-0.004 0.028,-0.005l0.067,0.157l-0.034,-0.012Zm-8.12,-4.867l0,0l0,0.003l0,-0.003Zm12.658,2.035l0.018,0.035l0.001,0.002l-0.178,0.05c-0.001,-0.016 -0.004,-0.043 -0.01,-0.084l0.169,-0.003Zm6.406,-3.227l-0.001,-0.001l-0.001,-0.001l0.002,0.002Zm-17.235,4.583l0.002,-0.001l0,0l-0.003,0.002l0,-0.001l0,0l0.002,-0.001l-0.001,0.001Zm0.159,0.113l0,-0.001l0,0.001l0.001,0.004l-0.001,-0.004Zm25.575,-8.938l-0.001,-0.001l0.001,0.001Zm15.914,-16.449l-0.015,-0.151l-0.028,-0.135l-0.042,-0.12l-0.06,-0.105l-0.079,-0.089l-0.097,-0.066l-0.109,-0.039l-0.111,-0.011l-0.109,0.011l-0.105,0.026l-0.104,0.039l-0.104,0.051l-0.104,0.061l-0.106,0.068l-0.105,0.077l-0.106,0.083l-0.107,0.089l-0.107,0.094l-0.105,0.097l-0.106,0.101l-0.104,0.103l-0.103,0.104l-0.1,0.104l-0.098,0.103l-0.093,0.101l-0.091,0.099l-0.085,0.095l-0.081,0.09l-0.075,0.084l-0.069,0.078l-0.062,0.07l-0.285,0.316l-0.293,0.322l-0.299,0.329l-0.307,0.333l-0.313,0.338l-0.319,0.344l-0.324,0.348l-0.329,0.351l-0.334,0.356l-0.339,0.359l-0.342,0.362l-0.346,0.366l-0.348,0.368l-0.352,0.37l-0.354,0.373l-0.356,0.374l-0.358,0.376l-0.358,0.377l-0.359,0.377l-0.36,0.379l-0.359,0.378l-0.36,0.379l-0.358,0.379l-0.356,0.378l-0.355,0.377l-0.353,0.375l-0.351,0.376l-0.348,0.372l-0.344,0.37l-0.341,0.369l-0.336,0.366l-0.333,0.363l-0.034,0.038l-0.033,0.037l-0.031,0.038l-0.031,0.038l-0.03,0.036l-0.029,0.038l-0.028,0.037l-0.027,0.037l-0.027,0.037l-0.026,0.036l-0.024,0.036l-0.024,0.035l-0.023,0.036l-0.023,0.035l-0.022,0.034l-0.021,0.034l-0.02,0.033l-0.02,0.034l-0.02,0.031l-0.018,0.032l-0.019,0.031l-0.017,0.03l-0.017,0.029l-0.016,0.029l-0.016,0.027l-0.016,0.027l-0.015,0.026l-0.014,0.025l-0.014,0.023l-0.014,0.023l-0.013,0.022l-0.013,0.02l-0.057,0.089l-0.055,0.088l-0.054,0.087l-0.054,0.086l-0.051,0.084l-0.051,0.082l-0.05,0.082l-0.048,0.079l-0.047,0.079l-0.046,0.077l-0.046,0.076l-0.044,0.074l-0.043,0.072l-0.042,0.072l-0.041,0.07l-0.041,0.068l-0.039,0.067l-0.038,0.065l-0.037,0.064l-0.036,0.062l-0.035,0.061l-0.034,0.059l-0.034,0.058l-0.033,0.056l-0.032,0.055l-0.03,0.052l-0.031,0.051l-0.028,0.05l-0.029,0.048l-0.027,0.047l-0.027,0.044l-0.026,0.043l-0.015,0.025l-0.016,0.024l-0.016,0.024l-0.015,0.023l-0.016,0.024l-0.016,0.022l-0.015,0.022l-0.016,0.02l-0.016,0.022l-0.016,0.02l-0.016,0.02l-0.015,0.019l-0.016,0.019l-0.016,0.02l-0.016,0.017l-0.015,0.019l-0.015,0.017l-0.015,0.017l-0.016,0.017l-0.015,0.016l-0.014,0.017l-0.006,0.006l-0.006,-0.02l-0.008,-0.037l-0.008,-0.037l-0.009,-0.039l-0.008,-0.04l-0.009,-0.04l-0.009,-0.041l-0.007,-0.042l-0.009,-0.044l-0.007,-0.043l-0.008,-0.046l-0.008,-0.046l-0.007,-0.047l-0.008,-0.048l-0.007,-0.048l-0.008,-0.05l-0.007,-0.051l-0.006,-0.051l-0.007,-0.052l-0.007,-0.054l-0.007,-0.054l-0.006,-0.055l-0.006,-0.056l-0.006,-0.057l-0.006,-0.058l-0.006,-0.059l-0.006,-0.06l-0.006,-0.06l-0.006,-0.062l0.001,0.001l-0.005,-0.07l-0.006,-0.069l-0.004,-0.067l-0.004,-0.066l-0.004,-0.064l-0.002,-0.063l-0.003,-0.06l-0.002,-0.06l-0.001,-0.057l-0.001,-0.057l-0.001,-0.054l0,-0.053l0.001,-0.051l0.001,-0.049l0.002,-0.048l0.002,-0.047l0.002,-0.044l0.003,-0.043l0.004,-0.041l0.004,-0.039l0.005,-0.037l0.005,-0.036l0.005,-0.034l0.005,-0.032l0.006,-0.03l0.007,-0.028l0.006,-0.027l0.008,-0.024l0.006,-0.022l0.008,-0.021l0.007,-0.017l0.007,-0.017l-0.07,-0.241l-0.048,-0.031l-0.047,-0.03l-0.048,-0.029l-0.045,-0.029l-0.046,-0.029l-0.044,-0.029l-0.044,-0.027l-0.043,-0.028l-0.043,-0.027l-0.042,-0.026l-0.041,-0.026l-0.041,-0.026l-0.04,-0.026l-0.039,-0.025l-0.039,-0.024l-0.038,-0.024l-0.037,-0.023l-0.037,-0.024l-0.036,-0.023l-0.035,-0.022l-0.035,-0.022l-0.034,-0.021l-0.033,-0.022l-0.033,-0.02l-0.032,-0.021l-0.032,-0.019l-0.03,-0.02l-0.03,-0.018l-0.029,-0.019l-0.03,-0.018l-0.027,-0.018l-0.028,-0.017l-0.072,-0.045l-0.081,0.023l-0.511,0.146l-0.034,0.012l-0.032,0.014l-0.03,0.017l-0.027,0.018l-0.027,0.022l-0.024,0.023l-0.022,0.023l-0.021,0.026l-0.019,0.026l-0.018,0.028l-0.017,0.029l-0.016,0.029l-0.015,0.031l-0.015,0.032l-0.013,0.033l-0.013,0.034l-0.013,0.035l-0.012,0.037l-0.011,0.039l-0.011,0.039l-0.011,0.042l-0.01,0.042l-0.01,0.043l-0.009,0.046l-0.009,0.046l-0.009,0.048l-0.008,0.049l-0.008,0.051l-0.008,0.053l-0.007,0.053l-0.007,0.056l0.023,-0.026l-0.686,1.074l-0.031,0.049l-0.006,0.013l-0.017,0.037l-0.016,0.036l-0.016,0.035l-0.015,0.034l-0.015,0.034l-0.015,0.032l-0.015,0.033l-0.014,0.032l-0.013,0.031l-0.014,0.03l-0.013,0.029l-0.013,0.029l-0.012,0.028l-0.013,0.028l-0.012,0.026l-0.011,0.026l-0.011,0.025l-0.011,0.024l-0.01,0.024l-0.011,0.023l-0.009,0.023l-0.01,0.021l-0.009,0.021l-0.009,0.021l-0.009,0.019l-0.008,0.019l-0.007,0.018l-0.008,0.017l-0.007,0.017l-0.007,0.016l-0.006,0.016l-0.002,0.006l-0.094,0.181l-0.092,0.179l-0.09,0.174l-0.086,0.167l-0.084,0.162l-0.059,0.115l-0.093,-0.021l-0.223,0.133l-0.1,0.344l0,-0.001l-0.017,0.056l-0.017,0.055l-0.018,0.053l-0.019,0.053l-0.02,0.052l-0.02,0.051l-0.021,0.049l-0.021,0.048l-0.022,0.047l-0.022,0.047l-0.024,0.044l-0.023,0.044l-0.024,0.043l-0.025,0.042l-0.026,0.041l-0.025,0.039l-0.027,0.039l-0.027,0.037l-0.027,0.038l-0.029,0.035l-0.028,0.034l-0.029,0.034l-0.03,0.032l-0.031,0.032l-0.03,0.03l-0.032,0.03l-0.032,0.028l-0.032,0.028l-0.034,0.026l-0.033,0.026l-0.035,0.025l-0.035,0.023l-0.042,0.029l-0.023,0.046l-0.016,0.029l-0.015,0.03l-0.017,0.03l-0.017,0.032l-0.02,0.033l-0.02,0.033l-0.021,0.034l-0.022,0.034l-0.024,0.036l-0.024,0.037l-0.026,0.037l-0.026,0.038l-0.028,0.039l-0.028,0.04l-0.03,0.04l-0.031,0.04l-0.032,0.043l-0.033,0.042l-0.034,0.043l-0.035,0.044l-0.036,0.045l-0.037,0.045l-0.039,0.046l-0.04,0.047l-0.04,0.047l-0.041,0.048l-0.043,0.05l-0.043,0.049l-0.045,0.051l-0.046,0.051l-0.047,0.051l-0.047,0.053l0.002,-0.003l-0.054,0.057l-0.053,0.054l-0.052,0.053l-0.051,0.051l-0.05,0.05l-0.05,0.048l-0.048,0.047l-0.047,0.044l-0.047,0.044l-0.046,0.041l-0.044,0.04l-0.044,0.039l-0.043,0.037l-0.041,0.035l-0.041,0.034l-0.04,0.032l-0.039,0.031l-0.038,0.028l-0.037,0.027l-0.035,0.026l-0.035,0.023l-0.034,0.023l-0.032,0.021l-0.031,0.019l-0.03,0.017l-0.029,0.015l-0.027,0.015l-0.026,0.012l-0.025,0.011l-0.023,0.009l-0.022,0.007l-0.02,0.006l-0.043,0.013l-0.042,0.01l-0.04,0.01l-0.039,0.01l-0.039,0.008l-0.037,0.007l-0.036,0.007l-0.035,0.006l-0.033,0.005l-0.033,0.004l-0.031,0.003l-0.03,0.002l-0.029,0.002l-0.027,0.001l-0.026,0l-0.025,0l-0.024,-0.002l-0.022,-0.002l-0.021,-0.003l-0.019,-0.003l-0.017,-0.004l-0.017,-0.004l-0.015,-0.005l-0.014,-0.004l-0.013,-0.006l-0.011,-0.005l-0.01,-0.006l-0.01,-0.006l-0.009,-0.006l-0.007,-0.006l-0.007,-0.006l-0.007,-0.007l-0.007,-0.007l-0.002,-0.003l-0.002,-0.001l-0.002,-0.006l-0.006,-0.007l-0.005,-0.01l-0.006,-0.012l-0.007,-0.014l-0.008,-0.016l-0.008,-0.017l-0.007,-0.019l-0.009,-0.021l-0.01,-0.023l-0.009,-0.023l-0.01,-0.026l-0.009,-0.027l-0.011,-0.029l-0.011,-0.03l-0.01,-0.032l-0.011,-0.033l-0.012,-0.034l-0.011,-0.036l-0.013,-0.038l-0.012,-0.039l-0.012,-0.04l-0.013,-0.042l-0.012,-0.043l-0.014,-0.045l-0.014,-0.046l-0.014,-0.048l-0.013,-0.049l-0.015,-0.053l-0.013,-0.055l-0.013,-0.058l-0.011,-0.061l-0.01,-0.063l-0.009,-0.066l-0.008,-0.069l-0.008,-0.071l-0.005,-0.073l-0.006,-0.076l-0.003,-0.079l-0.003,-0.081l-0.001,-0.084l-0.001,-0.086l0.001,-0.089l0.002,-0.091l0.003,-0.093l0.005,-0.097l0.005,-0.098l0.007,-0.101l0.008,-0.103l0.009,-0.106l0.01,-0.108l0.011,-0.111l0.013,-0.113l0.014,-0.115l0.015,-0.118l0.015,-0.12l0.017,-0.123l0.019,-0.125l0.02,-0.127l0.019,-0.118l0.005,-0.016l0.01,-0.031l0.01,-0.029l0.009,-0.029l0.01,-0.028l0.008,-0.026l0.009,-0.026l0.008,-0.025l0.008,-0.024l0.007,-0.021l0.008,-0.022l0.008,-0.02l0.006,-0.019l0.007,-0.019l0.007,-0.016l0.006,-0.017l0.006,-0.015l0.005,-0.013l0.01,-0.025l0.004,-0.009l-0.008,-0.002l0.058,-0.194l-0.073,-0.256l-0.012,-0.042l-0.032,-0.034l-0.011,-0.012l-0.012,-0.011l-0.011,-0.01l-0.011,-0.008l-0.01,-0.008l-0.013,-0.009l-0.013,-0.009l-0.012,-0.009l-0.014,-0.009l-0.014,-0.009l-0.015,-0.01l-0.017,-0.01l-0.016,-0.011l-0.018,-0.011l-0.018,-0.012l-0.02,-0.012l-0.021,-0.012l-0.021,-0.013l-0.022,-0.013l-0.024,-0.013l-0.024,-0.015l-0.026,-0.015l-0.026,-0.015l-0.027,-0.016l-0.028,-0.016l-0.03,-0.016l-0.029,-0.017l-0.031,-0.018l-0.033,-0.018l-0.032,-0.018l-0.034,-0.019l-0.028,-0.016l-0.007,-0.005l-0.019,-0.011l-0.018,-0.011l-0.02,-0.011l-0.02,-0.009l-0.019,-0.009l-0.019,-0.009l-0.021,-0.007l-0.021,-0.007l-0.02,-0.007l-0.022,-0.005l-0.021,-0.005l-0.022,-0.004l-0.021,-0.004l-0.022,-0.003l-0.022,-0.002l-0.022,-0.001l-0.021,-0.001l-0.023,-0.001l-0.021,0l-0.023,0.001l-0.023,0.001l-0.023,0.002l-0.022,0.003l-0.023,0.003l-0.023,0.003l-0.023,0.004l-0.023,0.004l-0.024,0.005l-0.023,0.006l-0.024,0.006l-0.023,0.006l-0.014,0.005l-0.015,0.005l-0.015,0.006l-0.014,0.005l-0.015,0.006l-0.014,0.006l-0.015,0.007l-0.015,0.007l-0.016,0.008l-0.014,0.007l-0.016,0.009l-0.016,0.008l-0.016,0.009l-0.017,0.009l-0.016,0.01l-0.017,0.01l-0.018,0.01l-0.017,0.011l-0.019,0.012l-0.018,0.011l-0.018,0.011l-0.02,0.014l-0.019,0.012l-0.02,0.013l-0.02,0.014l-0.02,0.014l-0.021,0.015l-0.022,0.014l-0.022,0.016l-0.022,0.015l-0.022,0.016l-0.023,0.017l-0.062,0.045l-0.013,0.076l-0.02,0.111l-0.019,0.109l-0.019,0.106l-0.018,0.104l-0.018,0.101l-0.017,0.099l-0.017,0.098l-0.016,0.094l-0.016,0.093l-0.015,0.09l-0.015,0.088l-0.014,0.085l-0.014,0.084l-0.013,0.081l-0.013,0.078l-0.012,0.077l-0.012,0.074l-0.011,0.072l-0.011,0.069l-0.01,0.068l-0.01,0.066l-0.009,0.062l-0.009,0.06l-0.008,0.058l-0.007,0.056l-0.008,0.054l-0.007,0.052l-0.006,0.049l-0.006,0.048l-0.005,0.044l-0.005,0.042l-0.001,0.009l-0.048,0.099l-0.061,0.126l-0.059,0.122l-0.057,0.119l-0.056,0.115l-0.054,0.112l-0.052,0.106l-0.05,0.104l-0.049,0.101l-0.047,0.096l-0.045,0.093l-0.043,0.089l-0.042,0.085l-0.04,0.082l-0.038,0.078l-0.036,0.074l-0.035,0.07l-0.033,0.067l-0.031,0.063l-0.029,0.06l-0.027,0.056l-0.026,0.051l-0.024,0.048l-0.022,0.045l-0.021,0.04l-0.018,0.038l-0.017,0.032l-0.015,0.03l-0.013,0.025l-0.011,0.022l-0.009,0.016l-0.007,0.013l0,0.001l-0.008,0.014l-0.009,0.017l-0.009,0.016l-0.009,0.018l-0.011,0.02l-0.01,0.019l-0.012,0.023l-0.011,0.022l-0.012,0.023l-0.013,0.026l-0.014,0.026l-0.013,0.027l-0.014,0.028l-0.015,0.03l-0.016,0.031l-0.015,0.032l-0.017,0.033l-0.017,0.035l-0.018,0.035l-0.018,0.036l-0.018,0.039l-0.019,0.039l-0.02,0.04l-0.02,0.041l-0.021,0.043l-0.021,0.043l-0.022,0.046l-0.022,0.046l-0.023,0.047l-0.024,0.049l-0.024,0.05l-0.025,0.051l-0.004,0.011l-0.015,0.036l-0.016,0.036l-0.015,0.036l-0.016,0.034l-0.016,0.034l-0.016,0.033l-0.016,0.032l-0.017,0.032l-0.016,0.03l-0.017,0.03l-0.017,0.03l-0.016,0.028l-0.017,0.028l-0.017,0.027l-0.018,0.026l-0.017,0.025l-0.017,0.025l-0.018,0.024l-0.018,0.023l-0.017,0.022l-0.018,0.022l-0.018,0.021l-0.018,0.02l-0.018,0.02l-0.019,0.018l-0.018,0.018l-0.018,0.018l-0.018,0.016l-0.018,0.016l-0.019,0.016l-0.019,0.014l-0.018,0.014l-0.043,0.031l-0.021,0.049l-0.036,0.083l-0.037,0.083l-0.037,0.08l-0.038,0.079l-0.038,0.076l-0.039,0.074l-0.039,0.074l-0.04,0.071l-0.04,0.069l-0.041,0.068l-0.041,0.065l-0.041,0.064l-0.043,0.062l-0.042,0.061l-0.043,0.058l-0.043,0.056l-0.044,0.055l-0.045,0.053l-0.045,0.052l-0.045,0.049l-0.046,0.048l-0.045,0.046l-0.047,0.044l-0.048,0.043l-0.047,0.04l-0.048,0.039l-0.048,0.037l-0.048,0.036l-0.05,0.034l-0.049,0.032l-0.031,0.019l-0.011,-0.004l-0.019,-0.007l-0.018,-0.009l-0.018,-0.009l-0.016,-0.008l-0.016,-0.008l-0.016,-0.01l-0.015,-0.009l-0.014,-0.011l-0.014,-0.01l-0.014,-0.01l-0.013,-0.012l-0.012,-0.011l-0.011,-0.012l-0.011,-0.011l-0.012,-0.013l-0.01,-0.013l-0.011,-0.013l-0.009,-0.014l-0.01,-0.014l-0.009,-0.015l-0.008,-0.015l-0.008,-0.016l-0.008,-0.017l-0.008,-0.017l-0.006,-0.017l-0.006,-0.015l-0.002,-0.018l-0.002,-0.02l-0.002,-0.023l-0.004,-0.027l-0.005,-0.031l-0.004,-0.035l-0.006,-0.039l-0.006,-0.043l-0.008,-0.047l-0.008,-0.052l-0.008,-0.056l-0.01,-0.06l-0.011,-0.065l-0.011,-0.069l-0.012,-0.073l-0.012,-0.077l-0.013,-0.082l-0.015,-0.087l-0.015,-0.09l-0.015,-0.095l-0.017,-0.099l-0.017,-0.103l-0.018,-0.108l-0.019,-0.112l-0.019,-0.117l-0.02,-0.121l-0.016,-0.093l0.506,-2.878l0.016,-0.088l0.017,-0.089l0.019,-0.088l0.02,-0.088l0.021,-0.089l0.022,-0.089l0.023,-0.088l0.025,-0.088l0.027,-0.088l0.027,-0.089l0.028,-0.088l0.029,-0.089l0.031,-0.088l0.032,-0.088l0.033,-0.089l0.034,-0.088l0.036,-0.088l0.037,-0.088l0.038,-0.089l0.04,-0.088l0.04,-0.088l0.042,-0.089l0.042,-0.088l0.045,-0.089l0.046,-0.088l0.046,-0.088l0.048,-0.089l0.05,-0.088l0.05,-0.088l0.052,-0.088l0.053,-0.089l0.044,-0.074l0.045,-0.052l0.053,-0.061l0.05,-0.06l0.05,-0.058l0.049,-0.058l0.047,-0.057l0.047,-0.055l0.044,-0.055l0.045,-0.052l0.042,-0.052l0.042,-0.052l0.04,-0.05l0.039,-0.049l0.038,-0.048l0.037,-0.046l0.035,-0.045l0.034,-0.046l0.033,-0.043l0.032,-0.042l0.031,-0.041l0.029,-0.041l0.029,-0.039l0.027,-0.038l0.026,-0.038l0.024,-0.036l0.024,-0.035l0.023,-0.034l0.021,-0.034l0.02,-0.032l0.019,-0.031l0.018,-0.031l0.001,-0.001l0.001,-0.001l0.022,-0.021l0.022,-0.02l0.022,-0.019l0.021,-0.018l0.021,-0.018l0.021,-0.018l0.02,-0.017l0.02,-0.017l0.02,-0.016l0.018,-0.016l0.019,-0.015l0.019,-0.015l0.017,-0.014l0.018,-0.014l0.017,-0.013l0.017,-0.013l0.017,-0.012l0.016,-0.012l0.016,-0.011l0.014,-0.01l0.015,-0.01l0.015,-0.01l0.013,-0.009l0.014,-0.008l0.013,-0.008l0.013,-0.008l0.011,-0.007l0.012,-0.006l0.011,-0.006l0.01,-0.005l0.011,-0.005l0.03,-0.015l0.025,-0.025l0.067,-0.07l0.067,-0.067l0.065,-0.066l0.064,-0.064l0.064,-0.062l0.062,-0.06l0.062,-0.058l0.061,-0.056l0.059,-0.054l0.059,-0.052l0.059,-0.052l0.056,-0.048l0.057,-0.047l0.055,-0.045l0.054,-0.042l0.053,-0.041l0.053,-0.039l0.05,-0.037l0.05,-0.035l0.049,-0.033l0.048,-0.032l0.047,-0.029l0.047,-0.028l0.044,-0.025l0.044,-0.024l0.043,-0.021l0.041,-0.02l0.04,-0.018l0.039,-0.017l0.037,-0.013l0.037,-0.013l0.035,-0.011l0.401,-0.114l0.007,0.023l-0.002,0.008l-0.015,0.057l-0.014,0.056l-0.013,0.053l-0.013,0.054l-0.013,0.051l-0.011,0.05l-0.011,0.048l-0.011,0.047l-0.01,0.046l-0.01,0.044l-0.008,0.043l-0.009,0.042l-0.008,0.039l-0.007,0.039l-0.006,0.038l-0.007,0.036l-0.005,0.035l-0.005,0.033l-0.005,0.033l-0.003,0.03l-0.003,0.03l-0.002,0.029l-0.002,0.028l-0.001,0.025l-0.001,0.027l0,0.025l0.001,0.025l0.002,0.024l0.002,0.026l0.005,0.024l0.006,0.025l0.005,0.018l0.007,0.02l0.006,0.018l0.007,0.017l0.007,0.018l0.009,0.018l0.007,0.018l0.009,0.017l0.009,0.017l0.01,0.017l0.01,0.018l0.01,0.017l0.011,0.015l0.011,0.018l0.012,0.016l0.012,0.016l0.012,0.016l0.012,0.016l0.014,0.015l0.013,0.017l0.014,0.015l0.014,0.015l0.015,0.016l0.015,0.015l0.015,0.015l0.016,0.015l0.016,0.014l0.016,0.015l0.016,0.015l0.017,0.014l0.018,0.015l0.017,0.014l0.052,0.041l0.134,0l0.033,0.001l0.033,0l0.032,0l0.032,0l0.031,0.001l0.031,0l0.03,0l0.031,0.001l0.029,0l0.029,0.001l0.029,0l0.027,0.001l0.028,0.001l0.028,0.001l0.026,0.001l0.026,0l0.027,0.001l0.025,0.002l0.025,0l0.025,0.001l0.024,0.002l0.023,0.001l0.023,0.001l0.022,0.001l0.023,0.002l0.021,0.001l0.021,0.001l0.021,0.002l0.02,0.001l0.019,0.002l0.205,-0.176l0.009,-0.113l0.008,-0.11l0.009,-0.105l0.008,-0.101l0.008,-0.097l0.008,-0.094l0.008,-0.088l0.008,-0.084l0.008,-0.081l0.007,-0.077l0.008,-0.071l0.007,-0.068l0.007,-0.063l0.007,-0.06l0.007,-0.055l0.006,-0.05l0.007,-0.047l0.006,-0.042l0.006,-0.037l0.006,-0.033l0.005,-0.027l0.005,-0.023l0.004,-0.016l0.003,-0.009l-0.008,0.014l0.051,-0.13l-0.094,-0.329l-0.017,-0.061l-0.051,-0.038l-0.039,-0.029l-0.038,-0.029l-0.038,-0.029l-0.038,-0.028l-0.038,-0.029l-0.039,-0.029l-0.039,-0.028l-0.038,-0.028l-0.039,-0.028l-0.038,-0.028l-0.039,-0.028l-0.039,-0.028l-0.038,-0.028l-0.04,-0.027l-0.038,-0.028l-0.039,-0.028l-0.039,-0.027l-0.039,-0.027l-0.039,-0.028l-0.04,-0.027l-0.038,-0.026l-0.04,-0.027l-0.039,-0.028l-0.04,-0.026l-0.039,-0.027l-0.04,-0.027l-0.039,-0.026l-0.04,-0.026l-0.039,-0.027l-0.04,-0.026l-0.039,-0.026l-0.04,-0.026l-0.044,-0.028l-0.045,-0.026l-0.045,-0.026l-0.046,-0.024l-0.046,-0.023l-0.047,-0.02l-0.047,-0.02l-0.048,-0.018l-0.048,-0.017l-0.048,-0.016l-0.05,-0.013l-0.049,-0.013l-0.05,-0.011l-0.051,-0.009l-0.05,-0.008l-0.051,-0.007l-0.052,-0.005l-0.052,-0.004l-0.051,-0.002l-0.053,-0.002l-0.053,0l-0.053,0.002l-0.053,0.003l-0.054,0.005l-0.054,0.006l-0.055,0.007l-0.054,0.009l-0.056,0.01l-0.055,0.011l-0.055,0.013l-0.056,0.014l-0.056,0.015l-0.038,0.012l-0.038,0.012l-0.038,0.013l-0.037,0.013l-0.038,0.014l-0.038,0.016l-0.038,0.016l-0.037,0.016l-0.038,0.018l-0.038,0.018l-0.037,0.019l-0.038,0.02l-0.038,0.02l-0.037,0.022l-0.038,0.022l-0.037,0.023l-0.037,0.024l-0.038,0.024l-0.037,0.025l-0.038,0.026l-0.038,0.026l-0.037,0.028l-0.038,0.028l-0.037,0.028l-0.038,0.03l-0.037,0.03l-0.037,0.031l-0.037,0.032l-0.038,0.033l-0.037,0.033l-0.038,0.034l-0.037,0.035l-0.037,0.035l-0.037,0.035l-0.035,0.036l-0.035,0.035l-0.034,0.035l-0.033,0.035l-0.032,0.036l-0.031,0.034l-0.03,0.036l-0.03,0.035l-0.029,0.036l-0.027,0.035l-0.028,0.036l-0.026,0.035l-0.025,0.036l-0.025,0.035l-0.023,0.035l-0.022,0.037l-0.023,0.035l-0.02,0.036l-0.02,0.036l-0.019,0.036l-0.019,0.036l-0.017,0.036l-0.016,0.036l-0.016,0.036l-0.014,0.036l-0.014,0.036l-0.012,0.037l-0.012,0.036l-0.003,0.009l-0.03,0.023l-0.039,0.031l-0.039,0.03l-0.037,0.029l-0.037,0.029l-0.037,0.03l-0.036,0.028l-0.034,0.027l-0.034,0.028l-0.035,0.027l-0.033,0.027l-0.033,0.026l-0.032,0.026l-0.031,0.025l-0.031,0.026l-0.029,0.024l-0.03,0.024l-0.028,0.025l-0.029,0.023l-0.027,0.023l-0.027,0.023l-0.027,0.022l-0.025,0.022l-0.025,0.021l-0.024,0.022l-0.024,0.02l-0.023,0.021l-0.023,0.02l-0.022,0.019l-0.021,0.019l-0.02,0.019l-0.021,0.019l-0.013,0.022l-0.024,0.04l-0.022,0.038l-0.024,0.037l-0.022,0.037l-0.021,0.036l-0.021,0.037l-0.021,0.035l-0.02,0.035l-0.02,0.033l-0.019,0.034l-0.02,0.033l-0.018,0.033l-0.018,0.032l-0.018,0.031l-0.017,0.031l-0.017,0.029l-0.017,0.03l-0.016,0.029l-0.015,0.029l-0.015,0.028l-0.015,0.027l-0.014,0.027l-0.014,0.025l-0.013,0.026l-0.013,0.025l-0.013,0.025l-0.011,0.024l-0.012,0.024l-0.011,0.023l-0.011,0.022l-0.011,0.022l-0.003,0.007l-0.044,0.07l-0.048,0.076l-0.047,0.076l-0.047,0.074l-0.045,0.072l-0.045,0.072l-0.045,0.07l-0.044,0.069l-0.042,0.068l-0.043,0.067l-0.041,0.065l-0.041,0.064l-0.04,0.063l-0.039,0.062l-0.039,0.061l-0.038,0.059l-0.037,0.058l-0.036,0.057l-0.036,0.056l-0.035,0.055l-0.034,0.052l-0.034,0.053l-0.032,0.051l-0.032,0.049l-0.031,0.049l-0.031,0.047l-0.029,0.046l-0.029,0.044l-0.029,0.044l-0.027,0.043l-0.027,0.041l-0.025,0.04l-0.017,0.025l-0.007,0.024l-0.031,0.104l-0.031,0.103l-0.03,0.102l-0.03,0.099l-0.03,0.098l-0.029,0.097l-0.028,0.095l-0.029,0.093l-0.027,0.092l-0.028,0.09l-0.026,0.088l-0.026,0.087l-0.026,0.085l-0.025,0.084l-0.026,0.082l-0.024,0.08l-0.024,0.08l-0.023,0.077l-0.023,0.075l-0.023,0.074l-0.022,0.073l-0.021,0.071l-0.021,0.069l-0.021,0.068l-0.02,0.066l-0.02,0.064l-0.019,0.063l-0.019,0.061l-0.018,0.06l-0.018,0.058l-0.017,0.056l-0.017,0.055l-0.006,0.018l-0.002,0.016l-0.007,0.061l-0.006,0.06l-0.007,0.06l-0.006,0.057l-0.007,0.057l-0.005,0.056l-0.006,0.055l-0.006,0.054l-0.005,0.052l-0.005,0.052l-0.005,0.051l-0.004,0.049l-0.004,0.048l-0.004,0.048l-0.004,0.046l-0.004,0.045l-0.003,0.045l-0.003,0.043l-0.003,0.042l-0.003,0.041l-0.002,0.04l-0.002,0.04l-0.002,0.038l-0.002,0.032l-0.041,0.005l-0.043,0.04l-0.017,0.015l-0.016,0.016l-0.016,0.015l-0.016,0.016l-0.015,0.015l-0.015,0.016l-0.015,0.014l-0.014,0.016l-0.014,0.016l-0.013,0.014l-0.013,0.015l-0.012,0.016l-0.013,0.014l-0.011,0.015l-0.012,0.016l-0.011,0.015l-0.01,0.015l-0.01,0.015l-0.011,0.015l-0.009,0.017l-0.009,0.015l-0.009,0.016l-0.008,0.016l-0.008,0.015l-0.007,0.017l-0.006,0.016l-0.007,0.016l-0.006,0.017l-0.005,0.016l-0.005,0.017l-0.004,0.018l-0.004,0.016l-0.008,0.045l0.012,0.043l0.002,0.009l0.002,0.013l0.001,0.018l0.001,0.022l-0.002,0.027l-0.003,0.029l-0.005,0.033l-0.007,0.036l-0.008,0.04l-0.011,0.043l-0.013,0.045l-0.015,0.049l-0.016,0.051l-0.019,0.054l-0.021,0.057l-0.023,0.059l-0.025,0.063l-0.028,0.064l-0.029,0.067l-0.031,0.07l-0.034,0.073l-0.035,0.074l-0.038,0.077l-0.039,0.08l-0.042,0.083l-0.043,0.084l-0.046,0.087l-0.048,0.09l-0.049,0.093l-0.053,0.094l-0.053,0.097l-0.056,0.1l-0.057,0.099l-0.055,0.096l-0.055,0.093l-0.053,0.091l-0.052,0.086l-0.051,0.085l-0.05,0.081l-0.049,0.079l-0.048,0.075l-0.047,0.072l-0.046,0.069l-0.045,0.066l-0.043,0.063l-0.043,0.06l-0.042,0.056l-0.04,0.054l-0.038,0.051l-0.038,0.047l-0.037,0.045l-0.035,0.041l-0.034,0.038l-0.032,0.035l-0.032,0.031l-0.029,0.028l-0.028,0.025l-0.025,0.021l-0.025,0.019l-0.021,0.015l-0.019,0.011l-0.016,0.009l-0.013,0.005l-0.009,0.003l-0.004,0.001l-0.005,0.001l-0.007,0.001l-0.008,0.001l-0.01,0.001l-0.011,0l-0.013,0.001l-0.015,-0.001l-0.016,-0.001l-0.016,-0.002l-0.017,-0.002l-0.019,-0.003l-0.02,-0.003l-0.021,-0.004l-0.022,-0.004l-0.023,-0.005l-0.024,-0.006l-0.024,-0.006l-0.026,-0.007l-0.027,-0.007l-0.028,-0.009l-0.029,-0.009l-0.029,-0.009l-0.031,-0.01l-0.032,-0.011l-0.031,-0.011l-0.034,-0.012l-0.034,-0.013l-0.035,-0.013l-0.035,-0.014l-0.009,-0.022l-0.009,-0.025l-0.011,-0.025l-0.01,-0.024l-0.01,-0.025l-0.01,-0.025l-0.011,-0.025l-0.01,-0.025l-0.01,-0.024l-0.011,-0.025l-0.01,-0.025l-0.011,-0.024l-0.011,-0.025l-0.011,-0.025l-0.01,-0.024l-0.012,-0.024l-0.011,-0.026l-0.011,-0.023l-0.011,-0.025l-0.011,-0.024l-0.011,-0.025l-0.012,-0.025l-0.012,-0.024l-0.011,-0.024l-0.011,-0.025l-0.013,-0.024l-0.011,-0.024l-0.012,-0.024l-0.007,-0.014l-0.007,-0.019l-0.009,-0.026l-0.008,-0.027l-0.009,-0.026l-0.007,-0.025l-0.008,-0.025l-0.006,-0.026l-0.006,-0.024l-0.006,-0.024l-0.005,-0.025l-0.005,-0.024l-0.004,-0.024l-0.004,-0.024l-0.003,-0.023l-0.004,-0.024l-0.002,-0.023l-0.002,-0.022l-0.002,-0.023l-0.001,-0.023l-0.001,-0.022l0,-0.022l0,-0.021l0.001,-0.021l0.001,-0.023l0.001,-0.021l0.002,-0.021l0.003,-0.02l0.002,-0.02l0.004,-0.021l0.003,-0.02l0.004,-0.02l0.005,-0.02l0.009,-0.043l-0.009,-0.042l-0.008,-0.037l-0.008,-0.036l-0.007,-0.037l-0.006,-0.036l-0.006,-0.035l-0.005,-0.035l-0.005,-0.035l-0.005,-0.035l-0.003,-0.034l-0.004,-0.034l-0.002,-0.033l-0.003,-0.034l-0.001,-0.032l-0.002,-0.033l-0.001,-0.032l0,-0.032l0,-0.031l0.001,-0.031l0.001,-0.031l0.002,-0.031l0.002,-0.03l0.003,-0.029l0.004,-0.029l0.003,-0.029l0.004,-0.028l0.005,-0.029l0.005,-0.028l0.006,-0.027l0.006,-0.027l0.006,-0.027l0.007,-0.027l0.008,-0.026l0.019,-0.065l-0.027,-0.063l-0.006,-0.015l-0.006,-0.016l-0.006,-0.016l-0.006,-0.016l-0.006,-0.017l-0.006,-0.018l-0.006,-0.016l-0.005,-0.018l-0.006,-0.019l-0.005,-0.019l-0.005,-0.019l-0.005,-0.02l-0.005,-0.02l-0.004,-0.02l-0.005,-0.021l-0.005,-0.021l-0.004,-0.022l-0.004,-0.022l-0.004,-0.022l-0.004,-0.023l-0.004,-0.024l-0.003,-0.023l-0.004,-0.024l-0.003,-0.024l-0.004,-0.025l-0.003,-0.026l-0.002,-0.026l-0.003,-0.026l-0.003,-0.026l-0.003,-0.026l-0.001,-0.027l-0.002,-0.029l-0.003,-0.028l-0.002,-0.029l-0.002,-0.029l-0.003,-0.028l-0.002,-0.026l-0.002,-0.027l-0.003,-0.026l-0.002,-0.026l-0.002,-0.025l-0.003,-0.024l-0.002,-0.024l-0.004,-0.024l-0.002,-0.023l-0.003,-0.022l-0.002,-0.022l-0.003,-0.022l-0.003,-0.02l-0.003,-0.021l-0.003,-0.02l-0.003,-0.02l-0.003,-0.019l-0.003,-0.018l-0.003,-0.018l-0.003,-0.017l-0.004,-0.018l-0.003,-0.017l-0.003,-0.016l-0.003,-0.016l-0.004,-0.015l-0.004,-0.016l-0.004,-0.015l-0.004,-0.014l-0.013,-0.041l-0.013,-0.04l-0.014,-0.04l-0.016,-0.039l-0.016,-0.039l-0.017,-0.038l-0.019,-0.037l-0.019,-0.037l-0.021,-0.037l-0.022,-0.035l-0.022,-0.034l-0.024,-0.034l-0.024,-0.033l-0.026,-0.033l-0.027,-0.032l-0.027,-0.031l-0.029,-0.03l-0.029,-0.029l-0.031,-0.029l-0.03,-0.028l-0.033,-0.027l-0.033,-0.026l-0.034,-0.026l-0.035,-0.024l-0.035,-0.024l-0.037,-0.023l-0.038,-0.022l-0.037,-0.022l-0.04,-0.021l-0.04,-0.019l-0.04,-0.02l-0.041,-0.018l-0.042,-0.017l-0.042,-0.016l-0.041,-0.016l-0.042,-0.014l-0.042,-0.015l-0.042,-0.012l-0.042,-0.012l-0.042,-0.01l-0.041,-0.01l-0.043,-0.009l-0.042,-0.009l-0.043,-0.007l-0.043,-0.006l-0.042,-0.006l-0.042,-0.004l-0.043,-0.003l-0.043,-0.002l-0.041,-0.002l-0.043,-0.001l-0.043,0.001l-0.043,0.001l-0.043,0.003l-0.042,0.003l-0.043,0.004l-0.042,0.005l-0.043,0.006l-0.043,0.007l-0.043,0.009l-0.043,0.008l-0.042,0.01l-0.043,0.011l-0.042,0.011l-0.089,0.025l-0.035,0.085l-0.011,0.028l-0.012,0.026l-0.011,0.026l-0.011,0.026l-0.011,0.026l-0.012,0.026l-0.012,0.025l-0.011,0.025l-0.012,0.025l-0.011,0.024l-0.012,0.024l-0.011,0.024l-0.012,0.023l-0.011,0.022l-0.011,0.023l-0.012,0.023l-0.011,0.022l-0.011,0.021l-0.012,0.022l-0.011,0.021l-0.012,0.021l-0.011,0.02l-0.011,0.02l-0.011,0.02l-0.012,0.019l-0.012,0.02l-0.011,0.018l-0.011,0.018l-0.011,0.019l-0.011,0.017l-0.012,0.018l-0.009,0.014l-0.017,0.021l-0.025,0.031l-0.024,0.03l-0.024,0.03l-0.023,0.029l-0.024,0.028l-0.022,0.028l-0.023,0.028l-0.022,0.026l-0.021,0.027l-0.021,0.025l-0.022,0.026l-0.02,0.024l-0.02,0.024l-0.02,0.023l-0.019,0.023l-0.019,0.022l-0.018,0.022l-0.018,0.02l-0.018,0.02l-0.017,0.021l-0.017,0.019l-0.017,0.018l-0.016,0.019l-0.015,0.017l-0.016,0.017l-0.014,0.016l-0.015,0.015l-0.014,0.015l-0.013,0.015l-0.013,0.013l-0.013,0.014l-0.016,0.016l-0.011,0.018l-0.027,0.045l-0.026,0.044l-0.026,0.043l-0.025,0.043l-0.024,0.041l-0.025,0.041l-0.023,0.041l-0.023,0.04l-0.023,0.039l-0.023,0.039l-0.021,0.038l-0.021,0.037l-0.021,0.036l-0.02,0.036l-0.02,0.035l-0.019,0.035l-0.019,0.034l-0.018,0.033l-0.018,0.033l-0.018,0.031l-0.016,0.032l-0.016,0.03l-0.016,0.03l-0.015,0.029l-0.016,0.029l-0.014,0.028l-0.014,0.028l-0.013,0.025l-0.014,0.027l-0.012,0.026l-0.012,0.024l-0.011,0.025l-0.004,0.009l-0.003,0.009l-0.017,0.045l-0.015,0.044l-0.017,0.043l-0.016,0.043l-0.016,0.041l-0.016,0.041l-0.016,0.04l-0.016,0.038l-0.017,0.038l-0.016,0.037l-0.016,0.036l-0.017,0.036l-0.016,0.034l-0.017,0.034l-0.016,0.032l-0.017,0.033l-0.016,0.03l-0.017,0.03l-0.016,0.03l-0.017,0.028l-0.017,0.027l-0.016,0.026l-0.017,0.026l-0.016,0.025l-0.017,0.024l-0.016,0.022l-0.017,0.022l-0.016,0.021l-0.016,0.021l-0.017,0.019l-0.015,0.018l-0.017,0.018l-0.021,0.022l-0.013,0.031l-0.032,0.07l-0.031,0.069l-0.03,0.069l-0.03,0.067l-0.029,0.066l-0.029,0.066l-0.028,0.064l-0.027,0.064l-0.028,0.063l-0.026,0.061l-0.026,0.061l-0.025,0.059l-0.025,0.058l-0.024,0.058l-0.024,0.056l-0.023,0.056l-0.023,0.054l-0.021,0.053l-0.022,0.053l-0.021,0.052l-0.02,0.05l-0.02,0.05l0.003,-0.034l0.006,-0.066l0.007,-0.071l0.007,-0.074l0.008,-0.077l0.009,-0.08l0.009,-0.085l0.009,-0.087l0.01,-0.091l0.011,-0.095l0.011,-0.098l0.012,-0.101l0.013,-0.105l0.013,-0.107l0.013,-0.112l0.014,-0.115l0.015,-0.118l0.015,-0.121l0.013,-0.118l0.013,-0.117l0.012,-0.114l0.011,-0.112l0.009,-0.111l0.009,-0.108l0.008,-0.106l0.007,-0.105l0.006,-0.102l0.005,-0.1l0.004,-0.099l0.003,-0.096l0.002,-0.095l0.001,-0.092l0.001,-0.091l-0.001,-0.088l-0.001,-0.087l-0.003,-0.085l-0.004,-0.083l-0.005,-0.081l-0.005,-0.078l-0.008,-0.078l-0.008,-0.075l-0.008,-0.073l-0.01,-0.071l-0.011,-0.07l-0.012,-0.068l-0.013,-0.066l-0.014,-0.064l-0.016,-0.062l-0.015,-0.061l-0.094,-0.328l-0.027,-0.093l-0.09,-0.034l-0.105,-0.038l-0.103,-0.038l-0.1,-0.035l-0.098,-0.035l-0.095,-0.033l-0.093,-0.031l-0.092,-0.03l-0.087,-0.029l-0.087,-0.026l-0.085,-0.026l-0.082,-0.024l-0.079,-0.023l-0.078,-0.02l-0.075,-0.02l-0.073,-0.018l-0.071,-0.017l-0.069,-0.015l-0.066,-0.014l-0.065,-0.012l-0.062,-0.011l-0.061,-0.009l-0.058,-0.008l-0.056,-0.006l-0.055,-0.004l-0.052,-0.004l-0.051,0l-0.049,0l-0.049,0.002l-0.046,0.003l-0.044,0.007l-0.045,0.008l-0.042,0.01l-0.075,0.022l-0.039,0.07l-0.078,0.141l-0.007,0.012l-0.001,0.003l-0.008,0.017l-0.007,0.017l-0.008,0.017l-0.008,0.018l-0.008,0.018l-0.008,0.018l-0.009,0.019l-0.008,0.018l-0.009,0.019l-0.008,0.02l-0.009,0.019l-0.01,0.02l-0.009,0.021l-0.01,0.02l-0.009,0.02l-0.01,0.022l-0.01,0.021l-0.01,0.021l-0.01,0.022l-0.01,0.023l-0.011,0.022l-0.011,0.023l-0.011,0.023l-0.011,0.024l-0.011,0.022l-0.012,0.024l-0.011,0.025l-0.012,0.024l-0.012,0.025l-0.012,0.025l-0.012,0.025l-0.012,0.025l-0.003,0.007l-0.033,0.078l-0.034,0.077l-0.033,0.075l-0.031,0.073l-0.032,0.073l-0.03,0.07l-0.03,0.069l-0.03,0.068l-0.029,0.066l-0.028,0.065l-0.027,0.064l-0.027,0.061l-0.026,0.06l-0.025,0.059l-0.025,0.057l-0.024,0.055l-0.024,0.055l-0.023,0.053l-0.022,0.051l-0.021,0.049l-0.021,0.049l-0.02,0.047l-0.02,0.045l-0.02,0.044l-0.017,0.042l-0.018,0.04l-0.017,0.04l-0.016,0.037l-0.016,0.037l-0.015,0.034l-0.015,0.034l-0.001,0.002l-0.005,0.005l-0.031,0.036l-0.03,0.037l-0.03,0.039l-0.029,0.041l-0.03,0.042l-0.028,0.045l-0.028,0.046l-0.028,0.048l-0.028,0.049l-0.027,0.052l-0.027,0.054l-0.026,0.055l-0.027,0.058l-0.026,0.059l-0.027,0.061l-0.026,0.063l-0.025,0.065l-0.026,0.067l-0.025,0.067l-0.025,0.072l-0.025,0.072l-0.025,0.074l-0.024,0.077l-0.025,0.078l-0.025,0.08l-0.024,0.083l-0.024,0.083l-0.024,0.086l-0.023,0.089l-0.024,0.09l-0.023,0.091l-0.024,0.09l-0.022,0.087l-0.022,0.085l-0.023,0.082l-0.022,0.079l-0.022,0.077l-0.022,0.075l-0.022,0.072l-0.021,0.069l-0.021,0.067l-0.021,0.063l-0.022,0.062l-0.02,0.059l-0.021,0.057l-0.02,0.053l-0.02,0.051l-0.02,0.049l-0.019,0.046l-0.02,0.043l-0.018,0.04l-0.019,0.038l-0.018,0.034l-0.017,0.032l-0.018,0.029l-0.015,0.026l-0.016,0.023l-0.015,0.02l-0.002,0.003l-0.003,-0.001l-0.009,-0.003l-0.009,-0.002l-0.001,-0.001l0.001,-0.01l0.002,-0.025l0.003,-0.028l0.003,-0.031l0.004,-0.034l0.003,-0.036l0.005,-0.039l0.004,-0.041l0.006,-0.044l0.005,-0.047l0.006,-0.049l0.007,-0.053l0.007,-0.054l0.007,-0.058l0.007,-0.06l0.008,-0.062l0.008,-0.065l0.009,-0.068l0.01,-0.07l0.009,-0.073l0.011,-0.076l0.01,-0.077l0.011,-0.081l0.012,-0.084l0.012,-0.086l0.012,-0.086l0.011,-0.084l0.011,-0.081l0.012,-0.079l0.011,-0.077l0.01,-0.075l0.011,-0.072l0.01,-0.069l0.009,-0.068l0.01,-0.066l0.009,-0.062l0.009,-0.06l0.009,-0.059l0.008,-0.055l0.009,-0.054l0.008,-0.052l0.007,-0.048l0.008,-0.047l0.007,-0.044l0.007,-0.041l0.007,-0.04l0.005,-0.037l0.006,-0.035l0.006,-0.032l0.006,-0.029l0.005,-0.028l0.005,-0.025l0.004,-0.022l0.004,-0.02l0.004,-0.017l0.003,-0.013l0.003,-0.011l0.001,-0.004l0.018,-0.073l0.018,-0.073l0.018,-0.071l0.017,-0.07l0.018,-0.069l0.017,-0.067l0.017,-0.066l0.016,-0.065l0.017,-0.063l0.017,-0.063l0.015,-0.061l0.016,-0.06l0.016,-0.059l0.015,-0.058l0.016,-0.056l0.015,-0.055l0.015,-0.054l0.015,-0.052l0.014,-0.052l0.015,-0.05l0.014,-0.049l0.014,-0.048l0.014,-0.046l0.013,-0.046l0.013,-0.043l0.013,-0.043l0.014,-0.042l0.012,-0.04l0.012,-0.039l0.013,-0.038l0.012,-0.036l0.012,-0.035l0.013,-0.04l-0.005,-0.042l-0.003,-0.037l-0.003,-0.038l-0.001,-0.036l-0.001,-0.036l0.001,-0.036l0.002,-0.037l0.004,-0.035l0.004,-0.035l0.005,-0.036l0.006,-0.034l0.008,-0.035l0.009,-0.034l0.009,-0.034l0.011,-0.034l0.013,-0.034l0.012,-0.033l0.015,-0.034l0.016,-0.034l0.017,-0.033l0.017,-0.033l0.019,-0.034l0.02,-0.033l0.022,-0.033l0.023,-0.033l0.024,-0.033l0.026,-0.033l0.026,-0.033l0.028,-0.033l0.03,-0.033l0.031,-0.032l0.031,-0.033l0.034,-0.032l0.044,-0.043l0.011,-0.06l0.002,-0.016l0.002,-0.015l0.001,-0.013l0,-0.015l0,-0.012l-0.001,-0.014l-0.001,-0.013l-0.001,-0.012l-0.002,-0.013l-0.002,-0.012l-0.003,-0.014l-0.002,-0.011l-0.003,-0.013l-0.003,-0.013l-0.003,-0.012l-0.004,-0.013l-0.003,-0.012l-0.005,-0.014l-0.003,-0.012l-0.005,-0.015l-0.005,-0.014l-0.005,-0.013l-0.005,-0.014l-0.005,-0.013l-0.006,-0.015l-0.005,-0.014l-0.007,-0.016l-0.006,-0.015l-0.006,-0.015l-0.007,-0.016l-0.006,-0.016l-0.008,-0.016l-0.029,-0.064l-0.063,-0.03l-0.051,-0.024l-0.049,-0.023l-0.05,-0.022l-0.05,-0.02l-0.049,-0.02l-0.049,-0.019l-0.047,-0.017l-0.048,-0.017l-0.047,-0.015l-0.047,-0.015l-0.046,-0.014l-0.046,-0.012l-0.046,-0.012l-0.045,-0.01l-0.046,-0.01l-0.044,-0.007l-0.044,-0.008l-0.044,-0.006l-0.044,-0.005l-0.043,-0.004l-0.043,-0.002l-0.041,-0.002l-0.043,-0.001l-0.041,0.001l-0.041,0.002l-0.041,0.003l-0.041,0.004l-0.04,0.005l-0.04,0.007l-0.038,0.008l-0.04,0.009l-0.038,0.009l-0.058,0.019l-0.056,0.021l-0.054,0.025l-0.054,0.028l-0.05,0.031l-0.05,0.034l-0.047,0.037l-0.045,0.04l-0.043,0.042l-0.041,0.046l-0.038,0.048l-0.037,0.05l-0.035,0.053l-0.032,0.054l-0.03,0.058l-0.028,0.06l-0.027,0.062l-0.024,0.064l-0.022,0.067l-0.021,0.068l-0.019,0.07l-0.018,0.074l-0.015,0.075l-0.014,0.077l-0.012,0.08l-0.011,0.082l-0.009,0.084l-0.007,0.087l-0.006,0.089l-0.004,0.09l-0.003,0.093l-0.001,0.096l0,0.015l0,0.016l-0.001,0.019l-0.001,0.02l-0.001,0.02l-0.001,0.022l-0.002,0.024l-0.002,0.024l-0.003,0.026l-0.002,0.028l-0.003,0.028l-0.003,0.03l-0.004,0.03l-0.004,0.033l-0.004,0.032l-0.004,0.036l-0.004,0.035l-0.005,0.037l-0.006,0.038l-0.005,0.039l-0.006,0.042l-0.006,0.041l-0.006,0.043l-0.007,0.044l-0.007,0.045l-0.007,0.046l-0.008,0.048l-0.008,0.05l-0.008,0.049l-0.008,0.051l-0.009,0.053l-0.008,0.054l-0.001,0l-0.019,0.118l0.012,-0.071l-0.007,0.044l-0.006,0.045l-0.006,0.044l-0.005,0.044l-0.005,0.043l-0.004,0.044l-0.003,0.043l-0.003,0.041l-0.003,0.042l-0.002,0.043l-0.002,0.039l-0.001,0.042l-0.001,0.04l0,0.04l0.001,0.039l0,0.04l0.002,0.038l0.002,0.039l0.002,0.038l0.004,0.038l0.003,0.037l0.004,0.037l0.005,0.036l0.005,0.036l0.006,0.036l0.006,0.035l0.007,0.036l0.008,0.034l0.008,0.034l0.007,0.027l-0.004,0.034l-0.004,0.035l-0.005,0.034l-0.005,0.032l-0.004,0.033l-0.005,0.032l-0.004,0.031l-0.005,0.031l-0.004,0.03l-0.005,0.03l-0.004,0.029l-0.005,0.029l-0.004,0.027l-0.005,0.029l-0.004,0.026l-0.004,0.026l-0.005,0.026l-0.004,0.025l-0.005,0.025l-0.005,0.024l-0.004,0.023l-0.005,0.023l-0.003,0.023l-0.005,0.021l-0.004,0.021l-0.005,0.021l-0.004,0.02l-0.004,0.019l-0.005,0.02l-0.004,0.018l-0.004,0.018l-0.01,0.039l0.008,0.039l0.198,1.1l-0.006,0.058l-0.008,0.083l-0.008,0.08l-0.007,0.08l-0.008,0.078l-0.007,0.076l-0.007,0.076l-0.007,0.075l-0.006,0.072l-0.007,0.072l-0.006,0.07l-0.007,0.069l-0.006,0.069l-0.005,0.066l-0.006,0.065l-0.005,0.064l-0.006,0.064l-0.005,0.061l-0.005,0.06l-0.005,0.059l-0.004,0.058l-0.005,0.056l-0.004,0.055l-0.004,0.055l-0.004,0.052l-0.004,0.051l-0.004,0.05l-0.003,0.05l-0.003,0.047l-0.003,0.046l-0.003,0.045l-0.003,0.044l-0.002,0.034l0.008,0.029l0.005,0.016l0.004,0.018l0.004,0.019l0.002,0.021l0.003,0.022l0.002,0.023l0.002,0.026l0.001,0.026l0,0.029l0,0.029l-0.001,0.031l-0.001,0.033l-0.003,0.034l-0.003,0.035l-0.004,0.036l-0.004,0.037l-0.005,0.04l-0.006,0.04l-0.006,0.041l-0.007,0.042l-0.008,0.045l-0.009,0.045l-0.009,0.046l-0.01,0.048l-0.01,0.049l-0.012,0.05l-0.012,0.051l-0.013,0.053l-0.014,0.053l-0.014,0.055l-0.015,0.056l-0.016,0.058l-0.017,0.066l-0.018,0.072l-0.017,0.076l-0.016,0.081l-0.017,0.084l-0.016,0.089l-0.016,0.091l-0.015,0.094l-0.015,0.097l-0.014,0.099l-0.014,0.101l-0.014,0.101l-0.012,0.102l-0.012,0.102l-0.011,0.102l-0.011,0.101l-0.01,0.1l-0.009,0.098l-0.008,0.096l-0.008,0.094l-0.006,0.09l-0.005,0.088l-0.004,0.083l-0.004,0.079l-0.002,0.075l-0.001,0.07l0.001,0.064l0.002,0.06l0.004,0.055l0.005,0.051l0.009,0.049l0.017,0.053l0.025,0.061l0.059,0.033l0.031,0.017l0.032,0.017l0.032,0.016l0.032,0.015l0.031,0.015l0.031,0.014l0.031,0.013l0.031,0.012l0.032,0.013l0.03,0.011l0.03,0.01l0.031,0.01l0.03,0.01l0.031,0.008l0.029,0.009l0.03,0.007l0.03,0.008l0.029,0.007l0.03,0.005l0.029,0.006l0.029,0.005l0.028,0.004l0.029,0.004l0.028,0.004l0.029,0.003l0.027,0.003l0.028,0.002l0.027,0.002l0.028,0.001l0.027,0.001l0.027,0.001l0.026,0l0.058,0.001l0.058,0.001l0.056,0l0.053,0.001l0.053,0.001l0.05,0.001l0.048,0.001l0.048,0.001l0.046,0.001l0.044,0.001l0.042,0.001l0.041,0.002l0.039,0.001l0.038,0.001l0.036,0.001l0.034,0l0.033,0.001l0.031,0.001l0.03,0.001l0.028,0l0.027,0.001l0.025,0l0.024,0l0.023,0l0.02,0l0.021,0l0.02,-0.002l0.018,0l0.017,-0.002l0.02,-0.002l0.019,-0.004l0.023,-0.005l0.043,-0.012l0.034,-0.031l0.013,-0.013l0.013,-0.013l0.012,-0.013l0.012,-0.015l0.011,-0.014l0.011,-0.016l0.009,-0.015l0.009,-0.016l0.008,-0.015l0.009,-0.017l0.007,-0.016l0.007,-0.017l0.006,-0.017l0.005,-0.018l0.005,-0.017l0.005,-0.017l0.003,-0.019l0.003,-0.017l0.003,-0.018l0.003,-0.018l0.002,-0.018l0.001,-0.019l0.001,-0.017l0,-0.019l0,-0.018l0,-0.019l0,-0.018l-0.001,-0.02l-0.002,-0.019l-0.002,-0.019l-0.002,-0.02l-0.003,-0.02l-0.005,-0.041l-0.015,-0.024l-0.001,-0.002l-0.005,-0.02l-0.004,-0.03l-0.006,-0.039l-0.005,-0.045l-0.004,-0.05l-0.005,-0.056l-0.004,-0.06l-0.003,-0.064l-0.003,-0.068l-0.002,-0.07l-0.002,-0.072l-0.002,-0.074l-0.001,-0.075l-0.001,-0.075l-0.001,-0.076l-0.001,-0.076l0,-0.075l0,-0.074l0.001,-0.072l0,-0.07l0,-0.067l0.001,-0.064l0.001,-0.061l0,-0.056l0.001,-0.052l0.001,-0.047l0.001,-0.042l0,-0.035l0.001,-0.029l0.001,-0.023l0.001,-0.06l0.002,-0.058l0.002,-0.058l0.002,-0.057l0.003,-0.056l0.002,-0.056l0.003,-0.054l0.002,-0.053l0.003,-0.053l0.003,-0.052l0.002,-0.051l0.003,-0.05l0.003,-0.049l0.002,-0.049l0.003,-0.047l0.002,-0.047l0.003,-0.046l0.002,-0.045l0.002,-0.044l0.003,-0.044l0.002,-0.042l0.001,-0.041l0.001,-0.042l0.002,-0.04l0.001,-0.04l0,-0.038l0.001,-0.038l0,-0.038l0,-0.037l-0.001,-0.036l-0.001,-0.035l-0.001,-0.015l0.022,-0.14l0.026,-0.156l0.028,-0.155l0.029,-0.154l0.032,-0.154l0.034,-0.153l0.036,-0.152l0.037,-0.151l0.039,-0.149l0.042,-0.15l0.043,-0.149l0.045,-0.147l0.047,-0.147l0.048,-0.146l0.051,-0.146l0.053,-0.144l0.054,-0.143l0.057,-0.143l0.058,-0.142l0.06,-0.141l0.062,-0.14l0.065,-0.14l0.065,-0.139l0.068,-0.137l0.07,-0.137l0.072,-0.136l0.074,-0.136l0.075,-0.134l0.077,-0.134l0.08,-0.133l0.081,-0.132l0.083,-0.131l0.012,-0.019l0.007,-0.021l0.007,-0.019l0.007,-0.019l0.007,-0.02l0.008,-0.021l0.007,-0.021l0.008,-0.021l0.008,-0.021l0.008,-0.022l0.007,-0.023l0.009,-0.023l0.008,-0.023l0.009,-0.024l0.009,-0.024l0.009,-0.024l0.009,-0.025l0.009,-0.025l0.009,-0.026l0.01,-0.026l0.01,-0.026l0.01,-0.027l0.01,-0.028l0.01,-0.027l0.011,-0.028l0.01,-0.029l0.011,-0.029l0.011,-0.028l0.011,-0.03l0.011,-0.03l0.011,-0.03l0.012,-0.031l0.011,-0.031l0.012,-0.032l0.011,-0.028l0.011,-0.029l0.012,-0.026l0.011,-0.026l0.012,-0.026l0.011,-0.024l0.011,-0.023l0.012,-0.022l0.012,-0.021l0.012,-0.02l0.011,-0.02l0.012,-0.019l0.012,-0.017l0.012,-0.017l0.011,-0.016l0.012,-0.014l0.012,-0.015l0.011,-0.012l0.011,-0.012l0.012,-0.011l0.012,-0.011l0.008,-0.007l0.006,0.009l0.007,0.009l0.007,0.01l0.006,0.01l0.006,0.009l0.006,0.01l0.006,0.008l0.004,0.008l0.005,0.008l0.005,0.008l0.004,0.007l0.003,0.006l0.004,0.007l0.003,0.005l0.003,0.006l0.002,0.006l0.002,0.004l0,0.001l0.001,0.016l0.003,0.046l0.003,0.046l0.006,0.095l0.004,0.049l0.004,0.049l0.003,0.051l0.004,0.05l0.009,0.105l0.005,0.055l0.004,0.054l0.005,0.056l0.005,0.055l0.005,0.057l0.006,0.058l0.005,0.059l0.006,0.059l0.005,0.061l0.006,0.061l0.006,0.061l0.007,0.064l0.006,0.063l0.007,0.065l0.006,0.065l0.007,0.066l0.007,0.067l0.008,0.068l0.007,0.069l0.008,0.069l0.007,0.071l0.009,0.071l0.008,0.071l0.008,0.072l0.009,0.072l0.008,0.072l0.01,0.072l0.009,0.073l0.009,0.072l0.01,0.073l0.01,0.073l0.01,0.073l0.011,0.074l0.01,0.073l0.011,0.074l0.011,0.074l0.011,0.074l0.011,0.075l0.012,0.075l0.012,0.074l0.012,0.076l0.012,0.075l0.013,0.076l0.012,0.075l0.013,0.076l0.013,0.077l0.013,0.075l0.014,0.077l0.014,0.077l0.014,0.077l0.014,0.077l0.015,0.077l0.011,0.063l0.002,0.048l0.003,0.057l0.002,0.055l0.002,0.054l0.002,0.051l0.002,0.049l0.001,0.047l0.002,0.045l0.001,0.042l0.001,0.041l0.002,0.038l0.001,0.037l0.001,0.033l0,0.032l0.001,0.029l0,0.028l0,0.025l0.001,0.023l0,0.02l0,0.018l-0.007,0.126l0.292,1.022l0.021,0.075l0.07,0.039l0.188,0.105l0.058,0.032l0.063,-0.01l0.02,-0.004l0.019,-0.003l0.019,-0.003l0.019,-0.003l0.02,-0.003l0.019,-0.004l0.018,-0.003l0.019,-0.003l0.02,-0.004l0.018,-0.003l0.019,-0.004l0.018,-0.004l0.019,-0.003l0.018,-0.004l0.018,-0.004l0.019,-0.004l0.018,-0.004l0.017,-0.004l0.019,-0.003l0.018,-0.005l0.017,-0.004l0.018,-0.004l0.018,-0.005l0.017,-0.004l0.018,-0.004l0.017,-0.005l0.017,-0.004l0.017,-0.005l0.018,-0.005l0.016,-0.004l0.017,-0.004l0.017,-0.005l0.02,-0.006l0.018,-0.005l0.018,-0.005l0.019,-0.006l0.018,-0.006l0.018,-0.006l0.018,-0.005l0.018,-0.005l0.018,-0.007l0.017,-0.005l0.017,-0.007l0.018,-0.005l0.017,-0.006l0.016,-0.006l0.018,-0.005l0.017,-0.007l0.016,-0.005l0.016,-0.007l0.017,-0.006l0.015,-0.006l0.016,-0.006l0.016,-0.007l0.015,-0.006l0.016,-0.006l0.015,-0.007l0.016,-0.006l0.015,-0.006l0.014,-0.007l0.015,-0.007l0.015,-0.007l0.014,-0.006l0.015,-0.007l0.087,-0.041l0.018,-0.096l0.014,-0.072l0.013,-0.072l0.013,-0.07l0.013,-0.07l0.012,-0.067l0.012,-0.067l0.012,-0.066l0.012,-0.065l0.011,-0.063l0.011,-0.062l0.011,-0.061l0.01,-0.06l0.01,-0.059l0.01,-0.058l0.01,-0.056l0.009,-0.056l0.01,-0.053l0.009,-0.053l0.008,-0.052l0.008,-0.051l0.008,-0.05l0.008,-0.048l0.007,-0.048l0.007,-0.046l0.007,-0.044l0.006,-0.045l0.006,-0.042l0.006,-0.042l0.006,-0.04l0.005,-0.04l0.005,-0.038l0.003,-0.022l0.046,-0.159l0.051,-0.169l0.052,-0.167l0.054,-0.165l0.056,-0.164l0.058,-0.161l0.059,-0.159l0.061,-0.157l0.063,-0.155l0.064,-0.154l0.066,-0.151l0.067,-0.149l0.07,-0.147l0.071,-0.145l0.073,-0.144l0.074,-0.141l0.075,-0.139l0.078,-0.137l0.08,-0.136l0.081,-0.133l0.082,-0.131l0.085,-0.129l0.085,-0.127l0.088,-0.126l0.09,-0.123l0.09,-0.122l0.093,-0.119l0.094,-0.118l0.096,-0.116l0.098,-0.113l0.099,-0.112l0.008,-0.009l0.094,0.043l0.01,0.102l0.011,0.101l0.01,0.098l0.01,0.095l0.01,0.094l0.009,0.09l0.009,0.087l0.009,0.084l0.009,0.081l0.008,0.079l0.008,0.077l0.008,0.072l0.008,0.071l0.007,0.068l0.007,0.065l0.007,0.062l0.007,0.059l0.007,0.057l0.006,0.054l0.006,0.051l0.005,0.049l0.006,0.045l0.005,0.043l0.005,0.04l0.004,0.038l0.004,0.034l0.004,0.032l0.004,0.029l0.004,0.028l0.004,0.024l0.003,0.021l-0.001,-0.007l0.004,0.032l0.005,0.033l0.004,0.035l0.006,0.036l0.006,0.037l0.007,0.039l0.007,0.04l0.008,0.041l0.009,0.043l0.008,0.045l0.011,0.046l0.01,0.047l0.01,0.048l0.012,0.05l0.012,0.052l0.012,0.053l0.013,0.055l0.015,0.056l0.014,0.058l0.014,0.059l0.016,0.061l0.016,0.061l0.017,0.064l0.017,0.065l0.018,0.067l0.018,0.068l0.02,0.069l0.019,0.072l0.02,0.072l0.021,0.074l0.021,0.076l0.022,0.077l0.012,0.039l0.015,0.038l0.016,0.038l0.019,0.038l0.02,0.039l0.023,0.04l0.024,0.04l0.026,0.04l0.029,0.042l0.03,0.043l0.033,0.043l0.034,0.044l0.037,0.045l0.038,0.047l0.04,0.048l0.043,0.048l0.044,0.049l0.047,0.051l0.048,0.052l0.051,0.053l0.052,0.053l0.055,0.056l0.057,0.057l0.059,0.057l0.06,0.059l0.064,0.06l0.065,0.061l0.067,0.063l0.069,0.063l0.072,0.065l0.073,0.065l0.076,0.068l0.075,0.067l0.097,-0.025l0.076,-0.019l0.074,-0.019l0.07,-0.018l0.066,-0.016l0.063,-0.016l0.06,-0.014l0.056,-0.014l0.053,-0.012l0.05,-0.012l0.046,-0.011l0.043,-0.01l0.04,-0.009l0.037,-0.008l0.033,-0.006l0.028,-0.007l0.026,-0.005l0.009,-0.001l0.015,0.034l0.027,-0.01l0.024,-0.01l0.023,-0.009l0.02,-0.009l0.019,-0.01l0.024,-0.013l0.032,-0.026l0.034,-0.059l0.006,-0.005l0.018,-0.019l0.018,-0.02l0.018,-0.02l0.018,-0.021l0.017,-0.022l0.019,-0.022l0.018,-0.024l0.018,-0.024l0.019,-0.025l0.018,-0.026l0.018,-0.027l0.019,-0.027l0.019,-0.028l0.019,-0.029l0.019,-0.03l0.019,-0.031l0.019,-0.031l0.02,-0.033l0.019,-0.033l0.02,-0.034l0.02,-0.035l0.001,-0.001l0.001,-0.001l0.035,-0.027l0.035,-0.028l0.034,-0.029l0.035,-0.03l0.034,-0.03l0.033,-0.031l0.035,-0.032l0.033,-0.033l0.034,-0.032l0.033,-0.035l0.033,-0.035l0.033,-0.035l0.033,-0.037l0.033,-0.037l0.032,-0.039l0.033,-0.038l0.032,-0.04l0.031,-0.04l0.032,-0.041l0.032,-0.041l0.032,-0.043l0.031,-0.043l0.031,-0.044l0.031,-0.045l0.031,-0.046l0.031,-0.046l0.03,-0.047l0.031,-0.048l0.031,-0.049l0.03,-0.049l0.03,-0.05l0.029,-0.049l0.029,-0.048l0.028,-0.049l0.029,-0.047l0.027,-0.048l0.027,-0.047l0.027,-0.046l0.026,-0.046l0.027,-0.046l0.026,-0.045l0.025,-0.044l0.025,-0.044l0.025,-0.044l0.025,-0.044l0.024,-0.042l0.023,-0.042l0.023,-0.043l0.023,-0.041l0.023,-0.041l0.022,-0.041l0.022,-0.04l0.021,-0.04l0.021,-0.04l0.021,-0.038l0.02,-0.039l0.02,-0.037l0.019,-0.038l0.005,0.017l0.032,0.119l0.015,0.047l0.014,0.049l0.015,0.047l0.016,0.047l0.017,0.047l0.017,0.046l0.019,0.046l0.018,0.046l0.019,0.046l0.021,0.044l0.02,0.045l0.021,0.045l0.022,0.044l0.022,0.043l0.023,0.044l0.024,0.043l0.024,0.043l0.025,0.042l0.026,0.042l0.026,0.041l0.027,0.043l0.027,0.04l0.028,0.04l0.029,0.041l0.03,0.04l0.029,0.039l0.032,0.04l0.03,0.038l0.032,0.038l0.033,0.039l0.033,0.037l0.034,0.038l0.036,0.039l0.051,0.015l0.074,0.021l0.072,0.021l0.071,0.019l0.069,0.018l0.069,0.017l0.068,0.017l0.066,0.015l0.065,0.015l0.064,0.013l0.062,0.013l0.062,0.012l0.06,0.01l0.059,0.01l0.058,0.009l0.057,0.008l0.056,0.007l0.055,0.005l0.053,0.005l0.052,0.004l0.052,0.003l0.049,0.002l0.049,0.001l0.048,0l0.048,-0.001l0.046,-0.003l0.045,-0.003l0.044,-0.005l0.044,-0.005l0.041,-0.006l0.042,-0.008l0.04,-0.01l0.04,-0.01l0.015,-0.005l0.016,-0.005l0.012,-0.006l0.014,-0.006l0.014,-0.006l0.014,-0.006l0.015,-0.008l0.014,-0.008l0.016,-0.007l0.016,-0.009l0.016,-0.009l0.017,-0.01l0.017,-0.01l0.018,-0.011l0.019,-0.011l0.02,-0.012l0.021,-0.013l0.02,-0.012l0.021,-0.014l0.022,-0.014l0.024,-0.015l0.022,-0.014l0.025,-0.017l0.026,-0.016l0.026,-0.017l0.026,-0.018l0.027,-0.018l0.028,-0.018l0.028,-0.019l0.03,-0.021l0.03,-0.02l0.031,-0.021l0.031,-0.021l0.029,-0.02l0.029,-0.02l0.029,-0.02l0.028,-0.018l0.026,-0.018l0.027,-0.019l0.025,-0.017l0.025,-0.016l0.024,-0.017l0.024,-0.015l0.022,-0.016l0.022,-0.015l0.022,-0.013l0.021,-0.014l0.02,-0.013l0.018,-0.013l0.019,-0.012l0.017,-0.011l0.017,-0.012l0.016,-0.01l0.016,-0.01l0.014,-0.01l0.014,-0.008l0.014,-0.009l0.012,-0.007l0.012,-0.008l0.011,-0.007l0.01,-0.006l0.009,-0.006l0.008,-0.004l0.007,-0.004l0.05,-0.029l0.025,-0.05l0.021,-0.041l0.02,-0.039l0.02,-0.038l0.019,-0.038l0.02,-0.038l0.018,-0.037l0.019,-0.036l0.019,-0.036l0.018,-0.035l0.018,-0.035l0.016,-0.033l0.018,-0.033l0.017,-0.033l0.016,-0.031l0.017,-0.032l0.016,-0.03l0.016,-0.031l0.015,-0.029l0.015,-0.028l0.015,-0.028l0.014,-0.028l0.015,-0.026l0.014,-0.027l0.014,-0.026l0.013,-0.024l0.014,-0.025l0.012,-0.024l0.012,-0.022l0.013,-0.023l0.012,-0.022l0.011,-0.021l0.011,-0.021l2.027,-3.645l0.001,0.004l0.017,0.05l0.015,0.05l0.016,0.049l0.015,0.048l0.014,0.047l0.015,0.047l0.014,0.045l0.013,0.046l0.013,0.044l0.013,0.044l0.013,0.042l0.011,0.042l0.012,0.041l0.012,0.041l0.011,0.039l0.01,0.04l0.01,0.037l0.011,0.038l0.008,0.036l0.01,0.036l0.009,0.035l0.008,0.035l0.008,0.033l0.008,0.033l0.007,0.032l0.007,0.03l0.006,0.031l0.006,0.029l0.016,0.078l0.066,0.044l0.054,0.035l0.055,0.036l0.053,0.034l0.052,0.033l0.051,0.032l0.051,0.031l0.049,0.031l0.049,0.029l0.047,0.027l0.047,0.028l0.045,0.026l0.045,0.025l0.045,0.024l0.043,0.023l0.041,0.022l0.041,0.021l0.041,0.021l0.04,0.019l0.038,0.018l0.038,0.017l0.037,0.017l0.036,0.015l0.036,0.015l0.035,0.012l0.034,0.013l0.032,0.011l0.034,0.011l0.032,0.008l0.032,0.009l0.031,0.007l0.03,0.006l0.031,0.004l-0.008,-0.001l0.02,0.003l0.021,0.003l0.021,0.001l0.02,0l0.02,0.001l0.022,-0.001l0.021,-0.001l0.022,-0.002l0.023,-0.002l0.023,-0.003l0.024,-0.003l0.024,-0.003l0.026,-0.005l0.026,-0.004l0.027,-0.005l0.029,-0.005l0.029,-0.006l0.03,-0.006l0.031,-0.007l0.031,-0.006l0.033,-0.008l0.033,-0.008l0.036,-0.009l0.035,-0.008l0.036,-0.009l0.038,-0.011l0.038,-0.009l0.04,-0.011l0.041,-0.011l0.041,-0.012l0.042,-0.011l0.044,-0.012l0.051,-0.015l0.051,-0.016l0.049,-0.016l0.05,-0.015l0.048,-0.015l0.047,-0.017l0.047,-0.016l0.046,-0.017l0.045,-0.017l0.044,-0.018l0.043,-0.017l0.043,-0.017l0.042,-0.018l0.042,-0.019l0.04,-0.019l0.04,-0.018l0.038,-0.02l0.039,-0.02l0.036,-0.02l0.037,-0.02l0.036,-0.02l0.035,-0.02l0.034,-0.022l0.033,-0.021l0.033,-0.022l0.032,-0.022l0.031,-0.022l0.03,-0.023l0.03,-0.023l0.029,-0.024l0.027,-0.024l0.027,-0.024l0.055,-0.05l0.053,-0.048l0.053,-0.048l0.051,-0.046l0.052,-0.046l0.051,-0.045l0.049,-0.043l0.05,-0.044l0.048,-0.042l0.048,-0.041l0.048,-0.041l0.046,-0.039l0.045,-0.039l0.045,-0.038l0.045,-0.037l0.044,-0.035l0.043,-0.035l0.042,-0.034l0.042,-0.034l0.04,-0.032l0.041,-0.032l0.039,-0.03l0.039,-0.029l0.038,-0.029l0.037,-0.028l0.037,-0.027l0.036,-0.026l0.035,-0.025l0.034,-0.024l0.033,-0.023l0.033,-0.022l0.033,-0.021l0.038,-0.025l0.024,-0.042l0.037,-0.067l0.037,-0.065l0.036,-0.064l0.036,-0.063l0.035,-0.061l0.034,-0.06l0.035,-0.06l0.034,-0.058l0.033,-0.056l0.154,-0.118l0.167,-0.167l0.003,0.004l0.009,-0.018l0.01,-0.022l0.008,-0.012l0.007,-0.014l0.008,-0.015l0.009,-0.016l0.009,-0.016l0.01,-0.018l0.011,-0.018l0.011,-0.019l0.012,-0.021l0.013,-0.021l0.014,-0.022l0.013,-0.024l0.015,-0.023l0.015,-0.026l0.016,-0.026l0.015,-0.026l0.017,-0.028l0.018,-0.028l0.018,-0.029l0,0l0.004,-0.008l0.179,-0.322l0.029,-0.044l0.029,-0.046l0.029,-0.046l0.028,-0.043l0.027,-0.043l0.026,-0.04l0.025,-0.04l0.025,-0.038l0.024,-0.038l0.023,-0.034l0.022,-0.035l0.021,-0.032l0.021,-0.033l0.02,-0.03l0.019,-0.03l0.019,-0.027l0.017,-0.027l0.017,-0.025l0.016,-0.023l0.015,-0.022l0.014,-0.021l0.013,-0.02l0.013,-0.019l0.011,-0.016l0.012,-0.016l0.01,-0.014l0.009,-0.013l0.007,-0.01l0.008,-0.01l0.006,-0.008l0.003,-0.005l0.004,-0.004l0.021,-0.025l0.012,-0.03l0.038,-0.098l0.038,-0.095l0.037,-0.094l0.039,-0.092l0.038,-0.091l0.038,-0.088l0.038,-0.086l0.038,-0.085l0.039,-0.082l0.038,-0.081l0.039,-0.079l0.039,-0.077l0.039,-0.075l0.039,-0.074l0.039,-0.071l0.039,-0.07l0.039,-0.067l0.039,-0.066l0.039,-0.064l0.04,-0.062l0.04,-0.061l0.038,-0.059l0.04,-0.055l0.04,-0.055l0.039,-0.053l0.04,-0.05l0.039,-0.049l0.039,-0.047l0.04,-0.046l0.009,-0.01l0.006,0.025l0.014,0.052l0.012,0.053l0.013,0.05l0.012,0.05l0.012,0.049l0.012,0.049l0.012,0.046l0.011,0.047l0.012,0.045l0.011,0.045l0.011,0.044l0.011,0.043l0.01,0.042l0.011,0.041l0.01,0.04l0.011,0.04l0.01,0.038l0.01,0.038l0.009,0.037l0.01,0.036l0.009,0.035l0.009,0.034l0.009,0.034l0.01,0.032l0.008,0.032l0.009,0.031l0.008,0.03l0.008,0.029l0.005,0.018l0.006,0.035l0.008,0.044l0.007,0.042l0.008,0.043l0.007,0.041l0.007,0.041l0.007,0.039l0.007,0.04l0.006,0.038l0.007,0.038l0.007,0.037l0.006,0.036l0.006,0.036l0.006,0.034l0.006,0.034l0.006,0.034l0.005,0.032l0.006,0.032l0.005,0.03l0.005,0.031l0.005,0.029l0.005,0.029l0.005,0.028l0.005,0.028l0.005,0.027l0.004,0.025l0.004,0.026l0.004,0.024l0.004,0.024l0.004,0.023l0.004,0.021l0.004,0.022l0.009,0.052l0.035,0.041l0.021,0.025l0.02,0.025l0.02,0.023l0.02,0.023l0.019,0.023l0.018,0.023l0.017,0.022l0.017,0.021l0.017,0.021l0.015,0.02l0.016,0.021l0.014,0.019l0.014,0.018l0.013,0.019l0.013,0.018l0.012,0.017l0.011,0.017l0.01,0.016l0.01,0.016l0.009,0.014l0.009,0.014l0.008,0.014l0.007,0.013l0.007,0.012l0.006,0.012l0.006,0.012l0.004,0.009l0.004,0.009l0.003,0.008l0.003,0.007l0.002,0.006l0.002,0.006l0.003,0.012l0.003,0.013l0.003,0.013l0.001,0.014l0.001,0.014l0.001,0.014l0,0.015l-0.001,0.017l-0.001,0.016l-0.002,0.017l-0.003,0.017l-0.003,0.019l-0.005,0.019l-0.004,0.019l-0.006,0.019l-0.007,0.022l-0.007,0.021l-0.008,0.022l-0.009,0.022l-0.01,0.023l-0.012,0.023l-0.012,0.025l-0.012,0.024l-0.014,0.025l-0.014,0.026l-0.016,0.026l-0.016,0.026l-0.018,0.028l-0.018,0.027l-0.019,0.029l-0.02,0.028l-0.021,0.029l-0.003,0.002l-0.021,0.031l0.004,-0.006l-0.06,0.084l-0.075,0.106l-0.075,0.106l-0.072,0.103l-0.072,0.103l-0.07,0.101l-0.068,0.099l-0.068,0.098l-0.066,0.096l-0.064,0.095l-0.063,0.093l-0.061,0.092l-0.061,0.091l-0.058,0.089l-0.058,0.088l-0.056,0.086l-0.054,0.084l-0.053,0.083l-0.052,0.082l-0.05,0.08l-0.049,0.079l-0.047,0.077l-0.046,0.077l-0.045,0.074l-0.043,0.073l-0.042,0.071l-0.04,0.071l-0.04,0.068l-0.037,0.068l-0.036,0.066l-0.035,0.064l-0.021,0.04l-0.014,0.016l-0.03,0.032l-0.028,0.032l-0.029,0.031l-0.028,0.03l-0.027,0.03l-0.028,0.029l-0.026,0.029l-0.026,0.027l-0.027,0.028l-0.025,0.027l-0.026,0.026l-0.024,0.026l-0.025,0.025l-0.024,0.024l-0.023,0.024l-0.024,0.023l-0.023,0.023l-0.022,0.023l-0.022,0.02l-0.021,0.021l-0.022,0.021l-0.021,0.02l-0.02,0.019l-0.02,0.019l-0.02,0.017l-0.018,0.017l-0.019,0.017l-0.019,0.016l-0.017,0.016l-0.018,0.014l-0.017,0.015l-0.03,0.025l-0.018,0.036l-0.036,0.071l-0.034,0.068l-0.034,0.067l-0.033,0.065l-0.031,0.063l-0.031,0.061l-0.029,0.058l-0.029,0.057l-0.027,0.054l-0.027,0.053l-0.025,0.049l-0.024,0.049l-0.024,0.047l-0.022,0.044l-0.02,0.041l-0.021,0.04l-0.019,0.038l-0.018,0.036l-0.017,0.033l-0.016,0.032l-0.016,0.03l-0.014,0.027l-0.013,0.026l-0.012,0.023l-0.011,0.021l-0.009,0.019l-0.009,0.017l-0.008,0.015l-0.007,0.012l-0.005,0.011l-0.004,0.007l-0.003,0.005l-0.015,0.027l-0.006,0.031l-0.006,0.036l-0.007,0.035l-0.007,0.035l-0.006,0.035l-0.007,0.033l-0.006,0.034l-0.007,0.032l-0.006,0.033l-0.006,0.031l-0.006,0.031l-0.006,0.031l-0.006,0.029l-0.006,0.029l-0.006,0.029l-0.005,0.028l-0.006,0.028l-0.006,0.026l-0.005,0.027l-0.006,0.026l-0.005,0.025l-0.006,0.025l-0.005,0.024l-0.005,0.024l-0.005,0.022l-0.005,0.023l-0.005,0.022l-0.005,0.021l-0.005,0.02l-0.004,0.02l-0.002,0.006l-0.016,0.017l-0.025,0.026l-0.025,0.025l-0.024,0.025l-0.025,0.024l-0.023,0.025l-0.023,0.023l-0.023,0.023l-0.022,0.022l-0.021,0.022l-0.022,0.021l-0.021,0.02l-0.019,0.021l-0.021,0.02l-0.019,0.018l-0.019,0.019l-0.018,0.018l-0.018,0.018l-0.017,0.017l-0.017,0.016l-0.016,0.016l-0.016,0.016l-0.015,0.014l-0.016,0.015l-0.014,0.014l-0.014,0.013l-0.013,0.012l-0.013,0.013l-0.013,0.012l-0.012,0.011l-0.011,0.01l-0.038,0.035l-0.016,0.049l-0.021,0.069l-0.022,0.068l-0.023,0.068l-0.022,0.067l-0.023,0.066l-0.023,0.066l-0.023,0.065l-0.025,0.065l-0.023,0.064l-0.025,0.063l-0.025,0.063l-0.024,0.063l-0.027,0.061l-0.025,0.061l-0.026,0.06l-0.026,0.06l-0.027,0.059l-0.027,0.058l-0.027,0.058l-0.027,0.057l-0.028,0.057l-0.028,0.056l-0.029,0.055l-0.028,0.055l-0.029,0.054l-0.029,0.054l-0.03,0.053l-0.03,0.052l-0.031,0.052l-0.03,0.051l-0.031,0.05l-0.031,0.05l0.004,-0.005l-0.021,0.03l-0.02,0.029l-0.02,0.03l-0.02,0.028l-0.018,0.028l-0.018,0.026l-0.018,0.027l-0.018,0.025l-0.017,0.025l-0.017,0.024l-0.017,0.024l-0.015,0.022l-0.016,0.022l-0.015,0.022l-0.014,0.021l-0.014,0.02l-0.014,0.02l-0.013,0.019l-0.013,0.018l-0.012,0.017l-0.012,0.017l-0.012,0.016l-0.011,0.015l-0.011,0.016l-0.01,0.014l-0.009,0.012l-0.01,0.013l-0.008,0.013l-0.009,0.011l-0.007,0.01l-0.007,0.01l-0.008,0.009l-0.032,0.042l-0.005,0.054l-0.003,0.027l-0.002,0.026l-0.002,0.026l-0.002,0.025l-0.002,0.025l-0.002,0.025l-0.001,0.025l-0.001,0.024l-0.001,0.023l-0.001,0.024l0,0.023l-0.001,0.023l0,0.045l0,0.022l0.001,0.022l0.001,0.022l0.001,0.021l0.001,0.02l0.001,0.022l0.003,0.02l0.002,0.02l0.002,0.02l0.002,0.019l0.003,0.02l0.003,0.019l0.004,0.019l0.003,0.017l0.004,0.019l0.004,0.019l0.005,0.017l0.005,0.018l0.007,0.024l0.007,0.022l0.009,0.023l0.008,0.023l0.01,0.022l0.01,0.022l0.011,0.023l0.011,0.021l0.012,0.022l0.012,0.021l0.013,0.021l0.014,0.021l0.014,0.02l0.015,0.021l0.014,0.02l0.016,0.02l0.017,0.02l0.016,0.019l0.017,0.019l0.018,0.019l0.019,0.019l0.018,0.018l0.02,0.019l0.02,0.018l0.02,0.018l0.02,0.017l0.021,0.018l0.022,0.017l0.023,0.017l0.022,0.017l0.023,0.017l0.023,0.016l0.025,0.017l0.024,0.016l0.024,0.015l0.025,0.015l0.024,0.013l0.025,0.013l0.024,0.013l0.025,0.012l0.025,0.011l0.024,0.012l0.025,0.009l0.025,0.01l0.025,0.009l0.025,0.007l0.025,0.007l0.025,0.007l0.025,0.006l0.026,0.005l0.026,0.004l0.024,0.003l0.025,0.003l0.027,0.001l0.023,0.001l0.026,0.001l0.025,-0.001l0.026,-0.001l0.025,-0.003l0.025,-0.003l0.025,-0.004l0.025,-0.005l0.024,-0.006l0.025,-0.006l0.021,-0.007l0.02,-0.006l0.02,-0.008l0.021,-0.008l0.019,-0.008l0.019,-0.009l0.02,-0.01l0.018,-0.01l0.02,-0.01l0.018,-0.012l0.017,-0.011l0.018,-0.012l0.018,-0.013l0.016,-0.014l0.017,-0.013l0.016,-0.014l0.015,-0.015l0.016,-0.016l0.014,-0.015l0.015,-0.016l0.014,-0.017l0.013,-0.017l0.013,-0.017l0.012,-0.018l0.013,-0.018l0.012,-0.018l0.011,-0.019l0.011,-0.02l0.011,-0.019l0.01,-0.02l0.01,-0.02l0.009,-0.021l0.02,-0.044l-0.004,-0.048l-0.001,-0.012l-0.001,-0.012l-0.001,-0.013l-0.001,-0.013l-0.001,-0.011l-0.002,-0.013l-0.001,-0.011l-0.001,-0.012l-0.002,-0.011l-0.001,-0.012l-0.001,-0.011l-0.002,-0.011l-0.002,-0.011l-0.001,-0.011l-0.001,-0.01l-0.002,-0.011l-0.002,-0.01l-0.001,-0.01l-0.002,-0.012l-0.002,-0.009l-0.002,-0.01l-0.002,-0.011l-0.002,-0.009l-0.002,-0.01l-0.002,-0.01l-0.001,-0.009l-0.003,-0.009l0,-0.001l0.004,-0.025l0.011,-0.062l0.011,-0.063l0.01,-0.061l0.011,-0.061l0.01,-0.059l0.011,-0.059l0.01,-0.057l0.01,-0.057l0.01,-0.055l0.01,-0.055l0.01,-0.054l0.009,-0.053l0.01,-0.051l0.01,-0.051l0.009,-0.05l0.009,-0.048l0.009,-0.048l0.009,-0.047l0.009,-0.046l0.009,-0.045l0.008,-0.044l0.008,-0.043l0.009,-0.042l0.008,-0.041l0.008,-0.04l0.009,-0.039l0.008,-0.038l0.008,-0.038l0.007,-0.035l0.008,-0.036l0.004,-0.017l0.016,-0.04l0.023,-0.055l0.023,-0.053l0.022,-0.053l0.021,-0.051l0.021,-0.05l0.02,-0.049l0.02,-0.048l0.02,-0.048l0.019,-0.046l0.018,-0.045l0.018,-0.044l0.018,-0.043l0.017,-0.042l0.017,-0.04l0.016,-0.04l0.016,-0.039l0.015,-0.038l0.015,-0.036l0.015,-0.036l0.014,-0.035l0.013,-0.033l0.013,-0.032l0.013,-0.032l0.012,-0.03l0.011,-0.029l0.011,-0.029l0.011,-0.027l0.011,-0.026l0.009,-0.025l0.01,-0.024l0.006,-0.016l0.038,-0.08l0.043,-0.087l0.041,-0.085l0.041,-0.082l0.039,-0.082l0.039,-0.079l0.039,-0.078l0.037,-0.077l0.037,-0.074l0.036,-0.074l0.035,-0.07l0.035,-0.07l0.034,-0.069l0.033,-0.066l0.033,-0.064l0.031,-0.064l0.031,-0.061l0.03,-0.059l0.03,-0.058l0.028,-0.056l0.029,-0.055l0.027,-0.053l0.026,-0.05l0.026,-0.05l0.025,-0.047l0.024,-0.046l0.023,-0.045l0.023,-0.042l0.022,-0.04l0.021,-0.039l0.02,-0.038l0.018,-0.032l0.009,-0.013l0.013,-0.02l0.013,-0.02l0.012,-0.02l0.013,-0.019l0.013,-0.019l0.012,-0.019l0.012,-0.019l0.012,-0.017l0.011,-0.018l0.012,-0.016l0.011,-0.017l0.011,-0.017l0.011,-0.015l0.01,-0.016l0.011,-0.015l0.009,-0.015l0.011,-0.015l0.009,-0.014l0.009,-0.013l0.01,-0.013l0.009,-0.013l0.009,-0.012l0.009,-0.013l0.007,-0.011l0.009,-0.012l0.008,-0.011l0.007,-0.01l0.008,-0.01l0.007,-0.011l0.007,-0.008l0.007,-0.009l0.016,-0.021l0.01,-0.026l0.047,-0.119l0.048,-0.119l0.05,-0.119l0.053,-0.118l0.054,-0.119l0.056,-0.118l0.057,-0.118l0.059,-0.118l0.062,-0.118l0.062,-0.118l0.065,-0.118l0.067,-0.118l0.068,-0.117l0.07,-0.118l0.072,-0.117l0.074,-0.117l0.075,-0.117l0.078,-0.117l0.079,-0.118l0.081,-0.116l0.083,-0.117l0.085,-0.116l0.086,-0.116l0.089,-0.116l0.09,-0.117l0.092,-0.116l0.094,-0.115l0.096,-0.116l0.097,-0.116l0.099,-0.115l0.067,-0.076l0.024,0.025l0.061,0.066l0.029,0.032l0.029,0.031l0.029,0.032l0.027,0.03l0.027,0.03l0.025,0.029l0.025,0.029l0.026,0.028l0.023,0.027l0.023,0.027l0.022,0.026l0.022,0.026l0.021,0.025l0.019,0.024l0.02,0.024l0.019,0.023l0.018,0.023l0.017,0.021l0.016,0.022l0.016,0.02l0.015,0.02l0.014,0.019l0.013,0.019l0.013,0.018l0,0l0.018,0.043l0.03,0.066l0.034,0.063l0.037,0.061l0.04,0.057l0.044,0.054l0.047,0.052l0.05,0.048l0.053,0.045l0.057,0.041l0.059,0.037l0.062,0.034l0.064,0.03l0.066,0.027l0.069,0.023l0.071,0.019l0.073,0.017l0.076,0.012l0.077,0.01l0.079,0.006l0.081,0.003l0.084,0l0.086,-0.003l0.087,-0.006l0.09,-0.009l0.092,-0.012l0.094,-0.014l0.096,-0.019l0.099,-0.02l0.101,-0.023l0.103,-0.026l0.106,-0.029l0.102,-0.03l0.101,-0.032l0.101,-0.032l0.1,-0.033l0.099,-0.034l0.097,-0.037l0.097,-0.036l0.095,-0.038l0.096,-0.039l0.094,-0.04l0.093,-0.042l0.091,-0.043l0.092,-0.044l0.09,-0.045l0.089,-0.046l0.089,-0.047l0.088,-0.049l0.086,-0.05l0.085,-0.051l0.085,-0.051l0.083,-0.053l0.083,-0.055l0.081,-0.056l0.082,-0.056l0.08,-0.058l0.078,-0.059l0.078,-0.06l0.077,-0.061l0.076,-0.063l0.075,-0.064l0.074,-0.064l0.054,-0.049l0.041,-0.021l0.066,-0.038l0.066,-0.042l0.066,-0.044l0.067,-0.048l0.068,-0.052l0.067,-0.054l0.069,-0.059l0.069,-0.061l0.07,-0.065l0.069,-0.069l0.072,-0.071l0.071,-0.075l0.072,-0.079l0.073,-0.081l0.073,-0.085l0.075,-0.089l0.074,-0.092l0.076,-0.095l0.076,-0.098l0.078,-0.103l0.078,-0.105l0.079,-0.109l0.079,-0.113l0.08,-0.115l0.082,-0.12l0.082,-0.122l0.082,-0.127l0.084,-0.129l0.084,-0.133l0.086,-0.137l0.083,-0.135l0.048,-0.074l0.049,-0.074l0.048,-0.071l0.046,-0.071l0.046,-0.07l0.045,-0.067l0.044,-0.067l0.043,-0.064l0.042,-0.063l0.042,-0.062l0.04,-0.059l0.039,-0.059l0.039,-0.058l0.038,-0.055l0.037,-0.054l0.036,-0.053l0.035,-0.051l0.034,-0.05l0.034,-0.048l0.032,-0.046l0.031,-0.046l0.031,-0.043l0.029,-0.043l0.029,-0.04l0.028,-0.039l0.027,-0.037l0.026,-0.036l0.025,-0.035l0.025,-0.033l0.023,-0.031l0.022,-0.03l0.022,-0.028l0.035,-0.047l0.003,-0.06l0.001,-0.015l0,-0.016l0,-0.014l0.001,-0.014l0,-0.015l0.001,-0.014l0,-0.013l0,-0.014l0,-0.014l0,-0.012l0.001,-0.013l0,-0.013l-0.001,-0.01l0,-0.013l0,-0.011l0,-0.011l0,-0.012l-0.001,-0.01l-0.001,-0.011l-0.001,-0.011l0,-0.009l-0.001,-0.01l-0.001,-0.011l-0.001,-0.009l-0.001,-0.01l-0.002,-0.01l-0.001,-0.008l-0.002,-0.011l-0.001,-0.011l-0.002,-0.007l-0.003,-0.011l-0.003,-0.01l-0.022,-0.077l-0.068,-0.037l-0.008,-0.005l-0.008,-0.004l-0.007,-0.004l-0.007,-0.004l-0.008,-0.005l-0.006,-0.004l-0.006,-0.004l-0.008,-0.004l-0.006,-0.005l-0.005,-0.002l-0.007,-0.005l-0.006,-0.004l-0.005,-0.003l-0.006,-0.004l-0.005,-0.003l-0.005,-0.004l-0.004,-0.003l-0.005,-0.003l-0.003,-0.003l-0.004,-0.003l-0.004,-0.004l-0.004,-0.002l-0.004,-0.004l-0.004,-0.002l-0.002,-0.002l-0.003,-0.003l-0.002,-0.002l-0.001,-0.001l-0.003,-0.004l-0.001,0l-0.003,-0.003l0,-0.001l-0.081,-0.087l-0.112,0.032l-0.182,0.053l-0.054,0.015l-0.038,0.044l-0.065,0.076l-0.064,0.076l-0.063,0.075l-0.062,0.076l-0.061,0.074l-0.06,0.075l-0.059,0.074l-0.058,0.074l-0.056,0.074l-0.056,0.073l-0.055,0.074l-0.053,0.073l-0.053,0.072l-0.051,0.073l-0.05,0.072l-0.049,0.072l-0.048,0.071l-0.047,0.071l-0.046,0.072l-0.046,0.07l-0.043,0.071l-0.043,0.07l-0.042,0.071l-0.04,0.069l-0.04,0.069l-0.039,0.069l-0.037,0.07l-0.037,0.068l-0.035,0.069l-0.034,0.068l-0.034,0.068l-0.019,0.039l-0.091,0.099l-0.111,0.118l-0.11,0.116l-0.108,0.113l-0.105,0.112l-0.104,0.11l-0.103,0.107l-0.101,0.105l-0.099,0.104l-0.098,0.101l-0.095,0.099l-0.095,0.097l-0.093,0.095l-0.091,0.093l-0.089,0.09l-0.088,0.089l-0.086,0.086l-0.085,0.085l-0.082,0.082l-0.082,0.08l-0.079,0.078l-0.077,0.076l-0.077,0.074l-0.074,0.071l-0.073,0.07l-0.071,0.067l-0.069,0.066l-0.068,0.063l-0.066,0.062l-0.065,0.058l-0.063,0.057l-0.04,0.037l-0.04,0.018l-0.062,0.03l-0.061,0.029l-0.059,0.028l-0.058,0.026l-0.055,0.026l-0.054,0.026l-0.053,0.024l-0.051,0.024l-0.048,0.022l-0.048,0.022l-0.045,0.021l-0.044,0.02l-0.042,0.019l-0.04,0.019l-0.039,0.016l-0.037,0.017l-0.035,0.016l-0.035,0.014l-0.031,0.014l-0.03,0.013l-0.029,0.012l-0.026,0.012l-0.024,0.009l-0.024,0.01l-0.02,0.008l-0.02,0.007l-0.017,0.007l-0.014,0.005l-0.013,0.005l-0.01,0.003l-0.008,0.002l-0.023,0.007l-0.024,0.005l-0.024,0.006l-0.024,0.006l-0.025,0.004l-0.024,0.004l-0.024,0.003l-0.025,0.004l-0.025,0.002l-0.025,0.002l-0.025,0.002l-0.026,0.001l-0.025,0l-0.027,0.001l-0.026,-0.001l-0.027,0l-0.026,-0.002l-0.028,-0.002l-0.026,-0.003l-0.027,-0.003l-0.028,-0.003l-0.027,-0.004l-0.028,-0.004l-0.028,-0.006l-0.028,-0.005l-0.029,-0.007l-0.028,-0.006l-0.03,-0.007l-0.029,-0.008l-0.029,-0.008l-0.005,-0.001l-0.02,-0.026l-0.056,-0.072l-0.054,-0.069l-0.052,-0.066l-0.05,-0.064l-0.048,-0.061l-0.046,-0.059l-0.045,-0.057l-0.042,-0.054l-0.041,-0.052l-0.039,-0.049l-0.037,-0.047l-0.036,-0.046l-0.034,-0.042l-0.031,-0.04l-0.03,-0.037l-0.028,-0.036l-0.027,-0.032l-0.024,-0.031l-0.022,-0.028l-0.022,-0.026l-0.018,-0.022l-0.018,-0.022l-0.016,-0.019l-0.014,-0.017l-0.012,-0.014l-0.003,-0.004l-0.012,-0.043l-0.012,-0.042l-0.012,-0.042l-0.012,-0.041l-0.011,-0.039l-0.009,-0.039l-0.011,-0.037l-0.009,-0.036l-0.01,-0.035l-0.009,-0.034l-0.008,-0.033l-0.008,-0.033l-0.008,-0.03l-0.008,-0.03l-0.006,-0.028l-0.007,-0.028l-0.007,-0.027l-0.006,-0.025l-0.005,-0.025l-0.005,-0.022l-0.004,-0.022l-0.005,-0.021l-0.004,-0.019l-0.003,-0.019l-0.004,-0.017l-0.002,-0.016l-0.001,-0.005l0.024,-0.045l0.054,-0.094l0.053,-0.092l0.053,-0.086l0.054,-0.085l0.052,-0.081l0.053,-0.079l0.052,-0.076l0.052,-0.073l0.052,-0.071l0.051,-0.069l0.051,-0.066l0.05,-0.064l0.05,-0.063l0.05,-0.06l0.049,-0.06l0.048,-0.057l0.048,-0.057l0.047,-0.055l0.047,-0.053l0.046,-0.053l0.045,-0.053l0.045,-0.051l0.043,-0.052l0.043,-0.05l0.042,-0.051l0.041,-0.05l0.04,-0.051l0.04,-0.051l0.038,-0.051l0.037,-0.051l0.036,-0.053l0.022,-0.033l0.024,-0.033l0.023,-0.034l0.024,-0.035l0.024,-0.035l0.025,-0.035l0.026,-0.035l0.025,-0.037l0.027,-0.036l0.027,-0.037l0.028,-0.038l0.028,-0.037l0.029,-0.039l0.029,-0.038l0.03,-0.039l0.03,-0.04l0.032,-0.039l0.032,-0.04l0.032,-0.041l0.033,-0.04l0.034,-0.041l0.035,-0.042l0.034,-0.041l0.036,-0.042l0.036,-0.042l0.037,-0.043l0.038,-0.043l0.038,-0.043l0.039,-0.043l0.04,-0.044l0.04,-0.044l0.042,-0.044l-0.001,0l0.014,-0.015l0.013,-0.013l0.013,-0.014l0.013,-0.012l0.013,-0.013l0.013,-0.013l0.013,-0.012l0.012,-0.012l0.012,-0.012l0.012,-0.011l0.012,-0.011l0.012,-0.011l0.011,-0.011l0.012,-0.01l0.012,-0.011l0.011,-0.01l0.01,-0.009l0.011,-0.011l0.011,-0.009l0.01,-0.01l0.01,-0.009l0.011,-0.01l0.01,-0.01l0.01,-0.01l0.009,-0.009l0.01,-0.01l0.009,-0.009l0.01,-0.011l0.01,-0.011l0.009,-0.011l0.009,-0.011l0.008,-0.012l0.001,0l0.046,-0.064l0.047,-0.065l0.048,-0.064l0.049,-0.066l0.049,-0.066l0.05,-0.066l0.05,-0.066l0.052,-0.066l0.05,-0.065l0.051,-0.066l0.051,-0.065l0.05,-0.065l0.051,-0.064l0.05,-0.064l0.049,-0.063l0.049,-0.061l0.048,-0.061l0.046,-0.06l0.046,-0.058l0.045,-0.056l0.043,-0.056l0.042,-0.054l0.041,-0.052l0.038,-0.051l0.038,-0.049l0.035,-0.047l0.033,-0.044l0.031,-0.044l0.029,-0.04l0.027,-0.039l0.025,-0.036l0.022,-0.035l0.047,-0.062l0.109,-0.127l0.16,-0.179l0.205,-0.224l0.248,-0.266l0.287,-0.304l0.323,-0.34l0.354,-0.369l0.384,-0.398l0.408,-0.422l0.431,-0.443l0.45,-0.46l0.464,-0.474l0.477,-0.484l0.486,-0.491l0.49,-0.495l0.493,-0.495l0.492,-0.492l0.487,-0.484l0.479,-0.475l0.468,-0.46l0.453,-0.444l0.435,-0.423l0.413,-0.399l0.389,-0.371l0.362,-0.341l0.329,-0.306l0.294,-0.267l0.256,-0.226l0.213,-0.18l0.165,-0.13l0.106,-0.072l0.077,-0.043l0.016,-0.087l0.198,-1.05l0.002,-0.014l0.001,-0.018l-0.004,-0.17Z" style="fill:#d94f00;fill-rule:nonzero;"></path>
      <path d="M102.273,103.076l0.001,-0.002l0,-0.004l-0.001,0.006Z" style="fill:#d94f00;fill-rule:nonzero;"></path>
      <path d="M83.923,106.914l0,-10.975l-6.125,0l0.139,2.55l2.827,0l0,6.513c0,0 -1.691,0.388 -2.966,0.388c-1.829,0 -3.852,-0.998 -3.852,-7.372c0,-6.236 2.66,-7.344 4.905,-7.344c2.162,0 4.407,0.97 4.407,0.97l0,-2.605c0,0 -1.857,-0.998 -4.407,-0.998c-3.492,0 -8.065,1.413 -8.065,10.116c0,8.73 3.437,9.843 6.846,9.843c2.688,0 5.681,-0.892 6.291,-1.086m14.384,-18.596l-12.583,0l0,2.827l4.712,0l0,16.573l3.159,0l0,-16.573l4.352,0l0.36,-2.827Z" style="fill:#d94f00;"></path>
    </g>
  </g>
</svg>
