<?xml version="1.0" encoding="UTF-8" standalone="no"?>
<svg xmlns="http://www.w3.org/2000/svg" xmlns:xlink="http://www.w3.org/1999/xlink" width="100%" height="100%" viewBox="0 0 216 126" xml:space="preserve" style="fill-rule:evenodd;clip-rule:evenodd;stroke-linejoin:round;stroke-miterlimit:1.41421;">
  <g id="product.-logo.-fixed.-deposits">
    <rect x="0" y="0" width="216" height="126" style="fill:none;"></rect>
    <g>
      <path d="M71.882,29.731c-4.648,0 -8.192,1.654 -8.192,3.781l0,25.364c0,2.127 3.544,3.781 8.192,3.781c4.647,0 8.192,-1.654 8.192,-3.781l0,-25.364c0,-2.206 -3.545,-3.781 -8.192,-3.781Zm-35.289,12.682c-4.647,0 -8.192,1.654 -8.192,3.781l0,12.682c0,2.127 3.545,3.781 8.192,3.781c4.647,0 8.192,-1.654 8.192,-3.781l0,-12.682c0,-2.206 -3.466,-3.781 -8.192,-3.781Zm17.644,-6.38c-4.647,0 -8.192,1.654 -8.192,3.781l0,19.062c0,2.127 3.545,3.781 8.192,3.781c4.648,0 8.192,-1.654 8.192,-3.781l0,-19.062c0,-2.127 -3.544,-3.781 -8.192,-3.781Zm24.655,22.843c0,1.181 -2.993,2.599 -7.01,2.599c-4.018,0 -7.011,-1.418 -7.011,-2.599l0,-4.411c1.418,1.102 3.939,1.733 7.011,1.733c3.072,0 5.592,-0.709 7.01,-1.733l0,4.411Zm-17.644,0c0,1.181 -2.993,2.599 -7.011,2.599c-4.017,0 -7.01,-1.339 -7.01,-2.599l0,-4.411c1.418,1.102 3.938,1.733 7.01,1.733c3.072,0 5.593,-0.709 7.011,-1.733l0,4.411Zm-17.645,0c0,1.181 -2.993,2.599 -7.01,2.599c-4.017,0 -7.011,-1.339 -7.011,-2.599l0,-4.411c1.418,1.102 3.939,1.733 7.011,1.733c3.072,0 5.593,-0.709 7.01,-1.733l0,4.411Zm35.289,-6.381c0,1.182 -2.993,2.6 -7.01,2.6c-4.018,0 -7.011,-1.339 -7.011,-2.6l0,-4.332c1.418,1.103 3.939,1.733 7.011,1.733c3.072,0 5.592,-0.709 7.01,-1.733l0,4.332Zm-17.644,0c0,1.182 -2.993,2.6 -7.011,2.6c-4.017,0 -7.01,-1.339 -7.01,-2.6l0,-4.332c1.418,1.103 3.938,1.733 7.01,1.733c3.072,0 5.593,-0.709 7.011,-1.733l0,4.332Zm-17.645,0c0,1.182 -2.993,2.6 -7.01,2.6c-4.017,0 -7.011,-1.339 -7.011,-2.6l0,-4.332c1.418,1.103 3.939,1.733 7.011,1.733c3.072,0 5.593,-0.709 7.01,-1.733l0,4.332Zm35.289,-6.301c0,1.181 -2.993,2.599 -7.01,2.599c-4.018,0 -7.011,-1.418 -7.011,-2.599l0,-4.332c1.418,1.102 3.939,1.732 7.011,1.732c3.072,0 5.592,-0.708 7.01,-1.732l0,4.332Zm-17.644,0c0,1.181 -2.993,2.599 -7.011,2.599c-4.017,0 -7.01,-1.339 -7.01,-2.599l0,-4.332c1.418,1.102 3.938,1.732 7.01,1.732c3.072,0 5.593,-0.708 7.011,-1.732l0,4.332Zm-24.655,2.52c-4.017,0 -7.011,-1.339 -7.011,-2.599c0,-1.181 2.994,-2.599 7.011,-2.599c4.017,0 7.01,1.339 7.01,2.599c0,1.26 -2.993,2.599 -7.01,2.599Zm17.644,-6.301c-4.017,0 -7.01,-1.339 -7.01,-2.599c0,-1.182 2.993,-2.6 7.01,-2.6c4.018,0 7.011,1.339 7.011,2.6c0,1.26 -2.993,2.599 -7.011,2.599Zm24.655,-2.599c0,1.181 -2.993,2.599 -7.01,2.599c-4.018,0 -7.011,-1.339 -7.011,-2.599l0,-4.333c1.418,1.103 3.939,1.733 7.011,1.733c3.072,0 5.592,-0.709 7.01,-1.733l0,4.333Zm-6.459,-22.607l0,5.514l-1.181,0l0,-3.545l-8.744,8.743l-14.415,0l-11.027,11.028l-0.867,-0.788l11.422,-11.421l14.414,0l8.35,-8.35l-3.545,0l0,-1.181l5.593,0Zm-0.551,18.826c-4.018,0 -7.011,-1.339 -7.011,-2.6c0,-1.181 2.993,-2.599 7.011,-2.599c4.017,0 7.01,1.339 7.01,2.599c0,1.261 -3.072,2.6 -7.01,2.6Z" style="fill:#dd4f05;stroke:#dd4f05;stroke-width:0.5px;"></path>
      <g>
        <path d="M28.47,88.057l2.916,0l0,-6.614l7.372,0l0,-2.481l-7.372,0l0,-4.317l7.878,0l0,-2.48l-10.794,0l0,15.892Z" style="fill:#424a52;fill-rule:nonzero;"></path>
        <path d="M40.825,88.057l2.848,0l0,-11.805l-2.848,0l0,11.805Zm2.848,-14.009l0,-2.779l-2.848,0l0,2.779l2.848,0Z" style="fill:#424a52;fill-rule:nonzero;"></path>
        <path d="M44.936,76.252l3.698,5.994l-3.767,5.811l3.147,0c1.148,-2.021 2.021,-3.56 2.342,-4.203l0.023,0c0.39,0.712 1.171,2.09 2.366,4.203l3.238,0l-3.881,-6.178l3.881,-5.627l-3.17,0c-1.125,1.838 -1.929,3.216 -2.365,3.95l-0.023,0c-0.367,-0.643 -0.942,-1.584 -2.32,-3.95l-3.169,0Z" style="fill:#424a52;fill-rule:nonzero;"></path>
        <path d="M66.777,82.752c0.046,-0.345 0.046,-0.62 0.046,-1.011c0,-2.802 -1.332,-5.764 -5.306,-5.764c-3.72,0 -5.58,2.687 -5.58,6.338c0,3.078 1.63,6.017 5.443,6.017c3.559,0 4.845,-2.25 5.282,-3.72l-2.871,0c-0.321,0.758 -0.804,1.447 -2.319,1.447c-1.769,0 -2.665,-1.539 -2.665,-3.307l7.97,0Zm-7.901,-1.815c0.161,-1.676 0.873,-2.87 2.618,-2.87c1.746,0 2.435,1.286 2.458,2.87l-5.076,0Z" style="fill:#424a52;fill-rule:nonzero;"></path>
        <path d="M76.422,71.269l0,5.971c-0.298,-0.574 -1.217,-1.263 -3.031,-1.263c-3.33,0 -5.351,2.641 -5.351,6.292c0,3.652 1.906,6.063 4.891,6.063c1.838,0 2.917,-0.62 3.491,-1.653c0,0.321 0.069,1.033 0.115,1.378l2.756,0c-0.023,-1.103 -0.023,-2.182 -0.023,-3.284l0,-13.504l-2.848,0Zm-5.443,10.909c0,-2.435 1.011,-3.882 2.848,-3.882c2.32,0 2.687,1.562 2.687,3.79c0,1.998 -0.367,3.927 -2.779,3.927c-1.699,0 -2.756,-1.355 -2.756,-3.835Z" style="fill:#424a52;fill-rule:nonzero;"></path>
        <path d="M91.58,85.852c-1.47,0 -2.297,-1.079 -2.297,-2.251c0,-1.102 0.528,-1.837 1.722,-2.664l3.491,3.399c-0.987,1.126 -1.722,1.516 -2.916,1.516Zm7.394,-7.739l-2.916,4.11l-2.618,-2.549c2.159,-1.263 3.008,-2.365 3.008,-3.927c0,-2.021 -1.538,-3.812 -4.202,-3.812c-2.687,0 -4.341,1.814 -4.341,4.111c0,1.401 0.712,2.342 1.699,3.399c-2.503,1.515 -3.261,2.756 -3.261,4.501c0,2.113 1.585,4.34 4.938,4.34c2.32,0 3.652,-0.872 4.892,-2.319l2.135,2.09l3.721,0l-4.272,-4.157l4.157,-5.787l-2.94,0Zm-6.728,-4.157c1.125,0 1.653,0.895 1.653,1.837c0,0.827 -0.344,1.539 -1.837,2.503c-1.011,-0.964 -1.516,-1.607 -1.516,-2.457c0,-1.148 0.666,-1.883 1.7,-1.883Z" style="fill:#424a52;fill-rule:nonzero;"></path>
        <path d="M112.593,88.057l2.986,0l0,-13.412l4.914,0l0,-2.48l-12.815,0l0,2.48l4.915,0l0,13.412Z" style="fill:#424a52;fill-rule:nonzero;"></path>
        <path d="M129.68,82.752c0.046,-0.345 0.046,-0.62 0.046,-1.011c0,-2.802 -1.332,-5.764 -5.306,-5.764c-3.72,0 -5.58,2.687 -5.58,6.338c0,3.078 1.63,6.017 5.443,6.017c3.559,0 4.845,-2.25 5.282,-3.72l-2.871,0c-0.321,0.758 -0.804,1.447 -2.319,1.447c-1.769,0 -2.664,-1.539 -2.664,-3.307l7.969,0Zm-7.901,-1.815c0.161,-1.676 0.873,-2.87 2.619,-2.87c1.745,0 2.434,1.286 2.457,2.87l-5.076,0Z" style="fill:#424a52;fill-rule:nonzero;"></path>
        <path d="M131.586,88.057l2.848,0l0,-6.477c0,-2.181 0.826,-3.261 2.503,-3.261c1.561,0 2.09,1.057 2.09,2.527l0,7.211l2.847,0l0,-7.533c0,-3.031 -1.607,-4.547 -3.927,-4.547c-2.136,0 -3.1,1.102 -3.513,1.929c0,-0.368 -0.046,-1.332 -0.115,-1.654l-2.756,0c0.023,0.896 0.023,1.952 0.023,2.963l0,8.842Z" style="fill:#424a52;fill-rule:nonzero;"></path>
        <path d="M154.483,76.252l-2.848,0l0,6.247c0,2.526 -0.689,3.468 -2.412,3.468c-1.607,0 -2.021,-1.194 -2.021,-2.572l0,-7.143l-2.847,0l0,7.717c0,3.054 1.653,4.363 3.927,4.363c1.607,0 2.687,-0.551 3.353,-1.768c0.023,0.505 0.046,1.171 0.092,1.493l2.779,0c-0.023,-0.942 -0.023,-2.297 -0.023,-3.445l0,-8.36Z" style="fill:#424a52;fill-rule:nonzero;"></path>
        <path d="M157.032,88.057l2.848,0l0,-5.351c0,-3.147 1.469,-3.996 3.858,-3.973l0,-2.756c-1.998,0.023 -3.307,1.033 -3.858,2.457c0,-0.804 -0.023,-1.906 -0.069,-2.182l-2.802,0c0.023,0.873 0.023,1.861 0.023,3.193l0,8.612Z" style="fill:#424a52;fill-rule:nonzero;"></path>
        <path d="M175.083,82.752c0.046,-0.345 0.046,-0.62 0.046,-1.011c0,-2.802 -1.332,-5.764 -5.305,-5.764c-3.721,0 -5.581,2.687 -5.581,6.338c0,3.078 1.631,6.017 5.443,6.017c3.56,0 4.846,-2.25 5.282,-3.72l-2.871,0c-0.321,0.758 -0.804,1.447 -2.319,1.447c-1.769,0 -2.664,-1.539 -2.664,-3.307l7.969,0Zm-7.9,-1.815c0.16,-1.676 0.872,-2.87 2.618,-2.87c1.745,0 2.434,1.286 2.457,2.87l-5.075,0Z" style="fill:#424a52;fill-rule:nonzero;"></path>
        <path d="M184.728,71.269l0,5.971c-0.298,-0.574 -1.217,-1.263 -3.031,-1.263c-3.33,0 -5.351,2.641 -5.351,6.292c0,3.652 1.906,6.063 4.892,6.063c1.837,0 2.916,-0.62 3.49,-1.653c0,0.321 0.069,1.033 0.115,1.378l2.756,0c-0.023,-1.103 -0.023,-2.182 -0.023,-3.284l0,-13.504l-2.848,0Zm-5.442,10.909c0,-2.435 1.01,-3.882 2.847,-3.882c2.32,0 2.687,1.562 2.687,3.79c0,1.998 -0.367,3.927 -2.779,3.927c-1.699,0 -2.755,-1.355 -2.755,-3.835Z" style="fill:#424a52;fill-rule:nonzero;"></path>
        <path d="M28.401,111.022l6.132,0c4.846,0 7.785,-3.49 7.785,-8.106c0,-4.685 -3.031,-7.717 -7.624,-7.717l-6.293,0l0,15.823Zm3.422,-13.067l2.595,0c3.1,0 4.363,2.365 4.363,4.961c0,3.077 -1.355,5.351 -4.386,5.351l-2.572,0l0,-10.312Z" style="fill:#dd4f05;fill-rule:nonzero;"></path>
        <path d="M54.651,105.786c0.046,-0.344 0.046,-0.597 0.046,-1.01c0,-2.963 -1.401,-5.925 -5.466,-5.925c-3.835,0 -5.742,2.664 -5.742,6.407c0,3.123 1.7,6.04 5.627,6.04c3.72,0 5.029,-2.388 5.443,-3.835l-3.284,0c-0.322,0.712 -0.712,1.263 -2.09,1.263c-1.631,0 -2.389,-1.447 -2.389,-2.94l7.855,0Zm-7.786,-2.021c0.138,-1.47 0.781,-2.549 2.343,-2.549c1.607,0 2.159,1.171 2.182,2.549l-4.525,0Z" style="fill:#dd4f05;fill-rule:nonzero;"></path>
        <path d="M59.703,115.57l0,-5.604c0.459,0.689 1.332,1.332 3.009,1.332c2.87,0 5.167,-2.319 5.167,-6.522c0,-3.675 -2.044,-5.925 -4.731,-5.925c-1.883,0 -2.94,0.895 -3.445,1.768c0,-0.436 -0.069,-1.171 -0.115,-1.493l-3.192,0c0.023,0.965 0.023,1.906 0.023,2.871l0,13.573l3.284,0Zm4.846,-10.656c0,2.411 -0.85,3.766 -2.595,3.766c-1.769,0 -2.389,-1.309 -2.389,-3.583c0,-2.388 0.666,-3.605 2.527,-3.605c1.584,0 2.457,1.24 2.457,3.422Z" style="fill:#dd4f05;fill-rule:nonzero;"></path>
        <path d="M75.021,98.851c-3.766,0 -5.994,2.595 -5.994,6.269c0,3.537 2.159,6.178 5.834,6.178c3.766,0 5.925,-2.641 5.925,-6.247c0,-3.72 -2.274,-6.2 -5.765,-6.2Zm-0.138,2.595c1.654,0 2.573,1.171 2.573,3.651c0,2.274 -0.896,3.629 -2.527,3.629c-1.584,0 -2.572,-1.355 -2.572,-3.652c0,-2.503 1.011,-3.628 2.526,-3.628Z" style="fill:#dd4f05;fill-rule:nonzero;"></path>
        <path d="M81.75,107.44c0.276,2.113 1.746,3.858 5.374,3.858c3.606,0 5.122,-1.791 5.122,-3.766c0,-1.746 -0.575,-3.101 -4.548,-4.019c-1.929,-0.46 -2.296,-0.735 -2.296,-1.332c0,-0.529 0.367,-1.011 1.447,-1.011c1.538,0 1.837,0.827 1.952,1.263l3.123,0c-0.092,-1.607 -1.332,-3.582 -4.938,-3.582c-3.582,0 -4.799,1.86 -4.799,3.605c0,1.677 0.62,2.871 4.501,3.836c1.699,0.413 2.205,0.711 2.205,1.469c0,0.735 -0.437,1.172 -1.654,1.172c-1.217,0 -1.998,-0.529 -2.251,-1.493l-3.238,0Z" style="fill:#dd4f05;fill-rule:nonzero;"></path>
        <path d="M93.83,111.022l3.307,0l0,-11.896l-3.307,0l0,11.896Zm3.307,-13.825l0,-2.94l-3.307,0l0,2.94l3.307,0Z" style="fill:#dd4f05;fill-rule:nonzero;"></path>
        <path d="M98.354,101.607l1.838,0l0,6.246c0,2.09 0.758,3.33 3.077,3.33c0.666,0 1.562,0 2.205,-0.229l0,-2.251c-0.23,0.023 -0.551,0.023 -0.735,0.023c-0.988,0 -1.263,-0.345 -1.263,-1.24l0,-5.879l2.342,0l0,-2.481l-2.342,0l0,-3.215l-3.284,0l0,3.215l-1.838,0l0,2.481Z" style="fill:#dd4f05;fill-rule:nonzero;"></path>
        <path d="M106.369,107.44c0.276,2.113 1.746,3.858 5.374,3.858c3.606,0 5.122,-1.791 5.122,-3.766c0,-1.746 -0.574,-3.101 -4.547,-4.019c-1.93,-0.46 -2.297,-0.735 -2.297,-1.332c0,-0.529 0.367,-1.011 1.447,-1.011c1.539,0 1.837,0.827 1.952,1.263l3.123,0c-0.092,-1.607 -1.332,-3.582 -4.937,-3.582c-3.583,0 -4.8,1.86 -4.8,3.605c0,1.677 0.62,2.871 4.501,3.836c1.7,0.413 2.205,0.711 2.205,1.469c0,0.735 -0.437,1.172 -1.654,1.172c-1.217,0 -1.998,-0.529 -2.25,-1.493l-3.239,0Z" style="fill:#dd4f05;fill-rule:nonzero;"></path>
      </g>
    </g>
  </g>
</svg>
