<?xml version="1.0" encoding="UTF-8" standalone="no"?>
<svg xmlns="http://www.w3.org/2000/svg" xmlns:xlink="http://www.w3.org/1999/xlink" width="100%" height="100%" viewBox="0 0 216 126" xml:space="preserve" style="fill-rule:evenodd;clip-rule:evenodd;stroke-linejoin:round;stroke-miterlimit:1.41421;">
  <g id="product.-logo.-e.-account">
    <rect x="0" y="0" width="216" height="126" style="fill:none;"></rect>
    <g>
      <path d="M79.025,84.767l4.476,-13.95c5.878,11.158 15.566,20.036 30.984,19.331c15.418,-0.707 31.95,-17.051 31.072,-36.231c-0.878,-19.18 -17.816,-33.992 -34.253,-33.239c-1.769,0.081 -3.468,0.281 -5.096,0.592c9.765,-1.495 20.633,5.775 25.939,18.175c2.625,6.135 3.466,12.54 2.742,18.277c-0.249,2.556 -0.914,5 -1.912,7.261c-0.991,2.346 -2.313,4.445 -3.94,6.201c-3.926,4.513 -9.376,7.451 -15.067,7.711c-11.27,0.516 -19.377,-6.699 -22.241,-16.803l20.156,-0.115l-7.808,-11.061l-23.746,1.097l-2.498,16.629l1.192,16.125Z" style="fill:#424a52;"></path>
      <path d="M138.283,24.997l-5.109,13.731c-5.362,-11.416 -14.633,-20.728 -30.068,-20.728c-15.434,0 -32.697,15.571 -32.697,34.771c0,19.2 16.243,34.771 32.697,34.771c1.771,0 3.477,-0.122 5.118,-0.359c-9.824,1.048 -20.348,-6.712 -25.081,-19.342c-2.341,-6.248 -2.888,-12.684 -1.903,-18.383c0.366,-2.542 1.142,-4.953 2.242,-7.166c1.097,-2.297 2.514,-4.334 4.22,-6.014c4.128,-4.329 9.707,-7.014 15.404,-7.014c11.282,0 19.051,7.578 21.448,17.803l-15.949,0l8.093,10.599l18.782,-0.009l3.256,-16.497l-0.453,-16.163Z" style="fill:#dd4f05;"></path>
      <path d="M74.726,102.737c0.045,-0.581 0.231,-1.058 0.56,-1.431c0.329,-0.362 0.794,-0.548 1.398,-0.559c0.614,0.011 1.063,0.208 1.348,0.592c0.274,0.373 0.422,0.839 0.444,1.398l-3.75,0Zm5.231,2.796c-0.406,0.241 -0.839,0.438 -1.3,0.592c-0.471,0.176 -0.975,0.263 -1.513,0.263c-0.679,0 -1.239,-0.192 -1.678,-0.576c-0.438,-0.362 -0.684,-0.882 -0.74,-1.562l5.856,0c0.011,-1.513 -0.264,-2.741 -0.823,-3.684c-0.592,-0.943 -1.661,-1.42 -3.207,-1.431c-1.305,0.022 -2.286,0.455 -2.944,1.299c-0.658,0.855 -0.987,1.914 -0.987,3.175c0.033,2.883 1.508,4.347 4.425,4.391c1.162,0 2.132,-0.225 2.911,-0.674l0,-1.793Zm8.766,-2.171l-3.356,0l1.662,-4.737l0.032,0l1.662,4.737Zm-7.401,4.441l2.385,0l1.003,-2.632l4.654,0l0.987,2.632l2.549,0l-4.506,-11.48l-2.599,0l-4.473,11.48Zm18.552,-8.388c-0.57,-0.187 -1.283,-0.28 -2.138,-0.28c-1.316,0.011 -2.325,0.433 -3.026,1.267c-0.713,0.822 -1.07,1.864 -1.07,3.125c0,1.304 0.357,2.367 1.07,3.19c0.691,0.844 1.727,1.272 3.108,1.283c0.46,0 0.867,-0.028 1.217,-0.082c0.351,-0.033 0.68,-0.099 0.987,-0.197l-0.099,-1.827c-0.186,0.089 -0.433,0.171 -0.74,0.247c-0.318,0.099 -0.636,0.149 -0.954,0.149c-0.767,-0.011 -1.337,-0.28 -1.71,-0.806c-0.384,-0.516 -0.576,-1.168 -0.576,-1.957c0,-0.823 0.209,-1.475 0.625,-1.958c0.395,-0.471 0.932,-0.712 1.612,-0.723c0.34,0 0.63,0.027 0.872,0.082c0.23,0.054 0.438,0.131 0.624,0.23l0.198,-1.743Zm7.302,0c-0.57,-0.187 -1.283,-0.28 -2.138,-0.28c-1.316,0.011 -2.324,0.433 -3.026,1.267c-0.713,0.822 -1.069,1.864 -1.069,3.125c0,1.304 0.356,2.367 1.069,3.19c0.691,0.844 1.727,1.272 3.108,1.283c0.461,0 0.867,-0.028 1.217,-0.082c0.351,-0.033 0.68,-0.099 0.987,-0.197l-0.099,-1.827c-0.186,0.089 -0.432,0.171 -0.74,0.247c-0.318,0.099 -0.635,0.149 -0.953,0.149c-0.768,-0.011 -1.338,-0.28 -1.711,-0.806c-0.384,-0.516 -0.576,-1.168 -0.576,-1.957c0,-0.823 0.209,-1.475 0.625,-1.958c0.395,-0.471 0.933,-0.712 1.612,-0.723c0.34,0 0.63,0.027 0.872,0.082c0.23,0.054 0.439,0.131 0.625,0.23l0.197,-1.743Zm1.069,4.21c0,1.239 0.389,2.269 1.168,3.092c0.768,0.833 1.853,1.261 3.256,1.283c1.426,-0.022 2.522,-0.45 3.29,-1.283c0.767,-0.823 1.151,-1.853 1.151,-3.092c-0.011,-1.415 -0.433,-2.516 -1.266,-3.306c-0.823,-0.778 -1.881,-1.173 -3.175,-1.184c-1.271,0.011 -2.319,0.406 -3.141,1.184c-0.844,0.79 -1.272,1.891 -1.283,3.306Zm2.303,-0.263c0,-0.669 0.181,-1.25 0.542,-1.743c0.351,-0.505 0.878,-0.762 1.579,-0.773c0.724,0.011 1.267,0.263 1.629,0.756c0.339,0.493 0.51,1.08 0.51,1.76c0,0.351 -0.028,0.696 -0.083,1.036c-0.055,0.351 -0.164,0.669 -0.328,0.954c-0.165,0.285 -0.385,0.51 -0.658,0.674c-0.285,0.176 -0.642,0.264 -1.07,0.264c-0.416,0 -0.756,-0.094 -1.019,-0.28c-0.274,-0.164 -0.494,-0.389 -0.658,-0.674c-0.153,-0.286 -0.263,-0.604 -0.329,-0.955c-0.033,-0.164 -0.06,-0.339 -0.082,-0.526c-0.022,-0.164 -0.033,-0.328 -0.033,-0.493Zm16.068,-4.029l-2.204,0l0,4.144c0,0.274 -0.021,0.57 -0.066,0.888c-0.043,0.318 -0.142,0.62 -0.296,0.905c-0.131,0.285 -0.323,0.52 -0.575,0.707c-0.263,0.208 -0.597,0.313 -1.003,0.313c-0.34,0 -0.609,-0.082 -0.806,-0.247c-0.186,-0.154 -0.329,-0.351 -0.428,-0.593c-0.077,-0.252 -0.126,-0.52 -0.148,-0.805c-0.011,-0.143 -0.016,-0.28 -0.016,-0.411c-0.022,-0.132 -0.033,-0.258 -0.033,-0.379l0,-4.522l-2.204,0l0,5.345c0,0.965 0.235,1.754 0.707,2.368c0.45,0.625 1.174,0.943 2.171,0.954c1.163,-0.022 2.089,-0.472 2.78,-1.348l0.032,0l0,1.151l2.089,0l0,-8.47Zm2.27,8.47l2.204,0l0,-4.145c0,-0.285 0.032,-0.592 0.099,-0.921c0.054,-0.318 0.153,-0.619 0.295,-0.905c0.154,-0.285 0.352,-0.52 0.593,-0.707c0.241,-0.186 0.559,-0.279 0.954,-0.279c0.35,0 0.63,0.071 0.838,0.213c0.198,0.154 0.335,0.357 0.412,0.609c0.098,0.23 0.153,0.488 0.164,0.773c0.011,0.285 0.016,0.565 0.016,0.839l0,4.523l2.204,0l0,-5.346c0,-0.976 -0.224,-1.771 -0.674,-2.385c-0.472,-0.614 -1.206,-0.926 -2.204,-0.937c-1.151,-0.011 -2.078,0.438 -2.779,1.349l-0.033,0l0,-1.151l-2.089,0l0,8.47Zm10.773,-2.55c0.011,1.788 0.904,2.703 2.68,2.747c0.647,0 1.19,-0.066 1.629,-0.197l-0.066,-1.744c-0.252,0.154 -0.587,0.231 -1.003,0.231c-0.406,-0.011 -0.68,-0.159 -0.823,-0.444c-0.153,-0.264 -0.225,-0.582 -0.214,-0.954l0,-3.948l1.958,0l0,-1.611l-1.958,0l0,-2.402l-2.203,0.707l0,1.695l-1.629,0l0,1.611l1.629,0l0,4.309Z" style="fill:#424a52;fill-rule:nonzero;"></path>
    </g>
  </g>
</svg>
