<?xml version="1.0" encoding="UTF-8" standalone="no"?>
<svg xmlns="http://www.w3.org/2000/svg" xmlns:xlink="http://www.w3.org/1999/xlink" width="100%" height="100%" viewBox="0 0 216 126" xml:space="preserve" style="fill-rule:evenodd;clip-rule:evenodd;stroke-linejoin:round;stroke-miterlimit:1.41421;">
  <g id="product.-logo.-gtcrea8">
    <rect x="0" y="0" width="216" height="126" style="fill:none;"></rect>
    <g>
      <path d="M47.551,78.515c-0.712,0.41 -1.657,0.67 -2.836,0.781c-1.205,0.164 -2.288,0.246 -3.246,0.246c-3.782,-0.028 -6.659,-1.192 -8.632,-3.494c-2.001,-2.247 -3.001,-5.206 -3.001,-8.878c0,-3.645 1.014,-6.604 3.042,-8.878c2,-2.275 4.864,-3.439 8.591,-3.494c1.287,0 2.561,0.082 3.822,0.246c1.233,0.247 2.411,0.672 3.535,1.275l0.328,-2.631c-1.013,-0.493 -2.246,-0.849 -3.699,-1.069c-1.479,-0.191 -2.808,-0.287 -3.986,-0.287c-4.495,0.055 -8.016,1.425 -10.564,4.11c-2.576,2.713 -3.878,6.289 -3.905,10.728c0,4.494 1.288,8.071 3.864,10.729c2.521,2.684 6.055,4.055 10.605,4.109c3.096,0.029 6.069,-0.561 8.919,-1.768l0,-14.262l-9.495,0l0,2.466l6.658,0l0,10.071Zm12.11,3l2.836,0l0,-26.224l8.468,0l0,-2.466l-19.771,0l0,2.466l8.467,0l0,26.224Zm31.634,-25.484l0.164,-2.63c-0.794,-0.411 -1.849,-0.699 -3.165,-0.864c-1.342,-0.137 -2.479,-0.205 -3.411,-0.205c-4.494,0.055 -8.015,1.425 -10.564,4.11c-2.576,2.713 -3.877,6.289 -3.905,10.728c0,4.494 1.289,8.071 3.864,10.729c2.521,2.684 6.056,4.055 10.605,4.109c0.986,0 2.123,-0.096 3.411,-0.288c1.261,-0.191 2.316,-0.507 3.165,-0.945l-0.164,-2.466c-0.849,0.466 -1.877,0.782 -3.083,0.945c-1.233,0.192 -2.343,0.288 -3.329,0.288c-3.782,-0.028 -6.659,-1.192 -8.632,-3.494c-2,-2.247 -3.001,-5.206 -3.001,-8.878c0,-3.645 1.014,-6.604 3.042,-8.878c2.001,-2.275 4.864,-3.439 8.591,-3.494c1.041,0 2.151,0.069 3.329,0.206c1.124,0.192 2.151,0.534 3.083,1.027m4.177,25.484l2.589,0l0,-10.358c0,-0.958 0.096,-1.946 0.288,-2.959c0.164,-0.96 0.438,-1.85 0.822,-2.672c0.411,-0.849 0.945,-1.521 1.603,-2.014c0.658,-0.466 1.493,-0.713 2.507,-0.74c0.685,0 1.316,0.082 1.891,0.246l0,-2.712c-0.521,-0.137 -1.124,-0.219 -1.808,-0.247c-1.316,0.028 -2.412,0.48 -3.289,1.357c-0.904,0.877 -1.603,1.932 -2.096,3.164l-0.082,0l0,-4.027l-2.59,0c0.11,1.178 0.165,2.74 0.165,4.685l0,16.277Zm24.481,-3.288c-0.657,0.384 -1.548,0.726 -2.671,1.027c-1.124,0.356 -2.192,0.534 -3.207,0.534c-2.275,-0.027 -3.987,-0.821 -5.137,-2.384c-1.179,-1.479 -1.768,-3.356 -1.768,-5.631l14.345,0l0,-1.314c0,-2.905 -0.644,-5.344 -1.931,-7.317c-1.343,-2 -3.48,-3.028 -6.413,-3.083c-2.685,0.028 -4.809,1.042 -6.371,3.042c-1.616,2.028 -2.439,4.672 -2.466,7.934c-0.027,3.205 0.698,5.809 2.179,7.808c1.479,2.056 3.932,3.111 7.357,3.165c2.083,-0.027 4.11,-0.41 6.083,-1.15l0,-2.631Zm-12.783,-8.673c0,-1.836 0.562,-3.494 1.685,-4.974c1.096,-1.479 2.59,-2.246 4.481,-2.301c1.918,0.055 3.302,0.808 4.151,2.261c0.794,1.424 1.192,3.096 1.192,5.014l-11.509,0Zm28.058,11.961l2.548,0c-0.165,-1.343 -0.233,-2.809 -0.205,-4.398l0,-9.248c0.055,-5.262 -2.398,-7.865 -7.357,-7.81c-2.165,0.055 -4.221,0.535 -6.166,1.439l0,2.507c1.945,-1.178 4.001,-1.754 6.166,-1.726c3.259,0 4.85,1.795 4.768,5.384l0,1.069l-0.494,0c-1.371,0 -2.794,0.041 -4.274,0.124c-1.508,0.137 -2.905,0.438 -4.193,0.904c-1.288,0.439 -2.343,1.164 -3.165,2.178c-0.85,1.013 -1.274,2.398 -1.274,4.15c-0.055,1.07 0.356,2.29 1.233,3.66c0.493,0.629 1.206,1.151 2.137,1.562c0.904,0.438 2.082,0.671 3.535,0.698c1.37,-0.027 2.672,-0.37 3.905,-1.027c1.233,-0.658 2.151,-1.603 2.754,-2.837l0.082,0l0,3.371Zm-0.246,-9.288c0,0.547 -0.028,1.246 -0.083,2.095c-0.054,0.822 -0.288,1.658 -0.698,2.508c-0.385,0.794 -1.001,1.479 -1.851,2.055c-0.876,0.602 -2.068,0.903 -3.575,0.903c-1.206,0 -2.22,-0.301 -3.042,-0.903c-0.876,-0.576 -1.314,-1.535 -1.314,-2.877c0,-1.152 0.314,-2.07 0.944,-2.755c0.576,-0.684 1.343,-1.192 2.301,-1.52c0.96,-0.356 2.029,-0.59 3.207,-0.698c1.124,-0.056 2.246,-0.083 3.371,-0.083l0.74,0l0,1.275Z" style="fill:#414b54;fill-rule:nonzero;"></path>
      <path d="M140.948,44.789c5.589,-4.543 12.53,-5.263 15.5,-1.609c2.971,3.654 0.848,10.301 -4.742,14.844c-5.588,4.543 -12.53,5.263 -15.5,1.609c-2.97,-3.654 -0.847,-10.302 4.742,-14.844m0.336,0.413c4.339,-3.527 10.117,-3.609 12.902,-0.183c2.784,3.426 1.523,9.064 -2.816,12.591c-4.339,3.528 -10.116,3.61 -12.901,0.184c-2.785,-3.426 -1.524,-9.064 2.815,-12.592" style="fill:#414b54;"></path>
      <path d="M153.019,57.878c10.823,-8.947 25.266,-9.62 32.251,-1.503c6.986,8.116 3.872,21.953 -6.952,30.901c-10.823,8.946 -25.267,9.618 -32.252,1.502c-6.985,-8.117 -3.872,-21.954 6.953,-30.9m0.789,0.918c8.405,-6.946 20.532,-6.409 27.081,1.201c6.548,7.609 5.043,19.413 -3.361,26.36c-8.404,6.946 -20.53,6.409 -27.079,-1.202c-6.549,-7.609 -5.044,-19.413 3.359,-26.359" style="fill:#dd5426;"></path>
      <rect x="59.321" y="86.959" width="2.829" height="2.829" style="fill:#dd5426;fill-rule:nonzero;"></rect>
      <path d="M69.343,87.734c0,-0.195 -0.029,-0.379 -0.085,-0.553c-0.057,-0.174 -0.14,-0.327 -0.247,-0.457c-0.107,-0.131 -0.241,-0.233 -0.402,-0.307c-0.16,-0.073 -0.341,-0.11 -0.542,-0.11c-0.234,0 -0.434,0.044 -0.598,0.131c-0.164,0.087 -0.301,0.199 -0.412,0.336c-0.11,0.137 -0.194,0.29 -0.251,0.457c-0.057,0.168 -0.095,0.335 -0.115,0.503l2.652,0Zm0.613,2.843c-0.094,0.033 -0.191,0.068 -0.292,0.105c-0.1,0.037 -0.212,0.072 -0.336,0.106c-0.124,0.033 -0.268,0.061 -0.432,0.085c-0.164,0.023 -0.35,0.035 -0.558,0.035c-0.455,0 -0.849,-0.067 -1.18,-0.201c-0.332,-0.134 -0.606,-0.321 -0.824,-0.562c-0.217,-0.241 -0.38,-0.533 -0.487,-0.874c-0.107,-0.342 -0.161,-0.72 -0.161,-1.136c0,-0.381 0.057,-0.729 0.171,-1.045c0.114,-0.314 0.276,-0.587 0.487,-0.818c0.211,-0.231 0.464,-0.41 0.759,-0.538c0.294,-0.127 0.622,-0.191 0.984,-0.191c0.429,0 0.787,0.074 1.075,0.221c0.288,0.148 0.519,0.35 0.693,0.608c0.174,0.258 0.3,0.564 0.377,0.92c0.077,0.355 0.115,0.736 0.115,1.144l-3.656,0c0,0.255 0.045,0.486 0.135,0.694c0.091,0.208 0.215,0.387 0.372,0.537c0.157,0.151 0.338,0.268 0.543,0.352c0.204,0.084 0.416,0.126 0.638,0.126c0.153,0 0.313,-0.019 0.477,-0.056c0.164,-0.036 0.318,-0.08 0.462,-0.13c0.144,-0.051 0.271,-0.106 0.382,-0.166c0.11,-0.06 0.195,-0.114 0.256,-0.161l0,0.945Z" style="fill:#414b54;fill-rule:nonzero;"></path>
      <path d="M74.637,84.83c-0.127,-0.046 -0.243,-0.088 -0.346,-0.125c-0.104,-0.037 -0.206,-0.069 -0.307,-0.096c-0.1,-0.026 -0.204,-0.045 -0.311,-0.055c-0.107,-0.01 -0.225,-0.015 -0.352,-0.015c-0.14,0 -0.283,0.015 -0.427,0.045c-0.144,0.03 -0.276,0.08 -0.396,0.151c-0.121,0.07 -0.218,0.166 -0.292,0.286c-0.074,0.121 -0.11,0.272 -0.11,0.452c0,0.228 0.073,0.414 0.221,0.558c0.147,0.144 0.333,0.276 0.557,0.396c0.225,0.121 0.467,0.24 0.729,0.357c0.261,0.118 0.503,0.263 0.728,0.437c0.224,0.174 0.41,0.389 0.557,0.643c0.148,0.255 0.221,0.572 0.221,0.954c0,0.376 -0.067,0.695 -0.2,0.96c-0.135,0.265 -0.319,0.48 -0.553,0.648c-0.234,0.167 -0.507,0.29 -0.819,0.366c-0.311,0.078 -0.641,0.116 -0.989,0.116c-0.248,0 -0.491,-0.03 -0.729,-0.09c-0.237,-0.061 -0.473,-0.127 -0.708,-0.201l0.101,-0.935c0.087,0.034 0.187,0.07 0.301,0.111c0.114,0.04 0.234,0.077 0.362,0.111c0.127,0.033 0.259,0.061 0.397,0.085c0.137,0.023 0.269,0.035 0.396,0.035c0.141,0 0.293,-0.021 0.457,-0.065c0.164,-0.044 0.313,-0.111 0.447,-0.201c0.134,-0.091 0.247,-0.208 0.337,-0.352c0.09,-0.144 0.136,-0.32 0.136,-0.527c0,-0.261 -0.074,-0.474 -0.221,-0.638c-0.148,-0.164 -0.334,-0.308 -0.558,-0.432c-0.224,-0.124 -0.467,-0.243 -0.728,-0.357c-0.262,-0.114 -0.504,-0.249 -0.729,-0.407c-0.224,-0.157 -0.41,-0.353 -0.557,-0.588c-0.148,-0.234 -0.221,-0.532 -0.221,-0.893c0,-0.308 0.058,-0.582 0.176,-0.819c0.117,-0.238 0.276,-0.437 0.477,-0.598c0.201,-0.16 0.438,-0.283 0.713,-0.367c0.274,-0.083 0.569,-0.125 0.884,-0.125c0.234,0 0.482,0.02 0.743,0.06c0.262,0.04 0.513,0.104 0.754,0.191l-0.141,0.924Z" style="fill:#414b54;fill-rule:nonzero;"></path>
      <path d="M79.178,88.346c-0.1,0 -0.201,-0.003 -0.301,-0.009c-0.101,-0.007 -0.201,-0.011 -0.302,-0.011c-0.127,0 -0.291,0.009 -0.492,0.025c-0.201,0.017 -0.397,0.059 -0.588,0.126c-0.19,0.067 -0.355,0.166 -0.492,0.296c-0.137,0.131 -0.206,0.31 -0.206,0.538c0,0.133 0.03,0.253 0.091,0.356c0.06,0.104 0.135,0.191 0.226,0.262c0.09,0.07 0.192,0.124 0.306,0.16c0.114,0.037 0.224,0.056 0.331,0.056c0.469,0 0.824,-0.129 1.066,-0.387c0.241,-0.258 0.361,-0.578 0.361,-0.96l0,-0.452Zm-2.803,-2.32c0.235,-0.141 0.493,-0.256 0.774,-0.347c0.281,-0.09 0.586,-0.136 0.914,-0.136c0.737,0 1.264,0.178 1.582,0.533c0.318,0.355 0.477,0.884 0.477,1.587l0,2.12c0,0.294 0.004,0.517 0.01,0.668c0.007,0.15 0.017,0.263 0.031,0.337l-0.884,0l0,-0.663l-0.021,0c-0.053,0.08 -0.127,0.165 -0.221,0.256c-0.093,0.09 -0.205,0.174 -0.336,0.251c-0.131,0.077 -0.281,0.142 -0.452,0.195c-0.171,0.054 -0.364,0.081 -0.578,0.081c-0.275,0 -0.527,-0.03 -0.758,-0.09c-0.231,-0.061 -0.431,-0.156 -0.598,-0.287c-0.168,-0.13 -0.296,-0.296 -0.387,-0.497c-0.09,-0.201 -0.135,-0.442 -0.135,-0.723c0,-0.322 0.078,-0.59 0.236,-0.804c0.157,-0.214 0.353,-0.387 0.587,-0.517c0.235,-0.131 0.493,-0.225 0.774,-0.282c0.281,-0.056 0.542,-0.085 0.783,-0.085l0.503,0c0.147,0 0.314,0.006 0.502,0.02c0,-0.442 -0.092,-0.775 -0.276,-1c-0.184,-0.224 -0.514,-0.336 -0.99,-0.336c-0.268,0 -0.534,0.047 -0.798,0.141c-0.265,0.094 -0.494,0.221 -0.688,0.381l-0.051,-0.803Z" style="fill:#414b54;fill-rule:nonzero;"></path>
      <path d="M83.739,90.788l-1.125,0l-1.839,-5.124l1.035,0l1.386,4.179l0.021,0l1.416,-4.179l0.945,0l-1.839,5.124Z" style="fill:#414b54;fill-rule:nonzero;"></path>
      <path d="M89.556,87.734c0,-0.195 -0.029,-0.379 -0.086,-0.553c-0.057,-0.174 -0.139,-0.327 -0.246,-0.457c-0.107,-0.131 -0.241,-0.233 -0.402,-0.307c-0.16,-0.073 -0.341,-0.11 -0.542,-0.11c-0.235,0 -0.434,0.044 -0.598,0.131c-0.164,0.087 -0.301,0.199 -0.412,0.336c-0.111,0.137 -0.194,0.29 -0.251,0.457c-0.057,0.168 -0.096,0.335 -0.116,0.503l2.653,0Zm0.612,2.843c-0.093,0.033 -0.191,0.068 -0.291,0.105c-0.1,0.037 -0.213,0.072 -0.337,0.106c-0.124,0.033 -0.267,0.061 -0.432,0.085c-0.164,0.023 -0.349,0.035 -0.557,0.035c-0.455,0 -0.849,-0.067 -1.18,-0.201c-0.332,-0.134 -0.607,-0.321 -0.824,-0.562c-0.218,-0.241 -0.381,-0.533 -0.487,-0.874c-0.108,-0.342 -0.161,-0.72 -0.161,-1.136c0,-0.381 0.057,-0.729 0.171,-1.045c0.113,-0.314 0.276,-0.587 0.487,-0.818c0.211,-0.231 0.464,-0.41 0.758,-0.538c0.295,-0.127 0.623,-0.191 0.985,-0.191c0.428,0 0.787,0.074 1.075,0.221c0.288,0.148 0.519,0.35 0.693,0.608c0.174,0.258 0.3,0.564 0.377,0.92c0.076,0.355 0.115,0.736 0.115,1.144l-3.657,0c0,0.255 0.046,0.486 0.136,0.694c0.09,0.208 0.214,0.387 0.372,0.537c0.157,0.151 0.338,0.268 0.542,0.352c0.204,0.084 0.417,0.126 0.638,0.126c0.154,0 0.313,-0.019 0.477,-0.056c0.164,-0.036 0.318,-0.08 0.462,-0.13c0.144,-0.051 0.272,-0.106 0.382,-0.166c0.111,-0.06 0.196,-0.114 0.256,-0.161l0,0.945Z" style="fill:#414b54;fill-rule:nonzero;"></path>
      <path d="M91.575,85.664l0.884,0l0,0.793l0.02,0c0.127,-0.267 0.313,-0.487 0.558,-0.658c0.244,-0.171 0.504,-0.256 0.778,-0.256c0.141,0 0.255,0.007 0.342,0.021c0.087,0.013 0.181,0.03 0.281,0.05l0,0.843c-0.087,-0.033 -0.176,-0.056 -0.266,-0.07c-0.091,-0.013 -0.176,-0.02 -0.256,-0.02c-0.422,0 -0.76,0.188 -1.015,0.563c-0.254,0.375 -0.382,0.884 -0.382,1.527l0,2.331l-0.944,0l0,-5.124Z" style="fill:#414b54;fill-rule:nonzero;"></path>
      <path d="M94.85,89.783c0.093,0.06 0.194,0.114 0.301,0.161c0.107,0.046 0.214,0.085 0.322,0.115c0.107,0.03 0.209,0.053 0.306,0.066c0.097,0.013 0.179,0.02 0.246,0.02c0.107,0 0.218,-0.012 0.331,-0.036c0.114,-0.023 0.218,-0.063 0.312,-0.12c0.094,-0.057 0.171,-0.133 0.231,-0.226c0.06,-0.094 0.09,-0.211 0.09,-0.352c0,-0.154 -0.055,-0.284 -0.165,-0.392c-0.111,-0.106 -0.248,-0.206 -0.412,-0.296c-0.164,-0.09 -0.341,-0.179 -0.532,-0.266c-0.191,-0.087 -0.369,-0.191 -0.533,-0.312c-0.164,-0.121 -0.301,-0.261 -0.412,-0.421c-0.11,-0.161 -0.166,-0.362 -0.166,-0.603c0,-0.268 0.047,-0.501 0.141,-0.699c0.094,-0.197 0.221,-0.361 0.382,-0.492c0.161,-0.131 0.351,-0.227 0.572,-0.291c0.222,-0.064 0.459,-0.096 0.714,-0.096c0.221,0 0.425,0.021 0.613,0.061c0.187,0.04 0.374,0.087 0.562,0.14l-0.08,0.824c-0.054,-0.033 -0.126,-0.065 -0.216,-0.095c-0.091,-0.03 -0.185,-0.059 -0.281,-0.086c-0.098,-0.027 -0.191,-0.047 -0.282,-0.06c-0.09,-0.013 -0.162,-0.02 -0.216,-0.02c-0.241,0 -0.452,0.05 -0.633,0.151c-0.181,0.1 -0.271,0.257 -0.271,0.472c0,0.174 0.055,0.316 0.166,0.427c0.11,0.11 0.247,0.207 0.412,0.291c0.164,0.084 0.341,0.168 0.532,0.251c0.191,0.084 0.368,0.184 0.532,0.302c0.164,0.117 0.302,0.263 0.412,0.437c0.111,0.174 0.166,0.398 0.166,0.673c0,0.275 -0.05,0.512 -0.151,0.713c-0.1,0.201 -0.234,0.367 -0.401,0.497c-0.168,0.131 -0.359,0.228 -0.573,0.291c-0.215,0.064 -0.435,0.096 -0.663,0.096c-0.241,0 -0.482,-0.019 -0.723,-0.055c-0.242,-0.037 -0.469,-0.112 -0.684,-0.226l0.051,-0.844Z" style="fill:#414b54;fill-rule:nonzero;"></path>
      <path d="M104.233,84.72l-1.396,3.476l2.792,0l-1.396,-3.476Zm-0.492,-0.944l1.054,0l2.964,7.012l-1.095,0l-0.713,-1.769l-3.436,0l-0.713,1.769l-1.055,0l2.994,-7.012Z" style="fill:#414b54;fill-rule:nonzero;"></path>
      <path d="M111.687,86.528c-0.181,-0.074 -0.359,-0.129 -0.533,-0.166c-0.174,-0.036 -0.338,-0.055 -0.492,-0.055c-0.261,0 -0.494,0.053 -0.698,0.161c-0.204,0.107 -0.377,0.251 -0.518,0.432c-0.14,0.181 -0.247,0.387 -0.321,0.617c-0.074,0.231 -0.111,0.468 -0.111,0.709c0,0.227 0.032,0.455 0.096,0.683c0.064,0.228 0.164,0.434 0.302,0.618c0.137,0.184 0.314,0.333 0.532,0.447c0.217,0.114 0.477,0.171 0.779,0.171c0.16,0 0.332,-0.026 0.517,-0.076c0.184,-0.05 0.35,-0.122 0.497,-0.216l0.07,0.844c-0.194,0.094 -0.396,0.152 -0.607,0.176c-0.211,0.023 -0.404,0.035 -0.578,0.035c-0.389,0 -0.742,-0.07 -1.06,-0.211c-0.318,-0.14 -0.593,-0.333 -0.824,-0.578c-0.231,-0.244 -0.41,-0.528 -0.537,-0.853c-0.127,-0.325 -0.191,-0.672 -0.191,-1.04c0,-0.389 0.062,-0.747 0.186,-1.075c0.124,-0.328 0.301,-0.611 0.532,-0.849c0.231,-0.238 0.506,-0.423 0.824,-0.558c0.318,-0.133 0.675,-0.201 1.07,-0.201c0.194,0 0.4,0.021 0.618,0.061c0.217,0.04 0.393,0.087 0.527,0.14l-0.08,0.784Z" style="fill:#414b54;fill-rule:nonzero;"></path>
      <path d="M115.896,86.528c-0.181,-0.074 -0.359,-0.129 -0.533,-0.166c-0.174,-0.036 -0.338,-0.055 -0.492,-0.055c-0.261,0 -0.494,0.053 -0.698,0.161c-0.205,0.107 -0.377,0.251 -0.517,0.432c-0.141,0.181 -0.248,0.387 -0.322,0.617c-0.074,0.231 -0.111,0.468 -0.111,0.709c0,0.227 0.032,0.455 0.096,0.683c0.063,0.228 0.164,0.434 0.301,0.618c0.138,0.184 0.315,0.333 0.533,0.447c0.217,0.114 0.477,0.171 0.778,0.171c0.161,0 0.333,-0.026 0.517,-0.076c0.185,-0.05 0.351,-0.122 0.498,-0.216l0.07,0.844c-0.194,0.094 -0.396,0.152 -0.608,0.176c-0.211,0.023 -0.403,0.035 -0.577,0.035c-0.388,0 -0.742,-0.07 -1.06,-0.211c-0.318,-0.14 -0.593,-0.333 -0.824,-0.578c-0.231,-0.244 -0.41,-0.528 -0.537,-0.853c-0.128,-0.325 -0.191,-0.672 -0.191,-1.04c0,-0.389 0.062,-0.747 0.186,-1.075c0.124,-0.328 0.301,-0.611 0.532,-0.849c0.231,-0.238 0.506,-0.423 0.824,-0.558c0.318,-0.133 0.674,-0.201 1.07,-0.201c0.194,0 0.4,0.021 0.617,0.061c0.218,0.04 0.394,0.087 0.528,0.14l-0.08,0.784Z" style="fill:#414b54;fill-rule:nonzero;"></path>
      <path d="M117.513,88.226c0,0.227 0.032,0.455 0.096,0.683c0.063,0.228 0.161,0.434 0.291,0.618c0.13,0.184 0.296,0.333 0.497,0.447c0.201,0.114 0.442,0.171 0.723,0.171c0.275,0 0.513,-0.057 0.714,-0.171c0.201,-0.114 0.366,-0.263 0.497,-0.447c0.131,-0.184 0.228,-0.39 0.292,-0.618c0.063,-0.228 0.095,-0.456 0.095,-0.683c0,-0.241 -0.037,-0.478 -0.111,-0.709c-0.074,-0.23 -0.177,-0.436 -0.311,-0.617c-0.134,-0.181 -0.301,-0.325 -0.502,-0.432c-0.201,-0.108 -0.426,-0.161 -0.674,-0.161c-0.254,0 -0.48,0.053 -0.678,0.161c-0.197,0.107 -0.365,0.251 -0.502,0.432c-0.137,0.181 -0.243,0.387 -0.317,0.617c-0.073,0.231 -0.11,0.468 -0.11,0.709m-1.004,0c0,-0.389 0.062,-0.747 0.186,-1.075c0.123,-0.328 0.301,-0.611 0.532,-0.849c0.231,-0.238 0.505,-0.423 0.824,-0.558c0.317,-0.133 0.674,-0.201 1.069,-0.201c0.389,0 0.744,0.068 1.065,0.201c0.322,0.135 0.596,0.32 0.824,0.558c0.228,0.238 0.403,0.521 0.528,0.849c0.123,0.328 0.186,0.686 0.186,1.075c0,0.368 -0.064,0.715 -0.191,1.04c-0.128,0.325 -0.305,0.609 -0.533,0.853c-0.228,0.245 -0.502,0.438 -0.824,0.578c-0.321,0.141 -0.673,0.211 -1.055,0.211c-0.388,0 -0.741,-0.07 -1.059,-0.211c-0.318,-0.14 -0.593,-0.333 -0.824,-0.578c-0.231,-0.244 -0.411,-0.528 -0.537,-0.853c-0.128,-0.325 -0.191,-0.672 -0.191,-1.04" style="fill:#414b54;fill-rule:nonzero;"></path>
      <path d="M127.268,90.788l-0.914,0l0,-0.814l-0.021,0c-0.14,0.294 -0.364,0.524 -0.672,0.688c-0.309,0.164 -0.644,0.246 -1.005,0.246c-0.663,0 -1.149,-0.194 -1.457,-0.583c-0.308,-0.388 -0.462,-0.927 -0.462,-1.617l0,-3.044l0.944,0l0,2.652c0,0.603 0.077,1.052 0.231,1.346c0.154,0.295 0.439,0.456 0.854,0.483c0.268,0 0.501,-0.052 0.698,-0.156c0.198,-0.104 0.36,-0.248 0.488,-0.432c0.127,-0.184 0.22,-0.405 0.281,-0.663c0.06,-0.258 0.09,-0.544 0.09,-0.859l0,-2.371l0.945,0l0,5.124Z" style="fill:#414b54;fill-rule:nonzero;"></path>
      <path d="M128.624,85.664l0.914,0l0,0.814l0.02,0c0.141,-0.295 0.365,-0.524 0.673,-0.688c0.308,-0.165 0.643,-0.247 1.005,-0.247c0.663,0 1.149,0.195 1.456,0.583c0.309,0.389 0.462,0.928 0.462,1.617l0,3.045l-0.944,0l0,-2.653c0,-0.602 -0.077,-1.051 -0.231,-1.345c-0.154,-0.295 -0.438,-0.456 -0.854,-0.483c-0.268,0 -0.5,0.052 -0.698,0.156c-0.198,0.104 -0.36,0.248 -0.487,0.432c-0.128,0.184 -0.221,0.407 -0.281,0.668c-0.061,0.261 -0.09,0.546 -0.09,0.854l0,2.371l-0.945,0l0,-5.124Z" style="fill:#414b54;fill-rule:nonzero;"></path>
      <path d="M137.233,86.427l-1.356,0l0,2.803c0,0.302 0.079,0.53 0.236,0.683c0.158,0.155 0.343,0.232 0.558,0.232c0.147,0 0.273,-0.019 0.376,-0.056c0.104,-0.036 0.193,-0.078 0.267,-0.125l0,0.803c-0.108,0.034 -0.23,0.066 -0.367,0.096c-0.137,0.03 -0.283,0.045 -0.437,0.045c-0.489,0 -0.874,-0.119 -1.155,-0.357c-0.282,-0.237 -0.422,-0.614 -0.422,-1.13l0,-2.994l-1.156,0l0,-0.763l1.156,0l0,-1.186l0.944,-0.301l0,1.487l1.356,0l0,0.763Z" style="fill:#414b54;fill-rule:nonzero;"></path>
    </g>
  </g>
</svg>
