<?xml version="1.0" encoding="UTF-8" standalone="no"?>
<svg xmlns="http://www.w3.org/2000/svg" xmlns:xlink="http://www.w3.org/1999/xlink" width="100%" height="100%" viewBox="0 0 216 126" xml:space="preserve" style="fill-rule:evenodd;clip-rule:evenodd;stroke-linejoin:round;stroke-miterlimit:1.41421;">
  <g id="product.-logo.-gtsave">
    <rect x="0" y="0" width="216" height="126" style="fill:none;"></rect>
    <g>
      <path d="M62.182,57.247c-0.329,0 -0.658,0 -0.988,0l0,-9.467c0,-3.292 -4.692,-5.844 -10.619,-5.844c-2.881,0 -5.597,0.659 -7.573,1.729c-1.646,-2.058 -5.35,-3.458 -9.713,-3.458c-5.927,0 -10.619,2.634 -10.619,5.845l0,42.311c0,3.292 4.692,5.844 10.619,5.844c5.927,0 10.619,-2.552 10.619,-5.844l0,-10.701c1.893,0.823 4.198,1.234 6.667,1.234c0.33,0 0.659,0 0.988,0l0,9.467c0,3.292 4.692,5.844 10.619,5.844c5.927,0 10.619,-2.552 10.619,-5.844l0,-25.272c0.082,-3.292 -4.61,-5.844 -10.619,-5.844Zm9.467,5.844c0,2.47 -4.281,4.61 -9.385,4.61c-5.103,0 -9.384,-2.058 -9.384,-4.61c0,-2.551 4.281,-4.609 9.384,-4.609c5.022,0 9.385,2.058 9.385,4.609Zm-20.086,6.01c-0.329,0 -0.658,0 -0.988,0c-2.469,0 -4.856,-0.494 -6.667,-1.4l0,-7.161c1.893,0.823 4.198,1.234 6.667,1.234c0.412,0 0.741,0 1.153,0c-0.165,0.412 -0.247,0.741 -0.247,1.153l0,6.174l0.082,0Zm8.479,-11.772c-3.375,0.33 -6.092,1.564 -7.409,3.211c-0.658,0.082 -1.317,0.082 -1.975,0.082c-2.47,0 -4.857,-0.494 -6.668,-1.399l0,-6.915c1.893,0.823 4.198,1.235 6.668,1.235c4.116,0 7.655,-1.235 9.384,-3.046l0,6.832Zm-9.384,-14.076c5.103,0 9.384,2.058 9.384,4.61c0,2.552 -4.281,4.61 -9.384,4.61c-2.47,0 -4.857,-0.494 -6.668,-1.4l0,-4.939c0,-0.494 -0.082,-0.905 -0.247,-1.317c1.729,-1.07 4.198,-1.564 6.915,-1.564Zm-17.287,-1.811c5.104,0 9.384,2.058 9.384,4.61c0,2.552 -4.28,4.61 -9.384,4.61c-5.104,0 -9.384,-2.058 -9.384,-4.61c0,-2.552 4.28,-4.61 9.384,-4.61Zm-9.466,7.409c1.728,1.811 5.268,3.045 9.384,3.045c4.116,0 7.655,-1.234 9.384,-3.045l0,5.515c0,2.469 -4.281,4.61 -9.384,4.61c-5.104,0 -9.384,-2.058 -9.384,-4.61l0,-5.515Zm0,8.231c1.811,1.894 5.35,3.128 9.466,3.128c4.116,0 7.656,-1.234 9.384,-3.045l0,5.762c0,2.469 -4.28,4.61 -9.384,4.61c-5.104,0 -9.384,-2.058 -9.384,-4.61l0,-5.845l-0.082,0Zm0,8.561c1.728,1.811 5.268,3.046 9.384,3.046c4.116,0 7.655,-1.235 9.384,-3.046l0,5.762c0,2.47 -4.281,4.61 -9.384,4.61c-5.104,0 -9.384,-2.058 -9.384,-4.61l0,-5.762Zm18.85,22.72c0,2.469 -4.28,4.61 -9.384,4.61c-5.104,0 -9.384,-2.058 -9.384,-4.61l0,-5.762c1.729,1.811 5.268,3.045 9.384,3.045c4.116,0 7.656,-1.234 9.384,-3.045l0,5.762Zm-9.384,-3.951c-5.104,0 -9.384,-2.058 -9.384,-4.61l0,-5.762c1.729,1.811 5.268,3.045 9.384,3.045c4.116,0 7.656,-1.234 9.384,-3.045l0,5.762c0,2.552 -4.28,4.61 -9.384,4.61Zm17.287,-6.75c-2.47,0 -4.857,-0.494 -6.668,-1.4l0,-7.161c1.893,0.823 4.198,1.234 6.668,1.234c0.329,0 0.658,0 0.988,0l0,7.244c-0.412,0.083 -0.741,0.083 -0.988,0.083Zm20.991,10.701c0,2.469 -4.281,4.61 -9.385,4.61c-5.103,0 -9.384,-2.058 -9.384,-4.61l0,-5.762c1.729,1.811 5.269,3.045 9.384,3.045c4.116,0 7.656,-1.234 9.385,-3.045l0,5.762Zm0,-8.479c0,2.47 -4.281,4.61 -9.385,4.61c-5.103,0 -9.384,-2.058 -9.384,-4.61l0,-5.762c1.729,1.811 5.269,3.046 9.384,3.046c4.116,0 7.656,-1.235 9.385,-3.046l0,5.762Zm0,-8.561c0,2.47 -4.281,4.61 -9.385,4.61c-5.103,0 -9.384,-2.058 -9.384,-4.61l0,-5.515c1.729,1.811 5.186,3.046 9.302,3.046c4.116,0 7.656,-1.235 9.384,-3.046l0,5.515l0.083,0Z" style="fill:#dd4f05;fill-rule:nonzero;"></path>
      <g>
        <path d="M107.09,72.819l-9.504,0l0,3.904l4.832,0l0,0.224c0,1.952 -0.768,4.8 -4.832,4.8c-4.384,0 -5.856,-3.744 -5.856,-7.552c0,-3.872 1.28,-7.68 5.824,-7.68c3.232,0 4.384,1.76 4.832,3.232l4.768,0c-0.512,-3.744 -3.872,-6.944 -9.536,-6.944c-6.944,0 -10.816,4.992 -10.816,11.616c0,6.272 3.584,11.136 9.984,11.136c3.072,0 5.216,-0.896 6.432,-2.56c0.064,0.736 0.192,1.504 0.384,2.176l3.488,0l0,-12.352Z" style="fill:#dd4f05;fill-rule:nonzero;"></path>
        <path d="M115.282,85.171l4.768,0l0,-18.144l6.688,0l0,-3.904l-18.176,0l0,3.904l6.72,0l0,18.144Z" style="fill:#dd4f05;fill-rule:nonzero;"></path>
        <path d="M127.41,78.803c0.512,3.808 3.264,6.656 8.864,6.656c5.696,0 8.608,-2.784 8.608,-6.656c0,-3.008 -1.312,-5.44 -7.68,-6.944c-3.68,-0.864 -4.736,-1.568 -4.736,-3.296c0,-1.76 1.28,-2.688 3.488,-2.688c2.976,0 3.904,1.504 4.192,3.072l4.192,0c-0.32,-3.104 -2.592,-6.24 -8.256,-6.24c-5.152,0 -7.872,2.656 -7.872,6.304c0,3.04 1.6,5.088 7.328,6.464c4.032,0.928 5.088,1.888 5.088,3.808c0,1.792 -1.184,3.008 -4.032,3.008c-2.784,0 -4.448,-1.12 -4.992,-3.488l-4.192,0Z" style="fill:#424a52;fill-rule:nonzero;"></path>
        <path d="M160.722,73.907c0,-3.84 -2.336,-5.536 -6.624,-5.568c-4.896,-0.032 -6.592,2.432 -6.816,5.12l3.808,0c0.224,-1.216 0.672,-2.208 2.848,-2.208c2.464,0 2.88,1.344 2.88,2.624l0,1.12l-2.496,0c-4.832,0 -7.808,1.728 -7.808,5.44c0,2.528 1.664,5.12 5.6,5.12c3.008,0 4.192,-1.184 4.768,-2.176c0.032,0.608 0.128,1.44 0.256,1.792l3.808,0c-0.096,-0.416 -0.224,-2.496 -0.224,-4.032l0,-7.232Zm-3.872,4.064c0,2.432 -0.416,4.672 -3.68,4.672c-1.76,0 -2.656,-1.088 -2.656,-2.432c0,-1.856 1.28,-2.72 4.192,-2.72l2.144,0l0,0.48Z" style="fill:#424a52;fill-rule:nonzero;"></path>
        <path d="M162.002,68.723l5.632,16.448l4.224,0l5.888,-16.448l-3.968,0c-1.792,5.536 -3.424,10.464 -3.872,12.896l-0.032,0c-0.384,-2.016 -1.792,-6.944 -3.584,-12.896l-4.288,0Z" style="fill:#424a52;fill-rule:nonzero;"></path>
        <path d="M193.266,77.779c0.064,-0.48 0.064,-0.864 0.064,-1.408c0,-3.904 -1.856,-8.032 -7.392,-8.032c-5.184,0 -7.776,3.744 -7.776,8.832c0,4.288 2.272,8.384 7.584,8.384c4.96,0 6.752,-3.136 7.36,-5.184l-4,0c-0.448,1.056 -1.12,2.016 -3.232,2.016c-2.464,0 -3.712,-2.144 -3.712,-4.608l11.104,0Zm-11.008,-2.528c0.224,-2.336 1.216,-4 3.648,-4c2.432,0 3.392,1.792 3.424,4l-7.072,0Z" style="fill:#424a52;fill-rule:nonzero;"></path>
      </g>
    </g>
  </g>
</svg>
