<?xml version="1.0" encoding="UTF-8" standalone="no"?>
<svg xmlns="http://www.w3.org/2000/svg" xmlns:xlink="http://www.w3.org/1999/xlink" width="100%" height="100%" viewBox="0 0 216 126" xml:space="preserve" style="fill-rule:evenodd;clip-rule:evenodd;stroke-linejoin:round;stroke-miterlimit:1.41421;">
  <g id="product.-logo.-dom.-account">
    <rect x="0" y="0" width="216" height="126" style="fill:none;"></rect>
    <g>
      <g>
        <path d="M83.581,66.558l6.161,0c4.928,0 7.961,-3.578 7.961,-8.388c0,-4.857 -3.128,-8.008 -7.843,-8.008l-6.279,0l0,16.396Zm3.081,-13.885l2.938,0c3.483,0 4.928,2.654 4.928,5.521c0,3.364 -1.54,5.852 -4.928,5.852l-2.938,0l0,-11.373Z" style="fill:#424a52;fill-rule:nonzero;"></path>
        <path d="M105.025,54.095c-3.792,0 -5.995,2.701 -5.995,6.397c0,3.649 2.156,6.35 5.852,6.35c3.815,0 5.948,-2.772 5.948,-6.397c0,-3.815 -2.275,-6.35 -5.805,-6.35Zm-0.119,2.346c1.896,0 2.914,1.421 2.914,4.051c0,2.464 -1.018,4.004 -2.867,4.004c-1.824,0 -2.938,-1.563 -2.938,-4.027c0,-2.654 1.09,-4.028 2.891,-4.028Z" style="fill:#424a52;fill-rule:nonzero;"></path>
        <path d="M112.701,66.558l2.915,0l0,-6.777c0,-2.179 0.734,-3.269 2.322,-3.269c1.587,0 1.943,1.161 1.943,2.511l0,7.535l2.89,0l0,-6.966c0,-1.967 0.664,-3.104 2.275,-3.104c1.564,0 1.99,1.232 1.99,2.44l0,7.63l2.891,0l0,-7.985c0,-3.222 -1.777,-4.478 -3.862,-4.478c-2.014,0 -3.104,0.924 -3.791,1.966c-0.45,-1.066 -1.493,-1.966 -3.223,-1.966c-1.824,0 -2.843,0.9 -3.435,1.872c-0.024,-0.522 -0.071,-1.28 -0.119,-1.588l-2.819,0c0.023,1.019 0.023,2.085 0.023,3.128l0,9.051Z" style="fill:#424a52;fill-rule:nonzero;"></path>
        <path d="M132.557,66.558l2.938,0l0,-12.179l-2.938,0l0,12.179Zm2.938,-14.453l0,-2.867l-2.938,0l0,2.867l2.938,0Z" style="fill:#424a52;fill-rule:nonzero;"></path>
        <path d="M145.447,62.696c-0.356,1.09 -1.067,1.824 -2.346,1.824c-1.706,0 -2.701,-1.421 -2.701,-4.075c0,-2.488 0.971,-4.004 2.725,-4.004c1.469,0 2.108,0.805 2.345,1.895l2.891,0c-0.095,-1.445 -1.28,-4.241 -5.165,-4.241c-3.697,0 -5.805,2.914 -5.805,6.445c0,3.743 1.99,6.302 5.639,6.302c3.459,0 4.881,-2.109 5.331,-4.146l-2.914,0Z" style="fill:#424a52;fill-rule:nonzero;"></path>
        <path d="M150.114,66.558l2.938,0l0,-12.179l-2.938,0l0,12.179Zm2.938,-14.453l0,-2.867l-2.938,0l0,2.867l2.938,0Z" style="fill:#424a52;fill-rule:nonzero;"></path>
        <rect x="155.682" y="49.238" width="2.938" height="17.32" style="fill:#424a52;fill-rule:nonzero;"></rect>
        <path d="M161.251,66.558l2.938,0l0,-12.179l-2.938,0l0,12.179Zm2.938,-14.453l0,-2.867l-2.938,0l0,2.867l2.938,0Z" style="fill:#424a52;fill-rule:nonzero;"></path>
        <path d="M176.462,58.218c0,-2.844 -1.73,-4.099 -4.905,-4.123c-3.625,-0.024 -4.881,1.801 -5.046,3.791l2.819,0c0.166,-0.901 0.498,-1.635 2.109,-1.635c1.824,0 2.132,0.995 2.132,1.943l0,0.829l-1.848,0c-3.578,0 -5.781,1.28 -5.781,4.028c0,1.872 1.232,3.791 4.146,3.791c2.228,0 3.104,-0.876 3.531,-1.611c0.024,0.45 0.095,1.066 0.189,1.327l2.82,0c-0.071,-0.308 -0.166,-1.848 -0.166,-2.986l0,-5.354Zm-2.867,3.009c0,1.8 -0.308,3.459 -2.725,3.459c-1.303,0 -1.966,-0.806 -1.966,-1.801c0,-1.374 0.947,-2.014 3.104,-2.014l1.587,0l0,0.356Z" style="fill:#424a52;fill-rule:nonzero;"></path>
        <path d="M179.116,66.558l2.938,0l0,-5.521c0,-3.246 1.516,-4.123 3.981,-4.099l0,-2.843c-2.062,0.024 -3.412,1.066 -3.981,2.535c0,-0.829 -0.024,-1.967 -0.071,-2.251l-2.891,0c0.024,0.901 0.024,1.919 0.024,3.294l0,8.885Z" style="fill:#424a52;fill-rule:nonzero;"></path>
        <path d="M186.769,54.379l4.478,12.582c-0.545,1.587 -1.161,2.085 -2.488,2.085c-0.308,0 -0.663,-0.024 -0.924,-0.048l0,2.417c0.545,0.071 1.161,0.095 1.493,0.095c2.772,0 3.72,-0.995 4.905,-4.526l4.193,-12.605l-2.938,0c-1.634,5.473 -2.393,8.222 -2.701,9.501l-0.023,0c-0.237,-1.184 -1.327,-4.738 -2.844,-9.501l-3.151,0Z" style="fill:#424a52;fill-rule:nonzero;"></path>
        <path d="M92.538,86.485l1.35,3.767l3.72,0l-5.805,-16.325l-4.431,0l-5.544,16.325l3.483,0l1.256,-3.767l5.971,0Zm-5.213,-2.891c0.924,-2.962 1.73,-5.521 2.133,-7.132l0.023,0c0.403,1.469 1.138,3.673 2.299,7.132l-4.455,0Z" style="fill:#dd4f05;fill-rule:nonzero;"></path>
        <path d="M106.02,86.295c-0.308,0.924 -0.924,1.611 -2.109,1.611c-1.469,0 -2.417,-1.184 -2.417,-3.815c0,-2.369 0.877,-3.719 2.441,-3.719c1.326,0 1.895,0.687 2.108,1.682l3.294,0c-0.048,-1.374 -1.209,-4.36 -5.331,-4.36c-3.744,0 -5.948,2.891 -5.948,6.516c0,3.696 1.967,6.326 5.782,6.326c3.649,0 5.094,-2.203 5.497,-4.241l-3.317,0Z" style="fill:#dd4f05;fill-rule:nonzero;"></path>
        <path d="M118.317,86.295c-0.308,0.924 -0.924,1.611 -2.109,1.611c-1.469,0 -2.417,-1.184 -2.417,-3.815c0,-2.369 0.877,-3.719 2.441,-3.719c1.327,0 1.895,0.687 2.109,1.682l3.293,0c-0.047,-1.374 -1.208,-4.36 -5.331,-4.36c-3.744,0 -5.947,2.891 -5.947,6.516c0,3.696 1.966,6.326 5.781,6.326c3.649,0 5.094,-2.203 5.497,-4.241l-3.317,0Z" style="fill:#dd4f05;fill-rule:nonzero;"></path>
        <path d="M128.79,77.694c-3.886,0 -6.184,2.678 -6.184,6.469c0,3.648 2.227,6.373 6.018,6.373c3.886,0 6.113,-2.725 6.113,-6.445c0,-3.838 -2.346,-6.397 -5.947,-6.397Zm-0.143,2.678c1.706,0 2.654,1.208 2.654,3.767c0,2.346 -0.924,3.744 -2.606,3.744c-1.635,0 -2.654,-1.398 -2.654,-3.768c0,-2.582 1.043,-3.743 2.606,-3.743Z" style="fill:#dd4f05;fill-rule:nonzero;"></path>
        <path d="M147.271,77.978l-3.388,0l0,6.54c0,2.417 -0.64,3.246 -2.18,3.246c-1.469,0 -1.896,-1.114 -1.896,-2.464l0,-7.322l-3.388,0l0,8.009c0,3.033 1.588,4.549 4.076,4.549c1.587,0 2.653,-0.474 3.388,-1.706c0.023,0.427 0.047,1.09 0.095,1.422l3.317,0c-0.024,-1.09 -0.024,-2.393 -0.024,-3.554l0,-8.72Z" style="fill:#dd4f05;fill-rule:nonzero;"></path>
        <path d="M149.759,90.252l3.412,0l0,-6.824c0,-2.18 0.805,-2.985 2.251,-2.985c1.516,0 1.966,0.995 1.966,2.393l0,7.416l3.389,0l0,-7.795c0,-3.081 -1.588,-4.763 -4.052,-4.763c-2.156,0 -3.151,1.09 -3.554,1.848c-0.024,-0.379 -0.071,-1.232 -0.142,-1.564l-3.294,0c0.024,0.924 0.024,2.062 0.024,3.104l0,9.17Z" style="fill:#dd4f05;fill-rule:nonzero;"></path>
        <path d="M161.772,80.537l1.895,0l0,6.445c0,2.156 0.782,3.436 3.175,3.436c0.687,0 1.612,0 2.275,-0.237l0,-2.322c-0.237,0.024 -0.569,0.024 -0.758,0.024c-1.019,0 -1.303,-0.356 -1.303,-1.28l0,-6.066l2.416,0l0,-2.559l-2.416,0l0,-3.317l-3.389,0l0,3.317l-1.895,0l0,2.559Z" style="fill:#dd4f05;fill-rule:nonzero;"></path>
      </g>
      <path d="M30.638,41.726c0.268,0.005 0.534,0.015 0.801,0.035c0.575,0.044 1.147,0.128 1.711,0.252c1.343,0.294 2.633,0.815 3.807,1.531c0.513,0.313 1.001,0.666 1.466,1.048l0.017,0.015c0.167,-0.038 0.166,-0.037 0.333,-0.073c0.212,-0.043 0.211,-0.043 0.423,-0.085c0.705,-0.131 1.414,-0.237 2.128,-0.305c2.282,-0.219 4.596,-0.114 6.845,0.33c1.834,0.363 3.625,0.944 5.32,1.732c2.274,1.057 4.376,2.483 6.202,4.201c2.249,2.115 4.077,4.673 5.343,7.489c0.821,1.827 1.406,3.76 1.734,5.735c0.364,2.192 0.415,4.435 0.155,6.641c-0.103,0.875 -0.259,1.741 -0.457,2.599l-0.012,0.053c0.062,0.076 0.123,0.154 0.183,0.231c0.08,0.104 0.158,0.209 0.236,0.315c0.281,0.393 0.543,0.798 0.779,1.219c0.477,0.853 0.853,1.761 1.118,2.702c0.484,1.721 0.591,3.546 0.324,5.314c-0.17,1.119 -0.492,2.216 -0.956,3.249c-0.638,1.421 -1.542,2.718 -2.653,3.809c-0.929,0.912 -2.003,1.677 -3.17,2.253c-1.243,0.614 -2.587,1.012 -3.964,1.175c-0.528,0.062 -1.06,0.087 -1.592,0.084c-0.371,-0.002 -0.74,-0.017 -1.109,-0.049c-0.722,-0.065 -1.438,-0.192 -2.138,-0.382c-1.123,-0.304 -2.202,-0.767 -3.197,-1.37c-0.514,-0.312 -1.002,-0.662 -1.468,-1.041l-0.05,-0.041c-0.163,0.037 -0.162,0.036 -0.325,0.072c-0.184,0.037 -0.367,0.074 -0.551,0.109c-0.458,0.083 -0.917,0.156 -1.379,0.213c-0.877,0.11 -1.761,0.169 -2.645,0.18c-1.256,0.014 -2.513,-0.071 -3.755,-0.255c-0.668,-0.099 -1.331,-0.23 -1.988,-0.384l-0.17,-0.042l-0.078,-0.019c-0.106,0.079 -0.213,0.155 -0.321,0.231c-0.405,0.28 -0.824,0.539 -1.259,0.771c-1.03,0.55 -2.136,0.953 -3.279,1.193c-1.519,0.32 -3.099,0.351 -4.631,0.099c-1.411,-0.233 -2.78,-0.71 -4.029,-1.407c-1.178,-0.657 -2.247,-1.506 -3.154,-2.504c-0.774,-0.852 -1.43,-1.812 -1.941,-2.843c-0.453,-0.915 -0.793,-1.885 -1.008,-2.883c-0.494,-2.285 -0.341,-4.699 0.441,-6.902c0.321,-0.902 0.745,-1.765 1.261,-2.57c0.209,-0.327 0.435,-0.642 0.672,-0.949l0.022,-0.028c-0.037,-0.17 -0.071,-0.34 -0.104,-0.51c-0.031,-0.161 -0.06,-0.321 -0.088,-0.482c-0.108,-0.641 -0.193,-1.285 -0.249,-1.933c-0.122,-1.408 -0.118,-2.827 0.012,-4.235c0.1,-1.084 0.28,-2.157 0.526,-3.217l0.005,-0.022c-0.062,-0.076 -0.123,-0.154 -0.183,-0.231c-0.08,-0.104 -0.159,-0.209 -0.236,-0.315c-0.748,-1.04 -1.341,-2.188 -1.74,-3.406c-0.694,-2.119 -0.81,-4.416 -0.339,-6.594c0.236,-1.096 0.623,-2.16 1.146,-3.152c0.606,-1.15 1.392,-2.203 2.322,-3.111c1.002,-0.98 2.171,-1.787 3.442,-2.38c1.117,-0.52 2.313,-0.872 3.533,-1.041c0.527,-0.073 1.056,-0.109 1.588,-0.119c0.162,-0.001 0.161,-0.001 0.323,0Zm25.982,28.239c-0.553,0.011 -1.103,0.055 -1.649,0.145c-0.97,0.159 -1.917,0.452 -2.808,0.866c-0.914,0.424 -1.768,0.976 -2.531,1.634c-1.028,0.886 -1.889,1.962 -2.524,3.161c-0.502,0.949 -0.862,1.973 -1.064,3.027c-0.218,1.138 -0.256,2.312 -0.11,3.462c0.147,1.155 0.48,2.283 0.982,3.333c0.566,1.184 1.351,2.263 2.298,3.171c0.983,0.942 2.142,1.697 3.403,2.214c1.311,0.538 2.726,0.811 4.143,0.811c1.407,0 2.809,-0.277 4.11,-0.811c1.829,-0.751 3.44,-2.006 4.625,-3.587c0.875,-1.169 1.516,-2.511 1.865,-3.93c0.296,-1.206 0.381,-2.46 0.256,-3.696c-0.108,-1.072 -0.376,-2.129 -0.795,-3.122c-0.494,-1.172 -1.192,-2.255 -2.056,-3.188c-0.924,-0.996 -2.032,-1.818 -3.255,-2.41c-0.929,-0.45 -1.923,-0.763 -2.942,-0.933c-0.504,-0.084 -1.014,-0.129 -1.524,-0.145c-0.142,-0.002 -0.283,-0.003 -0.424,-0.002Zm-26.284,-0.626c-0.507,0.01 -1.012,0.048 -1.514,0.124c-1.016,0.153 -2.011,0.454 -2.943,0.887c-1.231,0.572 -2.351,1.375 -3.29,2.354c-0.881,0.919 -1.599,1.992 -2.11,3.158c-0.436,0.992 -0.721,2.05 -0.843,3.127c-0.142,1.239 -0.074,2.5 0.209,3.715c0.232,0.996 0.606,1.957 1.106,2.848c0.6,1.071 1.382,2.037 2.299,2.852c0.919,0.818 1.978,1.48 3.116,1.948c1.301,0.535 2.704,0.811 4.11,0.811c1.511,0 3.016,-0.311 4.401,-0.915c1.29,-0.563 2.471,-1.379 3.454,-2.387c0.949,-0.974 1.713,-2.122 2.239,-3.377c0.452,-1.077 0.721,-2.23 0.797,-3.396c0.018,-0.278 0.023,-0.557 0.022,-0.836c-0.003,-0.418 -0.023,-0.834 -0.071,-1.249c-0.082,-0.717 -0.235,-1.426 -0.457,-2.113c-0.579,-1.797 -1.635,-3.434 -3.03,-4.706c-1.04,-0.949 -2.262,-1.695 -3.585,-2.18c-0.808,-0.297 -1.652,-0.497 -2.508,-0.594c-0.372,-0.043 -0.745,-0.064 -1.12,-0.071c-0.141,-0.001 -0.141,-0.001 -0.282,0Zm0.463,-1.64c0.479,0.016 0.955,0.052 1.429,0.118c0.922,0.13 1.829,0.365 2.7,0.696c1.84,0.701 3.502,1.845 4.823,3.304c1.153,1.273 2.039,2.785 2.579,4.416c0.294,0.887 0.487,1.808 0.572,2.739c0.054,0.588 0.065,1.181 0.041,1.771c-0.054,1.381 -0.34,2.75 -0.844,4.038c-0.414,1.059 -0.976,2.061 -1.661,2.969c-0.31,0.411 -0.647,0.799 -1.002,1.171l-0.066,0.067c1.793,0.355 3.631,0.482 5.455,0.381c0.854,-0.047 1.702,-0.146 2.545,-0.289l0.06,-0.01c-0.092,-0.105 -0.092,-0.105 -0.183,-0.211c-0.097,-0.115 -0.097,-0.115 -0.192,-0.231c-0.312,-0.392 -0.606,-0.797 -0.873,-1.222c-0.648,-1.031 -1.143,-2.158 -1.463,-3.333c-0.415,-1.525 -0.533,-3.127 -0.355,-4.697c0.168,-1.473 0.605,-2.914 1.28,-4.234c0.684,-1.337 1.608,-2.547 2.717,-3.56c1.493,-1.363 3.315,-2.359 5.273,-2.865c1.323,-0.342 2.7,-0.462 4.063,-0.362c1.208,0.089 2.401,0.353 3.533,0.784c1.052,0.401 2.048,0.947 2.954,1.616c0.312,0.231 0.612,0.478 0.903,0.736l0.06,0.054c0.474,-2.545 0.497,-5.169 0.066,-7.722c-0.329,-1.953 -0.93,-3.86 -1.774,-5.651c-1.13,-2.395 -2.701,-4.583 -4.606,-6.422c-1.661,-1.604 -3.575,-2.948 -5.651,-3.958c-1.659,-0.806 -3.42,-1.403 -5.229,-1.766c-1.026,-0.206 -2.066,-0.336 -3.112,-0.394c-0.454,-0.025 -0.909,-0.039 -1.364,-0.035c-0.802,0.007 -1.603,0.055 -2.4,0.146c-0.403,0.046 -0.803,0.106 -1.203,0.173l-0.07,0.012c0.072,0.081 0.142,0.163 0.212,0.245c0.096,0.115 0.095,0.115 0.19,0.232c0.374,0.47 0.718,0.963 1.023,1.48c0.566,0.959 1.002,1.994 1.293,3.068c0.411,1.517 0.529,3.11 0.35,4.671c-0.169,1.473 -0.604,2.913 -1.28,4.233c-1.049,2.053 -2.668,3.8 -4.635,5.002c-1.041,0.636 -2.174,1.117 -3.355,1.423c-1.272,0.33 -2.596,0.452 -3.908,0.372c-1.211,-0.073 -2.409,-0.324 -3.548,-0.742c-1.058,-0.388 -2.062,-0.923 -2.976,-1.582c-0.355,-0.256 -0.693,-0.532 -1.021,-0.821l-0.06,-0.055c-0.165,0.887 -0.277,1.782 -0.332,2.682c-0.101,1.635 -0.019,3.281 0.242,4.898l0.001,0.003c0.054,-0.05 0.108,-0.1 0.163,-0.15c0.111,-0.098 0.11,-0.098 0.222,-0.196c0.227,-0.191 0.457,-0.378 0.696,-0.555c0.438,-0.325 0.897,-0.622 1.374,-0.886c1.238,-0.687 2.59,-1.159 3.987,-1.389c0.673,-0.111 1.352,-0.162 2.034,-0.166c0.162,0.001 0.162,0.001 0.323,0.004Zm24.592,14.703l-0.001,0.237c-0.003,0.122 -0.003,0.121 -0.007,0.243c-0.017,0.286 -0.042,0.57 -0.086,0.853c-0.118,0.764 -0.344,1.51 -0.683,2.205c0.099,-0.014 0.199,-0.026 0.298,-0.037c0.188,-0.018 0.376,-0.032 0.565,-0.037c0.383,-0.011 0.767,0.01 1.146,0.062c0.272,0.037 0.543,0.087 0.809,0.156c0.027,0.007 0.055,0.02 0.079,0.03c0.049,0.019 0.064,0.024 0.115,0.042c0.067,0.023 0.135,0.044 0.203,0.064c0.412,0.113 0.838,0.181 1.267,0.18c0.347,-0.001 0.695,-0.05 1.016,-0.186l0.041,-0.018l0.042,-0.02l0.056,-0.018c0.02,0.001 0.04,-0.002 0.06,0.001c0.04,0.006 0.076,0.025 0.105,0.053c0.014,0.013 0.024,0.031 0.036,0.047l0.548,1.017c0.006,0.017 0.014,0.032 0.018,0.049c0.016,0.07 -0.008,0.144 -0.061,0.191c-0.013,0.011 -0.029,0.019 -0.044,0.029c-0.052,0.025 -0.104,0.05 -0.157,0.073c-0.161,0.066 -0.323,0.122 -0.491,0.165c-0.379,0.097 -0.773,0.133 -1.163,0.129c-0.398,-0.004 -0.794,-0.049 -1.185,-0.121c-0.188,-0.034 -0.374,-0.076 -0.559,-0.122c-0.132,-0.034 -0.262,-0.076 -0.395,-0.107l0.008,0.001l0.011,0.001l-0.036,-0.006c-0.101,-0.025 -0.203,-0.049 -0.306,-0.071c-0.089,-0.018 -0.089,-0.018 -0.179,-0.035c-0.291,-0.049 -0.583,-0.083 -0.878,-0.091c-0.632,-0.016 -1.271,0.082 -1.858,0.321c-0.311,0.127 -0.616,0.291 -0.873,0.509l-0.016,0.015l-0.009,0.009l-0.052,0.035c-0.019,0.005 -0.039,0.014 -0.059,0.017c-0.042,0.005 -0.084,-0.003 -0.12,-0.024c-0.018,-0.01 -0.032,-0.026 -0.048,-0.039l-0.783,-0.86c-0.011,-0.017 -0.025,-0.032 -0.033,-0.051c-0.026,-0.055 -0.023,-0.121 0.006,-0.175c0.01,-0.017 0.025,-0.032 0.037,-0.048c0.061,-0.057 0.12,-0.115 0.179,-0.174c0.287,-0.295 0.55,-0.611 0.781,-0.952c0.468,-0.693 0.802,-1.475 0.97,-2.295c0.064,-0.317 0.104,-0.64 0.117,-0.964c0.004,-0.12 0.005,-0.241 0.005,-0.362l-1.76,0c-0.021,-0.003 -0.042,-0.003 -0.061,-0.009c-0.059,-0.02 -0.106,-0.067 -0.125,-0.126c-0.007,-0.019 -0.007,-0.04 -0.01,-0.06l0,-1.174c0.003,-0.02 0.003,-0.041 0.01,-0.06c0.019,-0.059 0.066,-0.106 0.125,-0.126c0.019,-0.006 0.04,-0.006 0.061,-0.009l1.421,0c-0.026,-0.093 -0.068,-0.179 -0.111,-0.266c-0.027,-0.065 -0.046,-0.132 -0.069,-0.199c-0.02,-0.059 -0.04,-0.117 -0.06,-0.176c-0.062,-0.177 -0.123,-0.354 -0.183,-0.532c-0.139,-0.424 -0.268,-0.851 -0.343,-1.291c-0.078,-0.458 -0.092,-0.926 -0.026,-1.386c0.053,-0.37 0.154,-0.734 0.302,-1.078c0.469,-1.098 1.392,-1.979 2.511,-2.394c0.441,-0.163 0.905,-0.25 1.374,-0.264c0.056,-0.002 0.112,-0.002 0.168,-0.002c0.183,0.005 0.364,0.017 0.546,0.042c0.353,0.05 0.7,0.146 1.03,0.282c1.186,0.487 2.128,1.51 2.512,2.734c0.125,0.398 0.189,0.811 0.197,1.228l0,0.054c-0.003,0.02 -0.003,0.041 -0.009,0.061c-0.019,0.059 -0.067,0.107 -0.126,0.126c-0.019,0.007 -0.04,0.007 -0.061,0.01l-1.173,0c-0.02,-0.003 -0.04,-0.003 -0.06,-0.009c-0.019,-0.007 -0.038,-0.016 -0.054,-0.028c-0.033,-0.024 -0.058,-0.058 -0.071,-0.096c-0.014,-0.043 -0.01,-0.091 -0.011,-0.134c-0.001,-0.024 -0.002,-0.048 -0.003,-0.072c-0.004,-0.07 -0.004,-0.07 -0.011,-0.141c-0.013,-0.115 -0.03,-0.23 -0.056,-0.343c-0.072,-0.308 -0.196,-0.603 -0.367,-0.87c-0.263,-0.412 -0.639,-0.753 -1.075,-0.976c-0.558,-0.285 -1.212,-0.376 -1.826,-0.244c-0.317,0.068 -0.62,0.193 -0.894,0.365c-0.313,0.197 -0.586,0.454 -0.802,0.754c-0.122,0.17 -0.225,0.354 -0.306,0.546c-0.064,0.153 -0.115,0.311 -0.151,0.472c-0.037,0.166 -0.058,0.335 -0.064,0.504c-0.003,0.077 0,0.153 0.002,0.229c0.003,0.143 0.01,0.284 0.029,0.426c0.029,0.224 0.079,0.444 0.138,0.662c0.117,0.433 0.28,0.852 0.445,1.269c0.02,0.062 0.035,0.125 0.055,0.187c0.066,0.197 0.145,0.39 0.21,0.587l0.013,0.041l4.233,0l0.061,0.01c0.018,0.009 0.038,0.015 0.054,0.027c0.033,0.025 0.058,0.059 0.071,0.098c0.006,0.019 0.007,0.04 0.01,0.06l0,1.174c-0.003,0.02 -0.004,0.041 -0.01,0.06c-0.019,0.06 -0.066,0.107 -0.125,0.126c-0.02,0.006 -0.04,0.006 -0.061,0.01l-3.95,0Zm-29.564,-0.079c0.153,0.396 0.355,0.774 0.596,1.123c0.605,0.877 1.461,1.57 2.437,1.995c1.004,0.437 2.14,0.584 3.222,0.412c0.416,-0.066 0.824,-0.182 1.212,-0.345c0.235,-0.099 0.462,-0.215 0.683,-0.343l0.058,-0.022c0.021,0 0.042,-0.005 0.063,-0.002c0.041,0.005 0.08,0.023 0.111,0.052c0.015,0.014 0.025,0.033 0.038,0.049l0.547,1.017c0.007,0.019 0.017,0.037 0.021,0.057c0.011,0.061 -0.008,0.124 -0.049,0.169c-0.014,0.015 -0.032,0.025 -0.048,0.037c-0.105,0.059 -0.104,0.059 -0.21,0.116c-0.316,0.164 -0.639,0.312 -0.973,0.432c-0.541,0.195 -1.104,0.325 -1.676,0.382c-0.381,0.039 -0.767,0.044 -1.149,0.019c-0.955,-0.06 -1.896,-0.304 -2.755,-0.724c-0.941,-0.458 -1.781,-1.119 -2.448,-1.925c-0.435,-0.526 -0.797,-1.111 -1.071,-1.735c-0.109,-0.249 -0.202,-0.504 -0.284,-0.762l-0.001,-0.002l-2.436,0l-0.06,-0.009c-0.019,-0.01 -0.039,-0.016 -0.055,-0.028c-0.033,-0.024 -0.058,-0.059 -0.071,-0.098c-0.006,-0.019 -0.006,-0.04 -0.01,-0.06l0,-1.174c0.004,-0.02 0.004,-0.041 0.01,-0.06c0.019,-0.059 0.066,-0.106 0.126,-0.126c0.019,-0.006 0.04,-0.006 0.06,-0.009l2.103,0c-0.009,-0.06 -0.015,-0.121 -0.02,-0.182c-0.004,-0.071 -0.007,-0.142 -0.009,-0.213c-0.001,-0.095 -0.004,-0.189 0.002,-0.284c0.01,-0.156 0.036,-0.31 0.057,-0.465l0.004,-0.029l-2.137,0l-0.06,-0.01c-0.019,-0.009 -0.039,-0.016 -0.055,-0.028c-0.033,-0.024 -0.058,-0.058 -0.071,-0.098c-0.006,-0.019 -0.006,-0.04 -0.01,-0.06l0,-1.174c0.004,-0.02 0.004,-0.041 0.01,-0.06c0.019,-0.059 0.066,-0.106 0.126,-0.126c0.019,-0.006 0.04,-0.006 0.06,-0.009l2.436,0c0.029,-0.095 0.062,-0.189 0.094,-0.283c0.034,-0.093 0.069,-0.185 0.106,-0.276c0.267,-0.656 0.623,-1.272 1.064,-1.827c0.636,-0.799 1.438,-1.463 2.342,-1.938c0.912,-0.479 1.925,-0.761 2.953,-0.824c0.421,-0.026 0.843,-0.018 1.262,0.031c0.688,0.081 1.364,0.267 1.999,0.543c0.219,0.095 0.433,0.201 0.643,0.316c0.068,0.038 0.15,0.07 0.185,0.146c0.009,0.018 0.015,0.038 0.017,0.058c0.003,0.02 0.002,0.041 -0.001,0.061c-0.004,0.02 -0.014,0.038 -0.021,0.057l-0.547,1.017c-0.013,0.017 -0.023,0.035 -0.038,0.05c-0.046,0.043 -0.112,0.062 -0.174,0.049c-0.02,-0.004 -0.038,-0.015 -0.058,-0.022c-0.085,-0.049 -0.085,-0.049 -0.171,-0.097c-0.168,-0.088 -0.337,-0.172 -0.512,-0.246c-0.361,-0.151 -0.738,-0.262 -1.123,-0.33c-1.346,-0.236 -2.766,0.026 -3.942,0.72c-1.089,0.643 -1.966,1.634 -2.468,2.795l5.967,0c0.02,0.003 0.041,0.003 0.06,0.009c0.059,0.02 0.107,0.067 0.126,0.126c0.006,0.019 0.006,0.04 0.009,0.06l0,1.174c-0.003,0.02 -0.003,0.041 -0.009,0.06c-0.019,0.059 -0.067,0.107 -0.126,0.126c-0.019,0.006 -0.04,0.006 -0.06,0.01l-6.341,0c-0.024,0.132 -0.031,0.267 -0.033,0.401c-0.002,0.103 -0.003,0.204 0.005,0.306c0.016,0.151 0.041,0.301 0.058,0.452l0.002,0.014l6.387,0l0.061,0.009c0.018,0.01 0.036,0.019 0.054,0.028c0.038,0.038 0.054,0.045 0.071,0.098c0.007,0.019 0.007,0.04 0.01,0.06l0,1.174c-0.003,0.02 -0.003,0.041 -0.01,0.06c-0.019,0.059 -0.066,0.106 -0.125,0.126c-0.02,0.006 -0.04,0.006 -0.061,0.009l-5.979,0Zm4.509,-39.033c-0.462,0.008 -0.922,0.04 -1.379,0.104c-1.063,0.148 -2.104,0.455 -3.078,0.907c-0.834,0.388 -1.619,0.881 -2.331,1.466c-1.047,0.86 -1.934,1.915 -2.597,3.098c-0.546,0.973 -0.941,2.031 -1.164,3.124c-0.25,1.225 -0.29,2.493 -0.118,3.732c0.154,1.107 0.48,2.189 0.963,3.197c0.568,1.184 1.35,2.262 2.298,3.171c0.983,0.942 2.143,1.698 3.403,2.214c1.312,0.538 2.726,0.811 4.143,0.811c1.286,0 2.571,-0.22 3.781,-0.657c0.998,-0.361 1.943,-0.867 2.797,-1.498c1.056,-0.781 1.97,-1.753 2.682,-2.857c0.553,-0.857 0.984,-1.791 1.276,-2.768c0.358,-1.196 0.503,-2.452 0.44,-3.698c-0.061,-1.226 -0.33,-2.442 -0.797,-3.578c-0.502,-1.22 -1.227,-2.346 -2.131,-3.307c-0.964,-1.025 -2.124,-1.86 -3.402,-2.45c-0.984,-0.453 -2.035,-0.759 -3.108,-0.907c-0.463,-0.064 -0.928,-0.096 -1.395,-0.104c-0.142,-0.001 -0.142,-0.001 -0.283,0Zm0.727,19.555l-1.095,0c-0.02,-0.003 -0.041,-0.003 -0.061,-0.009c-0.059,-0.019 -0.106,-0.067 -0.125,-0.126c-0.007,-0.019 -0.007,-0.04 -0.01,-0.06l0,-2.189c-0.072,-0.017 -0.144,-0.035 -0.216,-0.054c-0.073,-0.02 -0.146,-0.042 -0.218,-0.064c-0.282,-0.092 -0.557,-0.203 -0.819,-0.344c-0.17,-0.092 -0.333,-0.194 -0.488,-0.309c-0.076,-0.055 -0.149,-0.115 -0.221,-0.175c-0.161,-0.133 -0.314,-0.273 -0.452,-0.431c-0.252,-0.289 -0.453,-0.622 -0.587,-0.981c-0.117,-0.314 -0.184,-0.645 -0.201,-0.979c-0.002,-0.03 -0.003,-0.061 -0.004,-0.092c-0.001,-0.072 -0.009,-0.144 0.035,-0.206c0.012,-0.017 0.027,-0.032 0.044,-0.044c0.016,-0.012 0.035,-0.022 0.055,-0.028c0.019,-0.007 0.04,-0.007 0.061,-0.01l1.173,0l0.06,0.009c0.018,0.009 0.036,0.018 0.054,0.028c0.038,0.037 0.054,0.044 0.071,0.096c0.013,0.039 0.01,0.07 0.011,0.109c0.001,0.043 0.002,0.048 0.005,0.091c0.004,0.047 0.01,0.092 0.017,0.138c0.027,0.154 0.07,0.303 0.136,0.445c0.073,0.16 0.173,0.309 0.292,0.44c0.058,0.064 0.121,0.121 0.187,0.178c0.098,0.086 0.198,0.164 0.31,0.232c0.247,0.151 0.524,0.251 0.807,0.31c0.517,0.106 1.064,0.085 1.57,-0.065c0.205,-0.061 0.404,-0.143 0.588,-0.251c0.079,-0.046 0.157,-0.096 0.228,-0.153c0.153,-0.122 0.283,-0.279 0.384,-0.446c0.089,-0.148 0.156,-0.308 0.197,-0.476c0.117,-0.47 0.025,-0.98 -0.248,-1.38c-0.065,-0.095 -0.14,-0.184 -0.222,-0.264c-0.038,-0.038 -0.08,-0.072 -0.12,-0.109c-0.058,-0.053 -0.113,-0.107 -0.175,-0.156c-0.122,-0.095 -0.254,-0.175 -0.392,-0.241c-0.273,-0.131 -0.57,-0.209 -0.87,-0.24c-0.168,-0.018 -0.337,-0.015 -0.506,-0.02c-0.098,-0.005 -0.097,-0.005 -0.195,-0.011c-0.192,-0.017 -0.383,-0.042 -0.572,-0.081c-0.368,-0.075 -0.727,-0.198 -1.061,-0.369c-0.192,-0.099 -0.376,-0.215 -0.549,-0.346c-0.072,-0.055 -0.141,-0.115 -0.211,-0.173c-0.061,-0.052 -0.123,-0.103 -0.182,-0.157c-0.141,-0.128 -0.27,-0.269 -0.387,-0.419c-0.386,-0.495 -0.614,-1.097 -0.663,-1.722c-0.025,-0.309 -0.008,-0.619 0.058,-0.922c0.077,-0.357 0.218,-0.699 0.406,-1.012c0.141,-0.237 0.31,-0.456 0.499,-0.657c0.083,-0.089 0.172,-0.17 0.261,-0.254c0.054,-0.05 0.052,-0.052 0.106,-0.102c0.075,-0.068 0.153,-0.133 0.233,-0.194c0.318,-0.243 0.68,-0.426 1.062,-0.545c0.17,-0.053 0.343,-0.09 0.518,-0.12l0.053,-0.008l0,-2.174l0.01,-0.06c0.009,-0.018 0.015,-0.038 0.027,-0.055c0.025,-0.033 0.059,-0.058 0.098,-0.071c0.02,-0.006 0.041,-0.006 0.061,-0.009l1.173,0c0.02,0.003 0.041,0.003 0.061,0.009c0.059,0.019 0.106,0.067 0.125,0.126c0.006,0.019 0.007,0.04 0.01,0.06l0,2.174c0.067,0.01 0.135,0.022 0.202,0.035c0.074,0.015 0.074,0.015 0.148,0.032c0.168,0.042 0.333,0.091 0.494,0.155c0.389,0.153 0.746,0.374 1.046,0.665c0.048,0.039 0.095,0.079 0.142,0.121c0.2,0.179 0.38,0.379 0.533,0.601c0.267,0.388 0.444,0.834 0.52,1.299c0.024,0.152 0.038,0.305 0.042,0.458c0.002,0.071 0.009,0.144 -0.035,0.206c-0.012,0.017 -0.027,0.032 -0.043,0.044c-0.017,0.012 -0.036,0.022 -0.055,0.028c-0.02,0.007 -0.04,0.007 -0.061,0.01l-1.173,0c-0.02,-0.003 -0.041,-0.003 -0.06,-0.009c-0.019,-0.007 -0.038,-0.016 -0.054,-0.028c-0.033,-0.023 -0.058,-0.057 -0.071,-0.095c-0.013,-0.039 -0.011,-0.071 -0.012,-0.109c-0.001,-0.047 -0.001,-0.046 -0.005,-0.093c-0.004,-0.046 -0.009,-0.091 -0.016,-0.137c-0.025,-0.138 -0.061,-0.273 -0.117,-0.401c-0.069,-0.162 -0.164,-0.313 -0.279,-0.447c-0.242,-0.282 -0.57,-0.489 -0.914,-0.622c-0.522,-0.2 -1.105,-0.242 -1.651,-0.131c-0.345,0.069 -0.68,0.201 -0.971,0.4c-0.241,0.166 -0.45,0.375 -0.595,0.63c-0.278,0.491 -0.295,1.103 -0.044,1.609c0.079,0.16 0.183,0.306 0.306,0.435c0.049,0.051 0.103,0.096 0.156,0.144c0.044,0.04 0.085,0.082 0.131,0.12c0.133,0.111 0.28,0.203 0.436,0.277c0.291,0.14 0.61,0.218 0.931,0.246c0.148,0.012 0.296,0.01 0.445,0.014c0.098,0.005 0.097,0.005 0.195,0.011c0.16,0.015 0.32,0.033 0.478,0.062c0.401,0.074 0.792,0.202 1.154,0.389c0.193,0.098 0.376,0.214 0.549,0.345c0.073,0.055 0.142,0.114 0.211,0.173c0.049,0.042 0.099,0.082 0.147,0.124c0.143,0.127 0.275,0.266 0.394,0.415c0.402,0.503 0.641,1.118 0.692,1.759c0.024,0.309 0.007,0.619 -0.059,0.922c-0.077,0.357 -0.217,0.699 -0.405,1.013c-0.142,0.236 -0.31,0.456 -0.499,0.656c-0.084,0.089 -0.173,0.171 -0.261,0.254c-0.11,0.103 -0.219,0.205 -0.34,0.296c-0.278,0.212 -0.59,0.38 -0.919,0.497c-0.215,0.077 -0.436,0.13 -0.66,0.168l-0.053,0.008l0,2.174l-0.01,0.06c-0.009,0.018 -0.016,0.038 -0.028,0.055c-0.024,0.033 -0.058,0.058 -0.097,0.071c-0.02,0.006 -0.04,0.006 -0.061,0.009Z" style="fill:#dd4f05;"></path>
    </g>
  </g>
</svg>
