<?xml version="1.0" encoding="UTF-8" standalone="no"?>
<svg xmlns="http://www.w3.org/2000/svg" xmlns:xlink="http://www.w3.org/1999/xlink" width="100%" height="100%" viewBox="0 0 216 126" xml:space="preserve" style="fill-rule:evenodd;clip-rule:evenodd;stroke-linejoin:round;stroke-miterlimit:1.41421;">
  <g id="product.-logo.-current.-account">
    <rect x="0" y="0" width="216" height="126" style="fill:none;"></rect>
    <g>
      <path d="M56.045,87.717c-0.094,0.145 -0.189,0.287 -0.287,0.429c-0.1,0.143 -0.202,0.285 -0.305,0.425c-0.292,0.388 -0.599,0.764 -0.925,1.124c-0.116,0.128 -0.234,0.253 -0.355,0.377c-0.052,0.055 -0.105,0.116 -0.163,0.164c-0.315,0.259 -0.687,0.463 -1.081,0.568c-0.153,0.04 -0.311,0.065 -0.468,0.073c-0.078,0.005 -0.156,0.004 -0.234,0.004c-0.245,0.628 -0.477,1.262 -0.737,1.885c-0.028,0.061 -0.061,0.118 -0.101,0.172c-0.119,0.155 -0.293,0.267 -0.482,0.313c-0.072,0.017 -0.149,0.029 -0.223,0.022c-0.052,-0.005 -0.103,-0.02 -0.15,-0.042c-0.029,-0.014 -0.058,-0.033 -0.089,-0.042l-0.003,-0.001c-0.014,-0.002 -0.029,-0.003 -0.043,-0.007c-0.024,-0.007 -0.054,-0.022 -0.076,-0.035c-0.051,-0.027 -0.099,-0.059 -0.144,-0.094c-0.224,-0.174 -0.367,-0.441 -0.342,-0.728c0.009,-0.101 0.039,-0.196 0.081,-0.288l0.713,-1.821c-0.044,-0.041 -0.086,-0.083 -0.128,-0.126c-0.046,-0.05 -0.046,-0.049 -0.091,-0.1c-0.086,-0.102 -0.166,-0.208 -0.238,-0.321c-0.155,-0.247 -0.266,-0.523 -0.32,-0.809c-0.025,-0.137 -0.036,-0.274 -0.038,-0.413l0,-0.814l-23.811,0l-0.066,-0.011c-0.02,-0.01 -0.041,-0.017 -0.059,-0.03c-0.037,-0.027 -0.064,-0.064 -0.078,-0.107c-0.007,-0.021 -0.007,-0.044 -0.01,-0.066l0,-31.377c0.003,-0.022 0.003,-0.045 0.01,-0.066c0.021,-0.065 0.073,-0.116 0.137,-0.137c0.021,-0.007 0.044,-0.007 0.066,-0.011l31.831,0l1.742,-4.312c0.014,-0.031 0.031,-0.061 0.048,-0.091c0.127,-0.203 0.311,-0.37 0.548,-0.429c0.069,-0.017 0.138,-0.022 0.209,-0.022c0.044,0.002 0.044,0.002 0.088,0.007c0.086,0.015 0.166,0.04 0.245,0.077l2.191,0.861c0.19,-0.462 0.382,-0.95 0.584,-1.418c0.032,-0.071 0.066,-0.141 0.101,-0.21c0.097,-0.186 0.209,-0.365 0.336,-0.532c0.328,-0.431 0.752,-0.786 1.233,-1.035c0.25,-0.13 0.513,-0.228 0.784,-0.301c0.579,-0.148 0.431,-1.115 0.667,-1.664c0.085,-0.185 0.188,-0.36 0.315,-0.519c0.276,-0.344 0.653,-0.606 1.077,-0.733c0.236,-0.072 0.485,-0.101 0.731,-0.086c0.241,0.015 0.475,0.073 0.697,0.163c0.347,0.141 0.663,0.365 0.889,0.665c0.077,0.103 0.144,0.214 0.197,0.332c0.023,0.05 0.041,0.101 0.06,0.153c0.045,0.122 0.083,0.244 0.106,0.371c0.076,0.413 0.023,0.833 -0.105,1.229l-0.647,1.617c0.038,0.063 0.073,0.127 0.108,0.192c0.034,0.066 0.066,0.132 0.097,0.199c0.112,0.252 0.201,0.513 0.261,0.783c0.151,0.684 0.106,1.4 -0.122,2.062l-0.02,0.055l-0.021,0.055l-0.997,2.531l12.34,0l0.066,0.011c0.02,0.01 0.041,0.017 0.059,0.03c0.037,0.027 0.064,0.064 0.078,0.107c0.007,0.021 0.007,0.044 0.011,0.066l0,31.463c-0.004,0.022 -0.004,0.045 -0.011,0.066c-0.021,0.064 -0.073,0.116 -0.137,0.137c-0.021,0.007 -0.044,0.007 -0.066,0.01l-25.533,0Zm10.701,-37.789c-0.167,0.004 -0.334,0.023 -0.496,0.065c-0.399,0.102 -0.757,0.326 -1.016,0.648c-0.118,0.148 -0.211,0.311 -0.286,0.484c-4.188,10.248 -8.287,20.532 -12.319,30.843c-0.507,1.33 -0.858,2.716 -1.039,4.129c-0.072,0.566 -0.119,1.135 -0.139,1.705c-0.007,0.214 -0.009,0.427 -0.011,0.64c0.001,0.031 0.004,0.061 0.009,0.092c0.042,0.214 0.191,0.396 0.37,0.515c0.077,0.051 0.16,0.091 0.25,0.11c0.217,0.047 0.448,-0.018 0.612,-0.165c0.058,-0.055 0.11,-0.115 0.165,-0.173c0.584,-0.633 1.136,-1.294 1.635,-1.997c0.453,-0.638 0.863,-1.306 1.222,-2.002c0.248,-0.483 0.471,-0.978 0.67,-1.482c4.022,-10.277 8.365,-20.427 12.31,-30.734c0.092,-0.261 0.141,-0.534 0.125,-0.811c-0.036,-0.633 -0.387,-1.229 -0.931,-1.557c-0.098,-0.059 -0.201,-0.113 -0.308,-0.152c-0.096,-0.034 -0.196,-0.06 -0.295,-0.085c-0.173,-0.043 -0.349,-0.074 -0.528,-0.073Zm13.421,7.609l-11.526,0l-10.549,26.374c-0.067,0.148 -0.067,0.148 -0.135,0.296c-0.278,0.582 -0.584,1.15 -0.896,1.715l23.106,0l0,-28.385Zm-52.666,0l0,28.385l22.422,0c0.017,-0.151 0.036,-0.302 0.056,-0.453c0.114,-0.797 0.277,-1.585 0.488,-2.363c0.184,-0.678 0.405,-1.345 0.645,-2.006l11.206,-27.758c-0.465,-0.177 -0.93,-0.354 -1.395,-0.532c-1.378,3.458 -2.741,6.921 -4.132,10.373c-0.014,0.031 -0.029,0.061 -0.046,0.09c-0.127,0.206 -0.33,0.354 -0.568,0.403c-0.069,0.014 -0.142,0.022 -0.212,0.013c-0.08,-0.01 -0.145,-0.053 -0.218,-0.082l-0.004,0c-0.014,-0.003 -0.029,-0.004 -0.043,-0.008c-0.024,-0.006 -0.054,-0.022 -0.077,-0.034c-0.049,-0.028 -0.097,-0.059 -0.142,-0.094c-0.189,-0.144 -0.325,-0.36 -0.344,-0.6c-0.004,-0.057 -0.002,-0.115 0.006,-0.171c0.012,-0.086 0.04,-0.169 0.077,-0.247l1.934,-4.916l-29.653,0Zm19.707,20.947l-17.099,0c-0.022,-0.004 -0.045,-0.004 -0.066,-0.011c-0.065,-0.021 -0.116,-0.072 -0.137,-0.137c-0.007,-0.021 -0.007,-0.044 -0.011,-0.066l0,-1.282c0.004,-0.022 0.004,-0.045 0.011,-0.066c0.021,-0.065 0.072,-0.117 0.137,-0.138c0.021,-0.007 0.044,-0.007 0.066,-0.01l17.099,0c0.022,0.003 0.044,0.007 0.066,0.01c0.02,0.01 0.042,0.018 0.06,0.031c0.036,0.026 0.064,0.064 0.078,0.107c0.006,0.021 0.007,0.044 0.01,0.066l0,1.282c-0.003,0.022 -0.004,0.045 -0.01,0.066c-0.021,0.065 -0.073,0.116 -0.138,0.137c-0.021,0.007 -0.043,0.007 -0.066,0.011Zm30.095,-0.684l-13.936,0c-0.022,-0.004 -0.045,-0.004 -0.066,-0.011c-0.065,-0.021 -0.116,-0.072 -0.137,-0.137c-0.007,-0.021 -0.007,-0.044 -0.011,-0.066l0,-1.283c0.004,-0.022 0.004,-0.044 0.011,-0.066c0.021,-0.064 0.072,-0.116 0.137,-0.137c0.021,-0.007 0.044,-0.007 0.066,-0.01l13.936,0c0.022,0.003 0.044,0.007 0.066,0.01c0.02,0.01 0.041,0.017 0.059,0.03c0.037,0.027 0.064,0.064 0.078,0.107c0.007,0.022 0.007,0.044 0.011,0.066l0,1.283c-0.004,0.022 -0.004,0.045 -0.011,0.066c-0.021,0.065 -0.073,0.116 -0.137,0.137c-0.021,0.007 -0.044,0.007 -0.066,0.011Zm0,-3.848l-10.858,0c-0.022,-0.003 -0.045,-0.003 -0.066,-0.01c-0.065,-0.021 -0.117,-0.073 -0.138,-0.137c-0.006,-0.021 -0.007,-0.044 -0.01,-0.066l0,-1.283c0.003,-0.022 0.004,-0.045 0.01,-0.066c0.021,-0.065 0.073,-0.116 0.138,-0.137c0.021,-0.007 0.044,-0.007 0.066,-0.011l10.858,0c0.022,0.004 0.044,0.007 0.066,0.011c0.02,0.01 0.041,0.017 0.059,0.03c0.037,0.027 0.064,0.064 0.078,0.107c0.007,0.021 0.007,0.044 0.011,0.066l0,1.283c-0.004,0.022 -0.004,0.045 -0.011,0.066c-0.021,0.064 -0.073,0.116 -0.137,0.137c-0.021,0.007 -0.044,0.007 -0.066,0.01Zm-15.568,-13.018l2.619,1.049l0.057,0.035c0.015,0.016 0.032,0.031 0.044,0.05c0.024,0.038 0.036,0.083 0.032,0.128c-0.001,0.022 -0.009,0.043 -0.014,0.065l-0.477,1.191c-0.012,0.019 -0.02,0.04 -0.035,0.057c-0.043,0.052 -0.11,0.081 -0.178,0.076c-0.022,-0.001 -0.043,-0.01 -0.065,-0.015l-2.619,-1.049c-0.019,-0.011 -0.04,-0.02 -0.057,-0.034c-0.053,-0.044 -0.081,-0.111 -0.077,-0.179c0.002,-0.022 0.01,-0.043 0.015,-0.065l0.477,-1.19c0.011,-0.019 0.02,-0.04 0.034,-0.057c0.029,-0.035 0.068,-0.06 0.112,-0.071c0.022,-0.005 0.044,-0.004 0.067,-0.006c0.021,0.005 0.043,0.01 0.065,0.015Zm6.828,-13.891c-0.06,0.005 -0.114,0.026 -0.167,0.054c-0.046,0.025 -0.089,0.054 -0.12,0.096c-0.044,0.061 -0.069,0.134 -0.093,0.204l-0.402,0.939c0.04,0.008 0.08,0.018 0.12,0.028c0.048,0.014 0.095,0.029 0.143,0.045c0.07,0.026 0.139,0.055 0.206,0.088c0.108,0.054 0.21,0.117 0.314,0.179l0.068,0.041l0.346,-1.037c0.012,-0.031 0.027,-0.061 0.038,-0.093c0.007,-0.025 0.013,-0.051 0.014,-0.077c0.005,-0.074 -0.02,-0.142 -0.054,-0.206c-0.026,-0.049 -0.057,-0.096 -0.099,-0.134c-0.032,-0.029 -0.07,-0.052 -0.109,-0.073c-0.065,-0.035 -0.131,-0.056 -0.205,-0.054Z" style="fill:#dd4f05;"></path>
      <g>
        <path d="M109.048,62.569c-0.447,1.217 -1.341,2.805 -3.847,2.805c-3.525,0 -4.716,-3.226 -4.716,-6.279c0,-3.252 1.315,-6.23 4.616,-6.23c2.458,0 3.5,1.34 3.947,2.854l3.226,0c-0.471,-2.879 -2.68,-5.435 -7.049,-5.435c-5.435,0 -8.066,4.219 -8.066,8.91c0,4.889 2.581,8.737 7.918,8.737c4.144,0 6.478,-2.259 7.197,-5.362l-3.226,0Z" style="fill:#424a52;fill-rule:nonzero;"></path>
        <path d="M124.957,54.95l-3.077,0l0,6.751c0,2.73 -0.745,3.748 -2.606,3.748c-1.738,0 -2.185,-1.291 -2.185,-2.78l0,-7.719l-3.077,0l0,8.339c0,3.301 1.787,4.716 4.244,4.716c1.737,0 2.904,-0.596 3.624,-1.911c0.024,0.546 0.049,1.266 0.099,1.613l3.003,0c-0.025,-1.017 -0.025,-2.482 -0.025,-3.723l0,-9.034Z" style="fill:#424a52;fill-rule:nonzero;"></path>
        <path d="M127.712,67.707l3.078,0l0,-5.783c0,-3.4 1.588,-4.319 4.17,-4.294l0,-2.978c-2.16,0.025 -3.574,1.117 -4.17,2.656c0,-0.869 -0.025,-2.06 -0.074,-2.358l-3.028,0c0.024,0.943 0.024,2.01 0.024,3.45l0,9.307Z" style="fill:#424a52;fill-rule:nonzero;"></path>
        <path d="M136.3,67.707l3.078,0l0,-5.783c0,-3.4 1.588,-4.319 4.169,-4.294l0,-2.978c-2.159,0.025 -3.574,1.117 -4.169,2.656c0,-0.869 -0.025,-2.06 -0.075,-2.358l-3.028,0c0.025,0.943 0.025,2.01 0.025,3.45l0,9.307Z" style="fill:#424a52;fill-rule:nonzero;"></path>
        <path d="M155.809,61.974c0.049,-0.373 0.049,-0.67 0.049,-1.092c0,-3.028 -1.439,-6.23 -5.733,-6.23c-4.021,0 -6.031,2.904 -6.031,6.85c0,3.326 1.762,6.503 5.882,6.503c3.847,0 5.237,-2.432 5.708,-4.021l-3.102,0c-0.348,0.819 -0.869,1.564 -2.507,1.564c-1.911,0 -2.879,-1.663 -2.879,-3.574l8.613,0Zm-8.539,-1.961c0.174,-1.812 0.944,-3.102 2.83,-3.102c1.886,0 2.631,1.389 2.656,3.102l-5.486,0Z" style="fill:#424a52;fill-rule:nonzero;"></path>
        <path d="M157.869,67.707l3.077,0l0,-6.999c0,-2.358 0.894,-3.524 2.706,-3.524c1.687,0 2.258,1.141 2.258,2.73l0,7.793l3.078,0l0,-8.141c0,-3.276 -1.737,-4.914 -4.244,-4.914c-2.309,0 -3.351,1.191 -3.798,2.085c0,-0.397 -0.049,-1.44 -0.124,-1.787l-2.978,0c0.025,0.968 0.025,2.109 0.025,3.202l0,9.555Z" style="fill:#424a52;fill-rule:nonzero;"></path>
        <path d="M170.13,57.308l2.035,0l0,7.148c0,2.184 0.844,3.425 3.152,3.425c0.695,0 1.588,-0.025 2.234,-0.248l0,-2.16c-0.298,0.05 -0.67,0.05 -0.919,0.05c-1.092,0 -1.389,-0.447 -1.389,-1.514l0,-6.701l2.606,0l0,-2.358l-2.606,0l0,-3.55l-3.078,0l0,3.55l-2.035,0l0,2.358Z" style="fill:#424a52;fill-rule:nonzero;"></path>
        <path d="M107.41,88.581l1.414,3.946l3.897,0l-6.081,-17.101l-4.641,0l-5.808,17.101l3.649,0l1.315,-3.946l6.255,0Zm-5.461,-3.028c0.968,-3.103 1.812,-5.783 2.234,-7.471l0.025,0c0.422,1.539 1.191,3.847 2.407,7.471l-4.666,0Z" style="fill:#dd4f05;fill-rule:nonzero;"></path>
        <path d="M121.532,88.382c-0.322,0.968 -0.968,1.688 -2.209,1.688c-1.539,0 -2.531,-1.241 -2.531,-3.996c0,-2.482 0.918,-3.897 2.556,-3.897c1.39,0 1.986,0.72 2.209,1.762l3.45,0c-0.05,-1.439 -1.266,-4.566 -5.585,-4.566c-3.921,0 -6.229,3.028 -6.229,6.825c0,3.872 2.06,6.627 6.056,6.627c3.822,0 5.336,-2.308 5.758,-4.443l-3.475,0Z" style="fill:#dd4f05;fill-rule:nonzero;"></path>
        <path d="M134.414,88.382c-0.323,0.968 -0.968,1.688 -2.209,1.688c-1.539,0 -2.532,-1.241 -2.532,-3.996c0,-2.482 0.918,-3.897 2.557,-3.897c1.389,0 1.985,0.72 2.209,1.762l3.45,0c-0.05,-1.439 -1.266,-4.566 -5.585,-4.566c-3.922,0 -6.23,3.028 -6.23,6.825c0,3.872 2.06,6.627 6.056,6.627c3.823,0 5.337,-2.308 5.759,-4.443l-3.475,0Z" style="fill:#dd4f05;fill-rule:nonzero;"></path>
        <path d="M145.384,79.373c-4.07,0 -6.478,2.804 -6.478,6.775c0,3.823 2.333,6.677 6.304,6.677c4.071,0 6.404,-2.854 6.404,-6.751c0,-4.021 -2.457,-6.701 -6.23,-6.701Zm-0.149,2.804c1.787,0 2.78,1.266 2.78,3.947c0,2.457 -0.968,3.921 -2.73,3.921c-1.713,0 -2.78,-1.464 -2.78,-3.946c0,-2.706 1.092,-3.922 2.73,-3.922Z" style="fill:#dd4f05;fill-rule:nonzero;"></path>
        <path d="M164.744,79.67l-3.55,0l0,6.851c0,2.531 -0.67,3.4 -2.283,3.4c-1.539,0 -1.986,-1.166 -1.986,-2.581l0,-7.67l-3.549,0l0,8.39c0,3.177 1.663,4.765 4.269,4.765c1.663,0 2.78,-0.496 3.549,-1.787c0.025,0.447 0.05,1.142 0.1,1.489l3.475,0c-0.025,-1.142 -0.025,-2.507 -0.025,-3.723l0,-9.134Z" style="fill:#dd4f05;fill-rule:nonzero;"></path>
        <path d="M167.35,92.527l3.574,0l0,-7.148c0,-2.283 0.844,-3.127 2.358,-3.127c1.588,0 2.06,1.042 2.06,2.507l0,7.768l3.549,0l0,-8.166c0,-3.226 -1.663,-4.988 -4.244,-4.988c-2.259,0 -3.301,1.141 -3.723,1.936c-0.025,-0.398 -0.075,-1.291 -0.149,-1.639l-3.45,0c0.025,0.968 0.025,2.16 0.025,3.252l0,9.605Z" style="fill:#dd4f05;fill-rule:nonzero;"></path>
        <path d="M179.934,82.351l1.985,0l0,6.751c0,2.259 0.819,3.599 3.326,3.599c0.72,0 1.688,0 2.383,-0.248l0,-2.433c-0.248,0.025 -0.596,0.025 -0.795,0.025c-1.067,0 -1.365,-0.372 -1.365,-1.34l0,-6.354l2.532,0l0,-2.681l-2.532,0l0,-3.474l-3.549,0l0,3.474l-1.985,0l0,2.681Z" style="fill:#dd4f05;fill-rule:nonzero;"></path>
      </g>
    </g>
  </g>
</svg>
