<?xml version="1.0" encoding="UTF-8" standalone="no"?>
<svg xmlns="http://www.w3.org/2000/svg" xmlns:xlink="http://www.w3.org/1999/xlink" width="100%" height="100%" viewBox="0 0 216 126" xml:space="preserve" style="fill-rule:evenodd;clip-rule:evenodd;stroke-linejoin:round;stroke-miterlimit:1.41421;">
  <g id="product.-logo.-call.-account">
    <rect x="0" y="0" width="216" height="126" style="fill:none;"></rect>
    <g>
      <g>
        <path d="M40.719,98.893c-0.254,1.101 -0.875,2.767 -3.162,2.767c-2.992,0 -3.782,-3.049 -3.782,-6.126c0,-3.415 0.959,-6.041 3.726,-6.041c2.117,0 2.907,1.299 3.19,2.682l5.645,0c-0.395,-3.359 -2.992,-6.69 -8.694,-6.69c-6.69,0 -9.739,4.742 -9.739,10.247c0,5.645 3.077,9.936 9.457,9.936c5.335,0 8.299,-2.71 9.033,-6.775l-5.674,0Z" style="fill:#dd4f05;fill-rule:nonzero;"></path>
        <path d="M62.454,95.591c0,-3.557 -1.976,-5.42 -6.831,-5.448c-5.25,-0.029 -6.718,2.399 -6.916,4.883l5.081,0c0.141,-0.96 0.452,-1.524 1.694,-1.524c1.327,0 1.665,0.677 1.665,1.637l0,0.819l-1.806,0c-4.517,0 -7.311,1.496 -7.311,4.996c0,2.625 1.806,4.714 5.109,4.714c2.399,0 3.472,-0.819 4.178,-1.722c0.028,0.339 0.113,1.045 0.226,1.355l5.081,0c-0.085,-0.508 -0.17,-2.71 -0.17,-4.375l0,-5.335Zm-5.307,3.585c0,1.609 -0.254,2.879 -2.117,2.879c-1.101,0 -1.609,-0.706 -1.609,-1.553c0,-1.101 0.621,-1.778 2.513,-1.778l1.213,0l0,0.452Z" style="fill:#dd4f05;fill-rule:nonzero;"></path>
        <rect x="65.588" y="84.864" width="5.504" height="20.437" style="fill:#dd4f05;fill-rule:nonzero;"></rect>
        <rect x="74.225" y="84.864" width="5.504" height="20.437" style="fill:#dd4f05;fill-rule:nonzero;"></rect>
        <path d="M94.408,100.333l1.779,4.968l3.867,0l-7.029,-19.534l-4.573,0l-6.746,19.534l3.613,0l1.722,-4.968l7.367,0Zm-6.549,-3.049c1.242,-3.81 2.259,-6.944 2.738,-8.779l0.029,0c0.48,1.666 1.411,4.319 2.935,8.779l-5.702,0Z" style="fill:#424a52;fill-rule:nonzero;"></path>
        <path d="M111.006,100.7c-0.423,1.298 -1.27,2.173 -2.794,2.173c-2.033,0 -3.218,-1.693 -3.218,-4.855c0,-2.964 1.157,-4.77 3.246,-4.77c1.75,0 2.512,0.96 2.795,2.258l3.443,0c-0.113,-1.722 -1.524,-5.053 -6.153,-5.053c-4.404,0 -6.916,3.472 -6.916,7.678c0,4.46 2.371,7.509 6.718,7.509c4.121,0 5.815,-2.512 6.351,-4.94l-3.472,0Z" style="fill:#424a52;fill-rule:nonzero;"></path>
        <path d="M126.024,100.7c-0.424,1.298 -1.271,2.173 -2.795,2.173c-2.032,0 -3.218,-1.693 -3.218,-4.855c0,-2.964 1.157,-4.77 3.246,-4.77c1.75,0 2.512,0.96 2.795,2.258l3.444,0c-0.113,-1.722 -1.525,-5.053 -6.154,-5.053c-4.404,0 -6.916,3.472 -6.916,7.678c0,4.46 2.371,7.509 6.718,7.509c4.122,0 5.815,-2.512 6.352,-4.94l-3.472,0Z" style="fill:#424a52;fill-rule:nonzero;"></path>
        <path d="M138.557,90.453c-4.517,0 -7.142,3.218 -7.142,7.622c0,4.347 2.569,7.565 6.972,7.565c4.545,0 7.086,-3.303 7.086,-7.622c0,-4.544 -2.71,-7.565 -6.916,-7.565Zm-0.141,2.795c2.258,0 3.472,1.693 3.472,4.827c0,2.935 -1.214,4.77 -3.416,4.77c-2.174,0 -3.5,-1.863 -3.5,-4.799c0,-3.161 1.298,-4.798 3.444,-4.798Z" style="fill:#424a52;fill-rule:nonzero;"></path>
        <path d="M160.8,90.792l-3.5,0l0,7.678c0,3.105 -0.847,4.262 -2.964,4.262c-1.976,0 -2.484,-1.468 -2.484,-3.161l0,-8.779l-3.5,0l0,9.485c0,3.754 2.032,5.363 4.827,5.363c1.976,0 3.302,-0.678 4.121,-2.174c0.028,0.621 0.057,1.44 0.113,1.835l3.416,0c-0.029,-1.157 -0.029,-2.823 -0.029,-4.234l0,-10.275Z" style="fill:#424a52;fill-rule:nonzero;"></path>
        <path d="M164.668,105.301l3.5,0l0,-7.96c0,-2.682 1.016,-4.009 3.077,-4.009c1.919,0 2.568,1.299 2.568,3.106l0,8.863l3.501,0l0,-9.259c0,-3.726 -1.976,-5.589 -4.827,-5.589c-2.626,0 -3.811,1.355 -4.319,2.371c0,-0.451 -0.057,-1.637 -0.141,-2.032l-3.388,0c0.029,1.101 0.029,2.399 0.029,3.641l0,10.868Z" style="fill:#424a52;fill-rule:nonzero;"></path>
        <path d="M179.318,93.474l2.315,0l0,8.129c0,2.484 0.959,3.896 3.584,3.896c0.791,0 1.807,-0.029 2.541,-0.283l0,-2.455c-0.339,0.056 -0.762,0.056 -1.044,0.056c-1.242,0 -1.581,-0.508 -1.581,-1.722l0,-7.621l2.964,0l0,-2.682l-2.964,0l0,-4.037l-3.5,0l0,4.037l-2.315,0l0,2.682Z" style="fill:#424a52;fill-rule:nonzero;"></path>
      </g>
      <path d="M108.112,20.332c0.596,0.009 1.191,0.032 1.785,0.079c1.284,0.102 2.56,0.301 3.814,0.596c0.677,0.159 1.348,0.346 2.009,0.56c0.333,0.108 0.661,0.227 0.99,0.344c0.204,0.072 0.408,0.14 0.611,0.216c0.458,0.171 0.909,0.359 1.354,0.563c0.744,0.342 1.468,0.727 2.171,1.147c0.141,0.084 0.281,0.17 0.421,0.257c0.097,0.06 0.215,0.11 0.243,0.233c0.005,0.019 0.007,0.04 0.006,0.06c-0.002,0.055 -0.013,0.067 -0.035,0.116l-0.62,1.008c-0.012,0.015 -0.023,0.033 -0.038,0.047c-0.06,0.057 -0.148,0.078 -0.228,0.055c-0.019,-0.006 -0.037,-0.016 -0.056,-0.024c-0.218,-0.132 -0.436,-0.263 -0.655,-0.392c-0.795,-0.457 -1.605,-0.886 -2.445,-1.255c-0.278,-0.122 -0.56,-0.238 -0.844,-0.346c-0.143,-0.054 -0.287,-0.105 -0.43,-0.157c-0.232,-0.084 -0.463,-0.169 -0.696,-0.248c-0.384,-0.131 -0.773,-0.252 -1.163,-0.362c-1.314,-0.371 -2.659,-0.626 -4.017,-0.763c-3.226,-0.327 -6.515,0.018 -9.608,0.992c-3.032,0.955 -5.867,2.505 -8.301,4.55c-1.37,1.152 -2.609,2.458 -3.686,3.887c-0.211,0.279 -0.413,0.565 -0.61,0.853c-1.774,2.589 -3.05,5.513 -3.713,8.581c-0.414,1.914 -0.584,3.88 -0.511,5.836c0.031,0.848 0.114,1.692 0.23,2.532c0.048,0.348 0.1,0.694 0.161,1.04c0.111,0.634 0.249,1.264 0.412,1.887c0.531,2.029 1.333,3.985 2.384,5.8c1.298,2.241 2.974,4.256 4.929,5.953c0.452,0.393 0.919,0.767 1.398,1.126c0.737,0.553 1.502,1.067 2.296,1.535c1.331,0.784 2.736,1.439 4.193,1.953c2.925,1.033 6.047,1.485 9.145,1.336c3.121,-0.15 6.21,-0.914 9.04,-2.241c1.995,-0.936 3.858,-2.149 5.521,-3.596c1.263,-1.099 2.402,-2.333 3.413,-3.668c0.657,-0.867 1.258,-1.775 1.793,-2.722c1.388,-2.459 2.33,-5.163 2.77,-7.952c0.504,-3.196 0.349,-6.484 -0.444,-9.62c-0.514,-2.032 -1.297,-3.997 -2.322,-5.825c-0.672,-1.197 -1.445,-2.334 -2.308,-3.403l-0.012,-0.014l-0.607,3.376l-0.019,0.059c-0.012,0.018 -0.021,0.037 -0.034,0.052c-0.041,0.048 -0.1,0.078 -0.163,0.082c-0.021,0.001 -0.041,-0.003 -0.062,-0.004l-1.162,-0.232c-0.019,-0.007 -0.04,-0.011 -0.058,-0.02c-0.073,-0.036 -0.124,-0.11 -0.131,-0.192c-0.001,-0.02 0.002,-0.04 0.003,-0.06l1.008,-5.657c0.006,-0.019 0.009,-0.04 0.018,-0.058c0.035,-0.076 0.11,-0.128 0.193,-0.135c0.02,-0.002 0.041,0.002 0.061,0.003l5.657,1.007c0.019,0.006 0.04,0.01 0.059,0.019c0.076,0.036 0.128,0.113 0.134,0.197c0.001,0.02 -0.003,0.041 -0.004,0.062l-0.233,1.162c-0.006,0.019 -0.01,0.039 -0.019,0.058c-0.036,0.073 -0.11,0.124 -0.192,0.13c-0.02,0.002 -0.04,-0.001 -0.06,-0.002l-2.868,-0.51c0.125,0.158 0.247,0.318 0.368,0.479c0.136,0.183 0.27,0.367 0.403,0.552c0.671,0.958 1.285,1.954 1.823,2.993c1.056,2.036 1.833,4.217 2.302,6.462c0.644,3.085 0.711,6.285 0.196,9.394c-0.349,2.101 -0.961,4.158 -1.817,6.108c-1.323,3.014 -3.228,5.777 -5.581,8.077c-1.516,1.482 -3.219,2.771 -5.055,3.829c-2.379,1.372 -4.978,2.359 -7.668,2.915c-2.546,0.527 -5.168,0.67 -7.756,0.412c-2.976,-0.298 -5.891,-1.126 -8.584,-2.426c-1.51,-0.729 -2.952,-1.605 -4.295,-2.61c-0.427,-0.319 -0.842,-0.657 -1.247,-1.004c-0.68,-0.583 -1.332,-1.2 -1.95,-1.849c-2.041,-2.147 -3.701,-4.647 -4.878,-7.366c-1.758,-4.062 -2.427,-8.591 -1.965,-12.991c0.228,-2.171 0.739,-4.312 1.517,-6.352c1.174,-3.08 2.956,-5.93 5.205,-8.339c2.217,-2.374 4.885,-4.312 7.823,-5.698c2.213,-1.044 4.575,-1.771 6.991,-2.156c0.835,-0.133 1.676,-0.225 2.52,-0.276c0.339,-0.02 0.677,-0.032 1.016,-0.04c0.255,-0.004 0.509,-0.006 0.764,-0.005Zm9.217,28.995l0.042,0.003l0.04,0.011c0.106,0.039 0.106,0.039 0.212,0.081c0.184,0.077 0.367,0.158 0.545,0.25c0.856,0.439 1.631,1.034 2.321,1.702c0.315,0.306 0.62,0.626 0.9,0.966c0.666,0.808 1.212,1.729 1.565,2.717c0.07,0.195 0.131,0.393 0.183,0.593c0.04,0.152 0.074,0.306 0.102,0.461c0.019,0.112 0.036,0.225 0.048,0.338c0.012,0.108 0.02,0.218 0.024,0.327c0.019,0.55 -0.071,1.128 -0.389,1.589c-0.118,0.171 -0.27,0.311 -0.424,0.449c-0.138,0.122 -0.278,0.242 -0.42,0.36c-0.621,0.517 -1.295,0.966 -2.013,1.337c-1.224,0.632 -2.563,1.039 -3.935,1.172c-1.95,0.188 -3.947,-0.197 -5.695,-1.077c-0.655,-0.33 -1.275,-0.727 -1.848,-1.184c-0.273,-0.217 -0.532,-0.45 -0.783,-0.691c-4.193,-4.135 -8.329,-8.327 -12.493,-12.491c-0.285,-0.297 -0.558,-0.604 -0.811,-0.929c-0.541,-0.696 -0.997,-1.457 -1.352,-2.263c-0.6,-1.361 -0.91,-2.844 -0.908,-4.331c0.002,-1.492 0.325,-2.983 0.944,-4.341c0.268,-0.589 0.591,-1.153 0.963,-1.683c0.094,-0.134 0.193,-0.263 0.29,-0.394c0.04,-0.053 0.078,-0.108 0.121,-0.159c0.151,-0.182 0.317,-0.353 0.483,-0.522c0.239,-0.244 0.481,-0.485 0.723,-0.727c0.017,-0.024 0.036,-0.047 0.055,-0.07c0.348,-0.379 0.87,-0.534 1.371,-0.554c0.07,-0.001 0.069,-0.001 0.139,-0.001c0.585,0.021 1.153,0.175 1.694,0.393c0.39,0.157 0.767,0.346 1.13,0.557c0.936,0.543 1.789,1.224 2.56,1.98c0.684,0.671 1.316,1.403 1.827,2.215c0.112,0.176 0.216,0.357 0.313,0.541c0.078,0.149 0.15,0.301 0.216,0.455c0.11,0.259 0.201,0.526 0.261,0.801c0.036,0.161 0.064,0.327 0.07,0.491c0.005,0.154 -0.009,0.312 -0.031,0.464c-0.05,0.35 -0.173,0.69 -0.423,0.947c-0.266,0.275 -0.529,0.554 -0.792,0.831c-0.23,0.242 -0.477,0.469 -0.687,0.727l-0.004,0.006c-0.007,0.012 -0.002,0.013 -0.006,0.027c-0.006,0.026 -0.013,0.044 -0.023,0.068c-0.012,0.034 -0.022,0.069 -0.032,0.104c-0.009,0.04 -0.017,0.08 -0.024,0.12c-0.016,0.109 -0.021,0.218 -0.01,0.328c0.026,0.275 0.142,0.531 0.31,0.749c0.076,0.099 0.164,0.187 0.255,0.272c1.642,1.643 3.283,3.288 4.922,4.935c0.693,0.698 1.387,1.396 2.078,2.097c0.251,0.254 0.502,0.51 0.752,0.766c0.174,0.178 0.352,0.355 0.518,0.541c0.043,0.016 0.086,0.028 0.13,0.04c0.153,0.035 0.313,0.046 0.464,-0.001c0.058,-0.018 0.111,-0.045 0.163,-0.076l0.023,-0.015l0.025,-0.019l0.058,-0.03l0.042,-0.009c0.016,-0.01 0.03,-0.023 0.044,-0.035c0.047,-0.044 0.092,-0.089 0.137,-0.134c0.06,-0.054 0.124,-0.104 0.187,-0.156c0.158,-0.131 0.162,-0.133 0.318,-0.259c0.186,-0.149 0.372,-0.296 0.567,-0.433l0.055,-0.037c0.499,-0.281 1.048,-0.483 1.626,-0.5l0.047,0c0.106,0 0.106,-0.006 0.212,0.006c0.17,0.042 0.341,0.082 0.511,0.128c0.163,0.047 0.322,0.101 0.479,0.169l0.014,0.007l0.024,0Zm-22.304,-14.966c-0.135,0.249 -0.262,0.502 -0.375,0.762c-0.235,0.541 -0.416,1.106 -0.54,1.683c-0.162,0.753 -0.23,1.525 -0.199,2.295c0.054,1.325 0.397,2.639 1.014,3.815c0.398,0.76 0.907,1.455 1.505,2.071c4.154,4.211 8.341,8.389 12.547,12.548c0.191,0.184 0.387,0.363 0.591,0.532c0.51,0.422 1.064,0.789 1.654,1.088c0.972,0.494 2.035,0.794 3.12,0.899c0.758,0.073 1.522,0.051 2.274,-0.078c0.757,-0.13 1.496,-0.366 2.198,-0.677c0.285,-0.125 0.563,-0.265 0.837,-0.412l0.005,-0.003l-6.593,-6.593c-0.079,0.011 -0.078,0.01 -0.157,0.019c-0.127,0.01 -0.254,0.016 -0.381,0.011c-0.233,-0.011 -0.466,-0.055 -0.684,-0.138c-0.079,-0.03 -0.158,-0.065 -0.232,-0.105c-0.191,-0.104 -0.364,-0.241 -0.532,-0.376c-0.209,-0.168 -0.409,-0.345 -0.604,-0.529c-2.564,-2.53 -5.094,-5.094 -7.641,-7.64c-0.065,-0.065 -0.133,-0.126 -0.196,-0.192c-0.393,-0.418 -0.686,-0.922 -0.817,-1.483c-0.065,-0.276 -0.086,-0.556 -0.077,-0.838l0.003,-0.047l-6.681,-6.681c-0.013,0.023 -0.026,0.046 -0.039,0.069Zm21.091,16.212c-0.1,0.004 -0.198,0.016 -0.295,0.042c-0.15,0.04 -0.291,0.11 -0.417,0.201c-0.029,0.02 -0.054,0.049 -0.08,0.072c-0.029,0.027 -0.071,0.064 -0.101,0.09c-0.084,0.072 -0.17,0.142 -0.256,0.211c-0.149,0.117 -0.301,0.228 -0.458,0.334l6.406,6.405c0.137,-0.105 0.273,-0.212 0.407,-0.322c0.063,-0.051 0.129,-0.1 0.186,-0.158c0.012,-0.014 0.022,-0.028 0.032,-0.043c0.055,-0.094 0.083,-0.199 0.099,-0.306c0.018,-0.126 0.021,-0.255 0.015,-0.382c-0.009,-0.213 -0.042,-0.424 -0.089,-0.63c-0.071,-0.313 -0.174,-0.618 -0.298,-0.913c-0.263,-0.625 -0.627,-1.208 -1.058,-1.731c-0.155,-0.189 -0.323,-0.365 -0.492,-0.542c-0.146,-0.151 -0.29,-0.302 -0.443,-0.445c-0.408,-0.384 -0.851,-0.731 -1.321,-1.036c-0.375,-0.244 -0.768,-0.459 -1.18,-0.634c-0.052,-0.028 -0.101,-0.06 -0.152,-0.089c-0.132,-0.07 -0.27,-0.115 -0.42,-0.125c-0.042,0 -0.042,0 -0.085,0.001Zm-2.986,-0.006l-0.012,0.002l-0.002,0.001c0.005,-0.001 0.018,-0.003 0.014,-0.003Zm-15.927,-18.668c-0.061,0.001 -0.129,0.001 -0.187,0.024c-0.004,0.002 -0.008,0.003 -0.012,0.006l-0.003,0.005l-0.038,0.051l-0.073,0.072c-0.18,0.204 -0.179,0.204 -0.361,0.406c-0.134,0.146 -0.268,0.29 -0.404,0.433l-0.08,0.082l6.479,6.331c0.408,-0.433 0.815,-0.866 1.227,-1.296c0.019,-0.053 0.016,-0.117 0.016,-0.172c0.001,-0.152 -0.018,-0.299 -0.055,-0.447c-0.059,-0.229 -0.15,-0.45 -0.254,-0.662c-0.148,-0.299 -0.325,-0.582 -0.517,-0.854c-0.51,-0.721 -1.135,-1.363 -1.806,-1.935c-0.495,-0.422 -1.018,-0.814 -1.572,-1.157c-0.39,-0.241 -0.798,-0.46 -1.225,-0.63c-0.298,-0.119 -0.609,-0.218 -0.93,-0.25c-0.068,-0.006 -0.136,-0.008 -0.205,-0.007Z" style="fill:#dd4f05;"></path>
    </g>
  </g>
</svg>
